<?xml version="1.0" encoding="UTF-8"?>
<!DOCTYPE svg PUBLIC "-//W3C//DTD SVG 1.1//EN" "http://www.w3.org/Graphics/SVG/1.1/DTD/svg11.dtd">
<svg xmlns="http://www.w3.org/2000/svg" version="1.1" width="701px" height="270px" style="shape-rendering:geometricPrecision; text-rendering:geometricPrecision; image-rendering:optimizeQuality; fill-rule:evenodd; clip-rule:evenodd" xmlns:xlink="http://www.w3.org/1999/xlink">
<g><path style="opacity:0.996" fill="#9acd32" d="M 53.5,15.5 C 251.5,15.3333 449.5,15.5 647.5,16C 661.667,19.5 670.5,28.3333 674,42.5C 674.667,91.1667 674.667,139.833 674,188.5C 670.5,202.667 661.667,211.5 647.5,215C 449.5,215.667 251.5,215.667 53.5,215C 39.3333,211.5 30.5,202.667 27,188.5C 26.3333,139.833 26.3333,91.1667 27,42.5C 30.682,28.3189 39.5154,19.3189 53.5,15.5 Z"/></g>
<g><path style="opacity:1" fill="#f1f1f1" d="M 54.5,20.5 C 251.5,20.3333 448.5,20.5 645.5,21C 657.559,24.0586 665.392,31.5586 669,43.5C 669.667,91.1667 669.667,138.833 669,186.5C 665.833,199 658,206.833 645.5,210C 448.5,210.667 251.5,210.667 54.5,210C 42.5586,206.392 35.0586,198.559 32,186.5C 31.3333,138.833 31.3333,91.1667 32,43.5C 35.684,31.9837 43.184,24.3171 54.5,20.5 Z"/></g>
<g><path style="opacity:1" fill="#808080" d="M 130.5,71.5 C 132.5,71.5 134.5,71.5 136.5,71.5C 136.622,77.8959 137.289,84.2292 138.5,90.5C 148.867,89.8 159.2,88.8 169.5,87.5C 170.167,93.5 170.833,99.5 171.5,105.5C 161.162,106.367 150.829,107.367 140.5,108.5C 140.754,112.939 141.588,117.272 143,121.5C 156.059,119.305 169.226,117.638 182.5,116.5C 182.699,122.559 183.366,128.559 184.5,134.5C 171.467,135.594 158.467,136.927 145.5,138.5C 146.98,151.191 148.646,163.857 150.5,176.5C 144.185,177.313 137.852,177.979 131.5,178.5C 130.113,166.125 128.446,153.791 126.5,141.5C 112.167,142.833 97.8337,144.167 83.5,145.5C 83.0789,139.798 82.4122,134.131 81.5,128.5C 95.124,126.755 108.791,125.422 122.5,124.5C 122.666,120.486 122.499,116.486 122,112.5C 121.326,111.422 120.326,110.755 119,110.5C 109.798,111.712 100.631,113.046 91.5,114.5C 89.9521,108.545 88.6188,102.545 87.5,96.5C 98.1512,95.3353 108.818,94.3353 119.5,93.5C 118.241,86.8734 117.241,80.2067 116.5,73.5C 121.37,73.3104 126.036,72.6437 130.5,71.5 Z"/></g>
<g><path style="opacity:1" fill="#7f7f7f" d="M 419.5,71.5 C 425.833,71.5 432.167,71.5 438.5,71.5C 438.5,81.1667 438.5,90.8333 438.5,100.5C 454.408,98.6046 470.075,95.6046 485.5,91.5C 490.486,95.1549 495.153,99.1549 499.5,103.5C 492.237,117.71 483.737,131.043 474,143.5C 468.587,140.207 463.42,136.541 458.5,132.5C 463.899,126.7 468.566,120.367 472.5,113.5C 472.167,113.167 471.833,112.833 471.5,112.5C 460.558,114.824 449.558,116.824 438.5,118.5C 438.333,130.171 438.5,141.838 439,153.5C 439.5,154 440,154.5 440.5,155C 458.129,156.928 475.796,156.761 493.5,154.5C 493.395,160.901 492.728,167.234 491.5,173.5C 471.831,173.667 452.164,173.5 432.5,173C 425.009,170.51 420.842,165.343 420,157.5C 419.5,146.172 419.333,134.838 419.5,123.5C 411.833,124.833 404.167,126.167 396.5,127.5C 396.184,121.11 395.684,114.777 395,108.5C 403.086,106.884 411.253,105.55 419.5,104.5C 419.5,93.5 419.5,82.5 419.5,71.5 Z"/></g>
<g><path style="opacity:1" fill="#c9c9c9" d="M 580.5,74.5 C 574.167,74.5 567.833,74.5 561.5,74.5C 561.831,103.338 561.498,132.005 560.5,160.5C 560.5,131.5 560.5,102.5 560.5,73.5C 567.354,73.176 574.021,73.5093 580.5,74.5 Z"/></g>
<g><path style="opacity:1" fill="#7f7f7f" d="M 580.5,74.5 C 580.333,97.5024 580.5,120.502 581,143.5C 591.127,133.713 600.127,123.046 608,111.5C 611.588,117.01 615.422,122.343 619.5,127.5C 606.561,145.94 591.061,161.94 573,175.5C 568.5,171 564,166.5 559.5,162C 560.056,161.617 560.389,161.117 560.5,160.5C 561.498,132.005 561.831,103.338 561.5,74.5C 567.833,74.5 574.167,74.5 580.5,74.5 Z"/></g>
<g><path style="opacity:1" fill="#808080" d="M 296.5,75.5 C 297.922,75.7086 299.255,76.2086 300.5,77C 308.572,82.6974 316.238,88.8641 323.5,95.5C 319.801,100.902 315.635,105.902 311,110.5C 303.043,103.686 294.71,97.3531 286,91.5C 285.333,90.5 285.333,89.5 286,88.5C 289.713,84.2923 293.213,79.959 296.5,75.5 Z"/></g>
<g><path style="opacity:1" fill="#c6c6c6" d="M 550.5,78.5 C 544.5,78.5 538.5,78.5 532.5,78.5C 532.829,92.6766 532.496,106.677 531.5,120.5C 531.5,106.167 531.5,91.8333 531.5,77.5C 538.022,77.1765 544.355,77.5098 550.5,78.5 Z"/></g>
<g><path style="opacity:1" fill="#7f7f7f" d="M 550.5,78.5 C 550.667,91.5043 550.5,104.504 550,117.5C 548.355,139.624 539.188,157.791 522.5,172C 521.5,172.667 520.5,172.667 519.5,172C 516,167.833 512.5,163.667 509,159.5C 508.333,158.5 508.333,157.5 509,156.5C 521.824,147.858 529.324,135.858 531.5,120.5C 532.496,106.677 532.829,92.6766 532.5,78.5C 538.5,78.5 544.5,78.5 550.5,78.5 Z"/></g>
<g><path style="opacity:1" fill="#808080" d="M 222.5,95.5 C 224.451,95.2267 225.951,95.8934 227,97.5C 228.192,103.577 229.692,109.577 231.5,115.5C 242.639,113.864 253.639,111.864 264.5,109.5C 268.685,113.519 273.018,117.353 277.5,121C 270.422,130.997 262.756,140.497 254.5,149.5C 250.691,146.858 247.024,144.025 243.5,141C 247.023,136.978 250.357,132.811 253.5,128.5C 252.167,128.167 250.833,127.833 249.5,127.5C 244.49,128.168 239.49,128.835 234.5,129.5C 237.037,144.853 239.704,160.186 242.5,175.5C 237.118,176.286 231.784,177.286 226.5,178.5C 223.987,163.454 221.154,148.454 218,133.5C 217.275,132.941 216.442,132.608 215.5,132.5C 208.901,134.02 202.235,135.02 195.5,135.5C 194.574,130.537 193.908,125.537 193.5,120.5C 200.484,119.392 207.484,118.392 214.5,117.5C 213.326,111.282 211.992,105.115 210.5,99C 214.568,97.8788 218.568,96.7121 222.5,95.5 Z"/></g>
<g><path style="opacity:1" fill="#808080" d="M 373.5,95.5 C 378.961,99.8021 383.628,104.969 387.5,111C 363.341,142.796 332.175,164.963 294,177.5C 291.147,171.953 288.481,166.287 286,160.5C 285.251,159.365 285.417,158.365 286.5,157.5C 323.969,148.313 352.969,127.647 373.5,95.5 Z"/></g>
</svg>
