<?xml version="1.0" encoding="UTF-8"?>
<!DOCTYPE svg PUBLIC "-//W3C//DTD SVG 1.1//EN" "http://www.w3.org/Graphics/SVG/1.1/DTD/svg11.dtd">
<svg xmlns="http://www.w3.org/2000/svg" version="1.1" width="608px" height="232px" style="shape-rendering:geometricPrecision; text-rendering:geometricPrecision; image-rendering:optimizeQuality; fill-rule:evenodd; clip-rule:evenodd" xmlns:xlink="http://www.w3.org/1999/xlink">
<g><path style="opacity:0.991" fill="#bdd34d" d="M 32.5,6.5 C 213.5,6.33333 394.5,6.5 575.5,7C 588.333,10.5 596.5,18.6667 600,31.5C 600.667,76.8333 600.667,122.167 600,167.5C 596.5,180.333 588.333,188.5 575.5,192C 394.5,192.667 213.5,192.667 32.5,192C 19.6667,188.5 11.5,180.333 8,167.5C 7.33333,122.167 7.33333,76.8333 8,31.5C 11.6829,18.6514 19.8496,10.3181 32.5,6.5 Z"/></g>
<g><path style="opacity:1" fill="#f1f1f1" d="M 33.5,11.5 C 213.5,11.3333 393.5,11.5 573.5,12C 584.229,15.0618 591.396,21.8951 595,32.5C 595.667,76.8333 595.667,121.167 595,165.5C 591.833,176.667 584.667,183.833 573.5,187C 393.5,187.667 213.5,187.667 33.5,187C 22.8951,183.396 16.0618,176.229 13,165.5C 12.3333,121.167 12.3333,76.8333 13,32.5C 16.6854,22.3158 23.5187,15.3158 33.5,11.5 Z"/></g>
<g><path style="opacity:1" fill="#808080" d="M 128.5,113.5 C 139.988,114.495 151.655,114.828 163.5,114.5C 163.232,116.099 163.566,117.432 164.5,118.5C 164.5,122.5 164.5,126.5 164.5,130.5C 153.5,130.5 142.5,130.5 131.5,130.5C 132.593,138.151 133.593,145.817 134.5,153.5C 127.52,154.165 120.52,154.498 113.5,154.5C 112.645,146.851 111.979,139.184 111.5,131.5C 97.5476,133.253 83.5476,134.587 69.5,135.5C 68.8905,129.185 68.5572,122.851 68.5,116.5C 81.8608,116.32 95.1942,115.654 108.5,114.5C 107.873,108.902 106.873,103.402 105.5,98C 95.0949,98.7008 84.7616,100.201 74.5,102.5C 73.5037,96.2015 73.1703,89.8682 73.5,83.5C 83.1626,82.7919 92.8293,82.1252 102.5,81.5C 101.038,74.1912 99.7049,66.8579 98.5,59.5C 105.186,58.6079 111.853,58.6079 118.5,59.5C 120.204,66.4246 121.537,73.4246 122.5,80.5C 133.819,79.7784 145.152,79.4451 156.5,79.5C 157.098,84.813 157.431,90.1463 157.5,95.5C 146.833,95.5 136.167,95.5 125.5,95.5C 126.19,101.583 127.19,107.583 128.5,113.5 Z"/></g>
<g><path style="opacity:1" fill="#808080" d="M 251.5,58.5 C 264.048,64.1073 276.381,70.274 288.5,77C 284.333,83.1667 280.167,89.3333 276,95.5C 264.416,87.9564 252.583,80.7897 240.5,74C 244.386,68.9541 248.053,63.7874 251.5,58.5 Z"/></g>
<g><path style="opacity:1" fill="#7f7f7f" d="M 424.5,132.5 C 426.461,139.087 427.128,146.087 426.5,153.5C 405.51,154.525 384.51,154.692 363.5,154C 358.572,152.073 355.406,148.573 354,143.5C 353.142,131.763 353.642,120.097 355.5,108.5C 350.827,109.503 346.161,110.503 341.5,111.5C 340.767,104.507 340.101,97.5075 339.5,90.5C 345.41,88.9847 351.41,87.9847 357.5,87.5C 357.986,78.1526 358.653,68.8193 359.5,59.5C 366.5,59.5 373.5,59.5 380.5,59.5C 379.723,67.4885 379.057,75.4885 378.5,83.5C 394.164,82.2366 409.831,81.4033 425.5,81C 431.767,81.7663 435.101,85.2663 435.5,91.5C 435.182,94.9561 434.348,98.2894 433,101.5C 428.694,111.446 423.861,121.112 418.5,130.5C 412.29,127.877 406.29,124.877 400.5,121.5C 404.245,113.676 408.245,106.009 412.5,98.5C 412,98.1667 411.5,97.8333 411,97.5C 399.561,99.8788 388.061,101.879 376.5,103.5C 375.656,114.487 374.99,125.487 374.5,136.5C 391.221,135.827 407.887,134.494 424.5,132.5 Z"/></g>
<g><path style="opacity:1" fill="#7f7f7f" d="M 506.5,90.5 C 505.174,104.339 505.174,118.339 506.5,132.5C 507.107,132.376 507.44,132.043 507.5,131.5C 515.115,127.058 522.615,122.391 530,117.5C 533.361,122.888 536.194,128.554 538.5,134.5C 528.492,142.51 517.492,149.01 505.5,154C 494.63,156.989 487.797,153.155 485,142.5C 484.833,138.833 484.667,135.167 484.5,131.5C 485.502,107.809 486.835,84.1421 488.5,60.5C 495.167,60.5 501.833,60.5 508.5,60.5C 507.172,70.448 506.505,80.448 506.5,90.5 Z"/></g>
<g><path style="opacity:1" fill="#808080" d="M 455.5,69.5 C 462.854,70.6698 470.187,72.0031 477.5,73.5C 470.155,100.086 464.988,127.086 462,154.5C 455.256,152.851 448.423,151.518 441.5,150.5C 445.651,123.41 450.318,96.4099 455.5,69.5 Z"/></g>
<g><path style="opacity:1" fill="#808080" d="M 324.5,91.5 C 328.059,96.939 331.392,102.606 334.5,108.5C 309.248,124.709 284.081,141.042 259,157.5C 255,152.167 251,146.833 247,141.5C 246.316,140.216 246.483,139.049 247.5,138C 273.23,122.474 298.897,106.974 324.5,91.5 Z"/></g>
<g><path style="opacity:1" fill="#808080" d="M 185.5,94.5 C 187.288,94.2148 188.955,94.5481 190.5,95.5C 191.931,99.3749 194.098,102.708 197,105.5C 205.335,102.791 213.835,100.791 222.5,99.5C 232.643,100.108 236.81,105.441 235,115.5C 233.053,122.01 230.72,128.343 228,134.5C 223.296,132.565 218.796,130.231 214.5,127.5C 216.167,123.5 217.833,119.5 219.5,115.5C 218.833,115.167 218.167,114.833 217.5,114.5C 212.292,115.714 207.292,117.381 202.5,119.5C 207.406,129.972 211.739,140.638 215.5,151.5C 210.827,152.503 206.161,153.503 201.5,154.5C 198.073,144.307 194.073,134.307 189.5,124.5C 188.833,124.167 188.167,123.833 187.5,123.5C 183.618,124.691 179.785,126.024 176,127.5C 172.764,123.022 170.598,118.022 169.5,112.5C 173.962,111.847 178.295,110.68 182.5,109C 180.5,105.333 178.5,101.667 176.5,98C 179.718,97.0997 182.718,95.933 185.5,94.5 Z"/></g>
<g><path style="opacity:1" fill="#b8b8b8" d="M 506.5,90.5 C 506.171,104.344 506.504,118.01 507.5,131.5C 507.44,132.043 507.107,132.376 506.5,132.5C 505.174,118.339 505.174,104.339 506.5,90.5 Z"/></g>
<g><path style="opacity:1" fill="#aeaeae" d="M 128.5,113.5 C 140.5,113.5 152.5,113.5 164.5,113.5C 164.5,115.167 164.5,116.833 164.5,118.5C 163.566,117.432 163.232,116.099 163.5,114.5C 151.655,114.828 139.988,114.495 128.5,113.5 Z"/></g>
<g><path style="opacity:1" fill="#bcbcbc" d="M 424.5,132.5 C 425.209,131.596 426.209,131.263 427.5,131.5C 427.825,139.019 427.492,146.352 426.5,153.5C 427.128,146.087 426.461,139.087 424.5,132.5 Z"/></g>
</svg>
