<?xml version="1.0" encoding="UTF-8"?>
<!DOCTYPE svg PUBLIC "-//W3C//DTD SVG 1.1//EN" "http://www.w3.org/Graphics/SVG/1.1/DTD/svg11.dtd">
<svg xmlns="http://www.w3.org/2000/svg" version="1.1" width="1005px" height="232px" style="shape-rendering:geometricPrecision; text-rendering:geometricPrecision; image-rendering:optimizeQuality; fill-rule:evenodd; clip-rule:evenodd" xmlns:xlink="http://www.w3.org/1999/xlink">
<g><path style="opacity:1" fill="#bdd34d" d="M 1004.5,31.5 C 1004.5,76.8333 1004.5,122.167 1004.5,167.5C 1000.68,180.15 992.349,188.317 979.5,192C 661.167,192.667 342.833,192.667 24.5,192C 11.6514,188.317 3.31807,180.15 -0.5,167.5C -0.5,122.167 -0.5,76.8333 -0.5,31.5C 3.31807,18.8496 11.6514,10.6829 24.5,7C 342.833,6.33333 661.167,6.33333 979.5,7C 992.349,10.6829 1000.68,18.8496 1004.5,31.5 Z"/></g>
<g><path style="opacity:1" fill="#d2e186" d="M 803.5,55.5 C 813.653,54.5058 823.986,54.1724 834.5,54.5C 834.819,59.3633 834.486,64.03 833.5,68.5C 833.5,64.1667 833.5,59.8333 833.5,55.5C 823.5,55.5 813.5,55.5 803.5,55.5 Z"/></g>
<g><path style="opacity:1" fill="#fefefd" d="M 803.5,55.5 C 813.5,55.5 823.5,55.5 833.5,55.5C 833.5,59.8333 833.5,64.1667 833.5,68.5C 799.009,67.4173 764.676,69.084 730.5,73.5C 730.5,70.5 730.5,67.5 730.5,64.5C 731.468,62.3926 731.802,60.0593 731.5,57.5C 734.713,57.81 737.713,57.4767 740.5,56.5C 761.504,56.3946 782.504,56.0613 803.5,55.5 Z"/></g>
<g><path style="opacity:1" fill="#fdfefb" d="M 549.5,56.5 C 560.083,60.7915 570.417,65.6249 580.5,71C 578.032,75.6304 575.366,80.1304 572.5,84.5C 571.635,85.5827 570.635,85.7494 569.5,85C 559.383,80.853 549.383,76.5197 539.5,72C 542.969,66.8901 546.302,61.7234 549.5,56.5 Z"/></g>
<g><path style="opacity:1" fill="#fdfdfa" d="M 610.5,58.5 C 612.604,58.2011 614.604,58.5344 616.5,59.5C 619.167,64.8333 621.833,70.1667 624.5,75.5C 620.625,76.7591 616.791,78.0924 613,79.5C 610.411,73.24 607.911,66.9066 605.5,60.5C 607.291,59.8302 608.958,59.1635 610.5,58.5 Z"/></g>
<g><path style="opacity:1" fill="#fefefc" d="M 884.5,58.5 C 892.507,58.3336 900.507,58.5003 908.5,59C 911.784,60.3964 913.451,62.8964 913.5,66.5C 913.132,69.638 912.299,72.638 911,75.5C 905.431,80.0348 899.597,84.2014 893.5,88C 920.114,85.2804 931.947,97.1137 929,123.5C 923.3,139.957 911.8,149.791 894.5,153C 885.73,155.189 877.064,154.856 868.5,152C 855.515,144.908 853.015,135.074 861,122.5C 869.539,114.214 879.706,111.38 891.5,114C 898.755,115.042 903.921,118.875 907,125.5C 913.082,118.421 912.916,111.588 906.5,105C 895.945,101.406 885.611,102.073 875.5,107C 866.87,110.819 858.536,114.819 850.5,119C 846.623,113.725 843.456,108.225 841,102.5C 855.082,93.2088 869.248,84.0421 883.5,75C 873.514,75.9255 863.514,77.0922 853.5,78.5C 853.5,72.8333 853.5,67.1667 853.5,61.5C 864.035,61.0962 874.369,60.0962 884.5,58.5 Z"/></g>
<g><path style="opacity:1" fill="#fefefc" d="M 75.5,59.5 C 82.1667,59.5 88.8333,59.5 95.5,59.5C 95.0346,71.8366 94.868,84.17 95,96.5C 96.5423,93.3808 98.5423,90.7141 101,88.5C 115.556,94.195 130.056,100.028 144.5,106C 146.813,106.641 148.48,107.974 149.5,110C 147.224,115.386 144.557,120.553 141.5,125.5C 126.418,117.141 110.751,110.141 94.5,104.5C 93.5006,120.82 93.1672,137.153 93.5,153.5C 86.5,153.5 79.5,153.5 72.5,153.5C 73.392,122.164 74.392,90.8305 75.5,59.5 Z"/></g>
<g><path style="opacity:1" fill="#fefefc" d="M 635.5,59.5 C 641.88,60.1744 648.213,61.1744 654.5,62.5C 651.97,74.7101 650.137,87.0434 649,99.5C 648.5,116.83 648.333,134.163 648.5,151.5C 642.162,151.767 635.829,152.1 629.5,152.5C 628.659,121.295 630.659,90.2949 635.5,59.5 Z"/></g>
<g><path style="opacity:1" fill="#fdfefb" d="M 600.5,60.5 C 601.978,60.238 603.311,60.5713 604.5,61.5C 606.908,67.7239 608.908,74.0572 610.5,80.5C 606.5,81.1667 602.5,81.8333 598.5,82.5C 597.248,75.7422 595.582,69.0755 593.5,62.5C 595.969,61.8319 598.302,61.1653 600.5,60.5 Z"/></g>
<g><path style="opacity:1" fill="#fefefc" d="M 293.5,61.5 C 316.82,57.8576 324.986,67.1909 318,89.5C 312.96,99.0799 307.794,108.58 302.5,118C 319.299,118.127 324.799,125.961 319,141.5C 314.139,145.284 308.639,146.451 302.5,145C 297.851,142.545 295.017,138.712 294,133.5C 289.333,140.833 284.667,148.167 280,155.5C 273.887,152.531 268.054,149.197 262.5,145.5C 275.799,123.74 288.466,101.574 300.5,79C 276.772,82.5107 253.105,86.6774 229.5,91.5C 227.855,84.9214 226.855,78.2548 226.5,71.5C 249.003,68.3927 271.336,65.0594 293.5,61.5 Z"/></g>
<g><path style="opacity:1" fill="#e7efbe" d="M 740.5,56.5 C 737.713,57.4767 734.713,57.81 731.5,57.5C 731.802,60.0593 731.468,62.3926 730.5,64.5C 730.5,61.8333 730.5,59.1667 730.5,56.5C 733.833,56.5 737.167,56.5 740.5,56.5 Z"/></g>
<g><path style="opacity:1" fill="#fcfdf8" d="M 404.5,64.5 C 418.208,63.0428 424.375,69.0428 423,82.5C 419.351,90.5053 413.184,93.3387 404.5,91C 397.33,86.8406 394.83,80.6739 397,72.5C 399.028,69.3078 401.528,66.6411 404.5,64.5 Z"/></g>
<g><path style="opacity:1" fill="#fefefc" d="M 680.5,65.5 C 693.5,65.5 706.5,65.5 719.5,65.5C 719.5,70.5 719.5,75.5 719.5,80.5C 700.227,80.1613 681.227,82.1613 662.5,86.5C 662.593,80.1373 662.26,73.8039 661.5,67.5C 668.037,67.4138 674.37,66.7472 680.5,65.5 Z"/></g>
<g><path style="opacity:1" fill="#bfd453" d="M 406.5,69.5 C 418.726,69.5317 421.726,74.6984 415.5,85C 406.099,87.9399 401.599,84.4399 402,74.5C 403.366,72.6383 404.866,70.9717 406.5,69.5 Z"/></g>
<g><path style="opacity:1" fill="#fefefc" d="M 365.5,71.5 C 371.026,70.711 376.026,71.8777 380.5,75C 396.536,92.0346 412.203,109.368 427.5,127C 423.167,132 418.833,137 414.5,142C 411.224,140.763 408.391,138.597 406,135.5C 394.022,121.688 381.522,108.355 368.5,95.5C 359.838,107.673 351.338,120.006 343,132.5C 337.5,127.667 332,122.833 326.5,118C 334.667,106.5 342.833,95 351,83.5C 355.149,78.5032 359.983,74.5032 365.5,71.5 Z"/></g>
<g><path style="opacity:1" fill="#fefefc" d="M 756.5,134.5 C 755.512,129.36 755.179,124.026 755.5,118.5C 762.844,118.221 770.177,117.721 777.5,117C 779.752,113.832 781.752,110.499 783.5,107C 773.567,106.972 763.734,107.805 754,109.5C 752.417,125.833 750.917,142.166 749.5,158.5C 743.188,157.338 736.855,156.338 730.5,155.5C 734.54,128.885 738.207,102.219 741.5,75.5C 762.663,74.5146 783.83,73.5146 805,72.5C 811.23,72.4267 817.397,72.9267 823.5,74C 826.371,76.2153 828.537,79.0486 830,82.5C 830.5,90.1594 830.666,97.8261 830.5,105.5C 817.163,105.333 803.829,105.5 790.5,106C 794.42,107.313 798.42,108.313 802.5,109C 803.354,110.881 803.021,112.714 801.5,114.5C 811.144,115.498 820.81,115.832 830.5,115.5C 830.5,119.833 830.5,124.167 830.5,128.5C 822.78,128.238 815.113,128.738 807.5,130C 816.101,133.643 824.601,137.477 833,141.5C 831.263,146.986 828.929,152.319 826,157.5C 812.908,151.371 799.742,145.371 786.5,139.5C 782.915,145.002 779.581,150.669 776.5,156.5C 775.277,157.614 773.944,157.781 772.5,157C 767.26,155.312 762.26,153.145 757.5,150.5C 760.918,144.663 764.584,138.996 768.5,133.5C 764.514,132.935 760.514,133.268 756.5,134.5 Z"/></g>
<g><path style="opacity:1" fill="#fefefc" d="M 535.5,82.5 C 547.207,86.1776 558.874,90.0109 570.5,94C 568.306,99.2768 566.973,104.777 566.5,110.5C 553.661,108.123 540.994,105.123 528.5,101.5C 530.645,95.0612 532.978,88.7279 535.5,82.5 Z"/></g>
<g><path style="opacity:1" fill="#e2ecb2" d="M 792.5,85.5 C 798.979,84.5093 805.646,84.176 812.5,84.5C 812.5,85.5 812.5,86.5 812.5,87.5C 806.118,85.6007 799.451,84.9341 792.5,85.5 Z"/></g>
<g><path style="opacity:1" fill="#c0d557" d="M 792.5,85.5 C 799.451,84.9341 806.118,85.6007 812.5,87.5C 812.5,89.5 812.5,91.5 812.5,93.5C 793.824,93.4336 775.157,93.7669 756.5,94.5C 756.244,92.2075 756.577,90.0408 757.5,88C 769.127,86.5588 780.793,85.7255 792.5,85.5 Z"/></g>
<g><path style="opacity:1" fill="#fefefd" d="M 613.5,87.5 C 617.904,91.4333 621.237,96.2666 623.5,102C 598.777,119.877 573.443,137.044 547.5,153.5C 543.52,148.887 540.02,143.887 537,138.5C 536.251,137.365 536.417,136.365 537.5,135.5C 562.898,119.475 588.231,103.475 613.5,87.5 Z"/></g>
<g><path style="opacity:1" fill="#d9e59a" d="M 488.5,97.5 C 500.322,96.5049 512.322,96.1716 524.5,96.5C 524.81,99.7131 524.477,102.713 523.5,105.5C 523.5,102.833 523.5,100.167 523.5,97.5C 511.833,97.5 500.167,97.5 488.5,97.5 Z"/></g>
<g><path style="opacity:1" fill="#fdfefb" d="M 176.5,97.5 C 180.437,97.2065 184.27,97.5399 188,98.5C 190.067,104.933 191.9,111.433 193.5,118C 193.095,118.945 192.428,119.612 191.5,120C 187.527,121.028 183.527,121.861 179.5,122.5C 177.973,114.724 175.973,107.057 173.5,99.5C 174.602,98.8243 175.602,98.1577 176.5,97.5 Z"/></g>
<g><path style="opacity:1" fill="#fefefe" d="M 451.5,97.5 C 463.833,97.5 476.167,97.5 488.5,97.5C 500.167,97.5 511.833,97.5 523.5,97.5C 523.5,100.167 523.5,102.833 523.5,105.5C 523.5,107.5 523.5,109.5 523.5,111.5C 493.693,111.082 464.027,112.749 434.5,116.5C 432.547,110.926 431.88,104.926 432.5,98.5C 439.022,98.8235 445.355,98.4902 451.5,97.5 Z"/></g>
<g><path style="opacity:1" fill="#fefefc" d="M 205.5,97.5 C 210.474,99.6519 215.474,101.819 220.5,104C 213.809,119.068 207.309,134.234 201,149.5C 200.313,151.555 199.146,153.221 197.5,154.5C 192.029,152.577 187.029,149.91 182.5,146.5C 190.451,130.266 198.118,113.932 205.5,97.5 Z"/></g>
<g><path style="opacity:1" fill="#dfe9a8" d="M 451.5,97.5 C 445.355,98.4902 439.022,98.8235 432.5,98.5C 431.88,104.926 432.547,110.926 434.5,116.5C 433.791,117.404 432.791,117.737 431.5,117.5C 431.5,110.833 431.5,104.167 431.5,97.5C 438.167,97.5 444.833,97.5 451.5,97.5 Z"/></g>
<g><path style="opacity:1" fill="#fdfdfa" d="M 165.5,99.5 C 166.5,99.5 167.5,99.5 168.5,99.5C 170.833,107.5 173.167,115.5 175.5,123.5C 170.764,124.635 166.097,125.968 161.5,127.5C 159.239,119.718 156.572,112.052 153.5,104.5C 157.451,102.524 161.451,100.857 165.5,99.5 Z"/></g>
<g><path style="opacity:1" fill="#fefefc" d="M 657.5,115.5 C 661.833,115.5 666.167,115.5 670.5,115.5C 669.729,122.445 672.063,127.945 677.5,132C 691.862,135.492 704.862,132.659 716.5,123.5C 719.295,128.923 721.962,134.423 724.5,140C 708.46,150.542 691.126,153.875 672.5,150C 658.044,143.602 651.377,132.435 652.5,116.5C 654.415,116.784 656.081,116.451 657.5,115.5 Z"/></g>
<g><path style="opacity:1" fill="#bfd453" d="M 304.5,123.5 C 316.635,123.456 319.635,128.623 313.5,139C 304.084,142.554 299.584,139.387 300,129.5C 300.804,126.854 302.304,124.854 304.5,123.5 Z"/></g>
<g><path style="opacity:1" fill="#bfd454" d="M 879.5,127.5 C 886.25,126.541 890.916,129.208 893.5,135.5C 888.083,138.676 882.416,139.176 876.5,137C 874.675,135.534 874.175,133.701 875,131.5C 876.397,129.93 877.897,128.596 879.5,127.5 Z"/></g>
<g><path style="opacity:1" fill="#e2ebb0" d="M 755.5,118.5 C 755.179,124.026 755.512,129.36 756.5,134.5C 756.44,135.043 756.107,135.376 755.5,135.5C 754.184,129.68 754.184,124.013 755.5,118.5 Z"/></g>
</svg>
