<?xml version="1.0" encoding="UTF-8"?>
<!DOCTYPE svg PUBLIC "-//W3C//DTD SVG 1.1//EN" "http://www.w3.org/Graphics/SVG/1.1/DTD/svg11.dtd">
<svg xmlns="http://www.w3.org/2000/svg" version="1.1" width="977px" height="233px" style="shape-rendering:geometricPrecision; text-rendering:geometricPrecision; image-rendering:optimizeQuality; fill-rule:evenodd; clip-rule:evenodd" xmlns:xlink="http://www.w3.org/1999/xlink">
<g><path style="opacity:0.995" fill="#9acd32" d="M 39.5,-0.5 C 339.167,-0.5 638.833,-0.5 938.5,-0.5C 951.816,3.98363 960.649,12.9836 965,26.5C 965.667,75.8333 965.667,125.167 965,174.5C 960.833,188 952,196.833 938.5,201C 638.833,201.667 339.167,201.667 39.5,201C 26,196.833 17.1667,188 13,174.5C 12.3333,125.167 12.3333,75.8333 13,26.5C 17.3506,12.9836 26.1839,3.98363 39.5,-0.5 Z"/></g>
<g><path style="opacity:1" fill="#bcd24d" d="M 41.5,4.5 C 339.834,4.33333 638.167,4.5 936.5,5C 948.991,8.15784 956.825,15.9912 960,28.5C 960.667,76.5 960.667,124.5 960,172.5C 956.833,185 949,192.833 936.5,196C 638.167,196.667 339.833,196.667 41.5,196C 28.9912,192.825 21.1578,184.991 18,172.5C 17.3333,124.5 17.3333,76.5 18,28.5C 19.3923,22.7863 22.059,17.7863 26,13.5C 30.5995,9.37379 35.7662,6.37379 41.5,4.5 Z"/></g>
<g><path style="opacity:1" fill="#80807e" d="M 297.5,55.5 C 311.944,55.0904 315.944,61.2571 309.5,74C 307.779,74.7393 306.113,75.5726 304.5,76.5C 295.588,111.563 275.088,137.23 243,153.5C 238.723,149.268 235.39,144.602 233,139.5C 252.06,131.144 267.06,118.144 278,100.5C 280.367,95.0623 282.534,89.5623 284.5,84C 263.503,83.5 242.503,83.3334 221.5,83.5C 221.5,78.5 221.5,73.5 221.5,68.5C 245.167,68.5 268.833,68.5 292.5,68.5C 291.678,63.1538 293.345,58.8204 297.5,55.5 Z"/></g>
<g><path style="opacity:1" fill="#80807e" d="M 618.5,58.5 C 623.627,58.8587 628.627,59.8587 633.5,61.5C 627.988,80.7886 626.155,100.455 628,120.5C 629.5,118.167 631,115.833 632.5,113.5C 635.993,115.997 638.66,119.163 640.5,123C 635.87,132.056 632.537,141.556 630.5,151.5C 626.131,151.467 621.798,151.8 617.5,152.5C 610.513,121.026 610.846,89.6929 618.5,58.5 Z"/></g>
<g><path style="opacity:1" fill="#81817d" d="M 591.5,58.5 C 594.783,62.1208 598.116,65.7875 601.5,69.5C 598.946,71.7081 596.446,74.0414 594,76.5C 590.833,72.6667 587.667,68.8333 584.5,65C 586.729,62.5997 589.063,60.433 591.5,58.5 Z"/></g>
<g><path style="opacity:1" fill="#a1ae62" d="M 712.5,61.5 C 745.329,60.5017 778.329,60.1684 811.5,60.5C 811.821,65.6946 811.487,70.6946 810.5,75.5C 810.5,70.8333 810.5,66.1667 810.5,61.5C 777.833,61.5 745.167,61.5 712.5,61.5 Z"/></g>
<g><path style="opacity:1" fill="#80807e" d="M 72.5,61.5 C 77.8333,61.5 83.1667,61.5 88.5,61.5C 88.1677,73.915 88.501,85.5816 89.5,96.5C 91.7851,93.5482 94.4517,90.8815 97.5,88.5C 109.733,96.1094 121.399,104.443 132.5,113.5C 129.514,117.817 126.18,121.817 122.5,125.5C 111.805,117.639 100.972,109.972 90,102.5C 89.5001,119.83 89.3334,137.163 89.5,154.5C 83.8333,154.5 78.1667,154.5 72.5,154.5C 72.5,123.5 72.5,92.5 72.5,61.5 Z"/></g>
<g><path style="opacity:1" fill="#7f7f7e" d="M 712.5,61.5 C 745.167,61.5 777.833,61.5 810.5,61.5C 810.5,66.1667 810.5,70.8333 810.5,75.5C 777.833,75.5 745.167,75.5 712.5,75.5C 712.5,70.8333 712.5,66.1667 712.5,61.5 Z"/></g>
<g><path style="opacity:1" fill="#b7cb51" d="M 300.5,61.5 C 306.643,62.0262 307.976,64.8595 304.5,70C 301.783,71.033 299.949,70.1997 299,67.5C 298.252,65.1599 298.752,63.1599 300.5,61.5 Z"/></g>
<g><path style="opacity:1" fill="#80807e" d="M 531.5,62.5 C 541.254,65.5287 550.587,69.5287 559.5,74.5C 557.167,78.5 554.833,82.5 552.5,86.5C 551.635,87.5827 550.635,87.7494 549.5,87C 541.298,82.5455 532.965,78.3788 524.5,74.5C 526.845,70.4725 529.178,66.4725 531.5,62.5 Z"/></g>
<g><path style="opacity:1" fill="#7f807e" d="M 879.5,62.5 C 883.827,65.5088 887.16,69.5088 889.5,74.5C 883.015,81.4856 876.348,88.3189 869.5,95C 882.075,93.3799 892.575,97.2132 901,106.5C 909.166,126.309 903.666,141.142 884.5,151C 870.786,156.312 857.453,155.645 844.5,149C 837.594,140.716 837.928,132.716 845.5,125C 860.778,117.196 873.611,120.03 884,133.5C 889.104,128.942 890.771,123.275 889,116.5C 885.164,110.083 879.497,107.416 872,108.5C 866.968,108.246 862.135,109.079 857.5,111C 847.154,116.516 838.154,123.683 830.5,132.5C 826.647,129.481 823.313,125.981 820.5,122C 835.439,109.063 849.772,95.3965 863.5,81C 853.833,81.6416 844.166,82.8083 834.5,84.5C 833.914,84.2907 833.414,83.9574 833,83.5C 831.949,78.5258 831.115,73.5258 830.5,68.5C 847.148,68.0437 863.481,66.0437 879.5,62.5 Z"/></g>
<g><path style="opacity:1" fill="#80817d" d="M 392.5,66.5 C 402.71,66.5387 406.876,71.5387 405,81.5C 401.723,87.1088 396.89,88.9422 390.5,87C 383.391,79.376 384.058,72.5427 392.5,66.5 Z"/></g>
<g><path style="opacity:1" fill="#7f807e" d="M 689.5,67.5 C 692.833,67.5 696.167,67.5 699.5,67.5C 699.194,70.3854 699.527,73.0521 700.5,75.5C 700.5,77.8333 700.5,80.1667 700.5,82.5C 683.489,82.9353 666.489,83.6019 649.5,84.5C 649.5,79.5 649.5,74.5 649.5,69.5C 662.822,68.6379 676.156,67.9712 689.5,67.5 Z"/></g>
<g><path style="opacity:1" fill="#80817d" d="M 580.5,67.5 C 584.174,70.9993 587.508,74.8327 590.5,79C 588.4,81.1003 586.233,83.2669 584,85.5C 580.264,81.6873 576.764,77.6873 573.5,73.5C 576.091,71.7188 578.425,69.7188 580.5,67.5 Z"/></g>
<g><path style="opacity:1" fill="#b7cb51" d="M 393.5,73.5 C 400.004,73.1377 401.671,75.6377 398.5,81C 391.745,81.7558 390.078,79.2558 393.5,73.5 Z"/></g>
<g><path style="opacity:1" fill="#8f9472" d="M 689.5,67.5 C 692.962,66.5184 696.629,66.185 700.5,66.5C 700.5,69.5 700.5,72.5 700.5,75.5C 699.527,73.0521 699.194,70.3854 699.5,67.5C 696.167,67.5 692.833,67.5 689.5,67.5 Z"/></g>
<g><path style="opacity:1" fill="#80807e" d="M 350.5,73.5 C 354.544,72.9579 358.211,73.7912 361.5,76C 369,84.1667 376.5,92.3333 384,100.5C 394,109.833 404,119.167 414,128.5C 414.667,129.5 414.667,130.5 414,131.5C 410.714,135.241 407.547,139.075 404.5,143C 403.833,143.667 403.167,143.667 402.5,143C 386.763,127.267 371.763,110.933 357.5,94C 355.299,93.1751 353.466,93.6751 352,95.5C 345.314,106.872 337.647,117.539 329,127.5C 324.396,122.939 320.729,117.939 318,112.5C 328.142,102.03 337.142,90.6971 345,78.5C 346.812,76.6997 348.645,75.0331 350.5,73.5 Z"/></g>
<g><path style="opacity:1" fill="#7f807e" d="M 170.5,77.5 C 171.376,77.3691 172.043,77.7025 172.5,78.5C 175.371,85.0752 178.371,91.5752 181.5,98C 177.539,99.5983 173.539,101.098 169.5,102.5C 166.141,96.2748 163.141,89.7748 160.5,83C 163.699,80.8818 167.033,79.0484 170.5,77.5 Z"/></g>
<g><path style="opacity:1" fill="#7f7f7e" d="M 719.5,78.5 C 747.833,78.5 776.167,78.5 804.5,78.5C 804.5,88.5 804.5,98.5 804.5,108.5C 794.833,108.5 785.167,108.5 775.5,108.5C 775.5,110.167 775.5,111.833 775.5,113.5C 786.833,113.5 798.167,113.5 809.5,113.5C 809.5,117.833 809.5,122.167 809.5,126.5C 800.475,126.168 791.475,126.502 782.5,127.5C 791.25,135.71 801.583,141.043 813.5,143.5C 811.358,148.595 809.025,153.595 806.5,158.5C 790.839,154.925 778.005,146.925 768,134.5C 760.449,145.366 750.615,153.533 738.5,159C 737.365,159.749 736.365,159.583 735.5,158.5C 733.588,154.34 731.421,150.34 729,146.5C 726.938,148.901 725.271,151.567 724,154.5C 722.887,156.329 721.387,157.163 719.5,157C 716.251,153.161 713.251,149.161 710.5,145C 714.147,140.074 716.647,134.574 718,128.5C 719.372,111.868 719.872,95.2017 719.5,78.5 Z"/></g>
<g><path style="opacity:1" fill="#80807e" d="M 198.5,79.5 C 203.664,81.1099 208.664,83.1099 213.5,85.5C 207.058,117.423 189.058,139.923 159.5,153C 158.5,153.667 157.5,153.667 156.5,153C 153.71,149.254 151.043,145.421 148.5,141.5C 161.601,136.202 173.101,128.535 183,118.5C 190.619,106.475 195.786,93.475 198.5,79.5 Z"/></g>
<g><path style="opacity:1" fill="#80807d" d="M 147.5,81.5 C 148.376,81.3691 149.043,81.7025 149.5,82.5C 152.646,89.2899 155.646,96.1232 158.5,103C 154.458,104.737 150.458,106.57 146.5,108.5C 143.643,101.285 140.643,94.1178 137.5,87C 140.699,84.8818 144.033,83.0484 147.5,81.5 Z"/></g>
<g><path style="opacity:1" fill="#7f807e" d="M 591.5,83.5 C 595.49,87.4955 599.156,91.8288 602.5,96.5C 583.034,123.622 557.7,143.289 526.5,155.5C 523.136,150.446 520.636,145.112 519,139.5C 549.477,128.84 573.643,110.173 591.5,83.5 Z"/></g>
<g><path style="opacity:1" fill="#80807e" d="M 521.5,85.5 C 529.929,89.2137 538.262,93.2137 546.5,97.5C 547.583,98.365 547.749,99.365 547,100.5C 545.294,104.079 543.461,107.579 541.5,111C 540.5,111.667 539.5,111.667 538.5,111C 530.819,106.158 522.819,101.825 514.5,98C 516.719,93.7253 519.052,89.5586 521.5,85.5 Z"/></g>
<g><path style="opacity:1" fill="#93996f" d="M 72.5,61.5 C 77.9753,60.5111 83.642,60.1778 89.5,60.5C 89.5,72.5 89.5,84.5 89.5,96.5C 88.501,85.5816 88.1677,73.915 88.5,61.5C 83.1667,61.5 77.8333,61.5 72.5,61.5 Z"/></g>
<g><path style="opacity:1" fill="#b4c754" d="M 734.5,90.5 C 752.833,90.5 771.167,90.5 789.5,90.5C 789.5,92.1667 789.5,93.8333 789.5,95.5C 771.167,95.5 752.833,95.5 734.5,95.5C 734.5,93.8333 734.5,92.1667 734.5,90.5 Z"/></g>
<g><path style="opacity:1" fill="#9faa65" d="M 421.5,101.5 C 449.328,100.502 477.328,100.169 505.5,100.5C 505.821,105.695 505.487,110.695 504.5,115.5C 504.5,110.833 504.5,106.167 504.5,101.5C 476.833,101.5 449.167,101.5 421.5,101.5 Z"/></g>
<g><path style="opacity:1" fill="#7e7f7e" d="M 421.5,101.5 C 449.167,101.5 476.833,101.5 504.5,101.5C 504.5,106.167 504.5,110.833 504.5,115.5C 476.833,115.5 449.167,115.5 421.5,115.5C 421.5,110.833 421.5,106.167 421.5,101.5 Z"/></g>
<g><path style="opacity:1" fill="#9ba568" d="M 734.5,108.5 C 742.984,107.507 751.651,107.174 760.5,107.5C 760.5,109.5 760.5,111.5 760.5,113.5C 751.651,113.826 742.984,113.493 734.5,112.5C 742.833,112.5 751.167,112.5 759.5,112.5C 759.5,111.167 759.5,109.833 759.5,108.5C 751.167,108.5 742.833,108.5 734.5,108.5 Z"/></g>
<g><path style="opacity:1" fill="#bcd34c" d="M 734.5,108.5 C 742.833,108.5 751.167,108.5 759.5,108.5C 759.5,109.833 759.5,111.167 759.5,112.5C 751.167,112.5 742.833,112.5 734.5,112.5C 734.5,111.167 734.5,109.833 734.5,108.5 Z"/></g>
<g><path style="opacity:1" fill="#80807e" d="M 647.5,114.5 C 652.946,114.861 658.279,115.861 663.5,117.5C 660.935,121.767 660.935,125.934 663.5,130C 676.505,130.417 689.505,130.25 702.5,129.5C 702.5,134.833 702.5,140.167 702.5,145.5C 688.516,146.533 674.516,146.699 660.5,146C 646.692,143.587 641.526,135.421 645,121.5C 645.379,118.97 646.213,116.637 647.5,114.5 Z"/></g>
<g><path style="opacity:1" fill="#bbd04e" d="M 733.5,126.5 C 740.508,126.334 747.508,126.5 754.5,127C 748.599,135.449 740.599,140.615 730.5,142.5C 731.5,137.167 732.5,131.833 733.5,126.5 Z"/></g>
<g><path style="opacity:1" fill="#b9cd50" d="M 857.5,132.5 C 860.978,132.184 864.312,132.684 867.5,134C 872.229,138.99 871.229,141.49 864.5,141.5C 861.741,141.458 859.075,140.958 856.5,140C 853.933,137.178 854.266,134.678 857.5,132.5 Z"/></g>
</svg>
