<?xml version="1.0" encoding="UTF-8"?>
<!DOCTYPE svg PUBLIC "-//W3C//DTD SVG 1.1//EN" "http://www.w3.org/Graphics/SVG/1.1/DTD/svg11.dtd">
<svg xmlns="http://www.w3.org/2000/svg" version="1.1" width="1149px" height="232px" style="shape-rendering:geometricPrecision; text-rendering:geometricPrecision; image-rendering:optimizeQuality; fill-rule:evenodd; clip-rule:evenodd" xmlns:xlink="http://www.w3.org/1999/xlink">
<g><path style="opacity:1" fill="#bdd34d" d="M 36.5,21.5 C 395.167,21.3333 753.833,21.5 1112.5,22C 1123.33,24.8333 1130.17,31.6667 1133,42.5C 1133.67,80.8333 1133.67,119.167 1133,157.5C 1130.17,168.333 1123.33,175.167 1112.5,178C 753.833,178.667 395.167,178.667 36.5,178C 25.6667,175.167 18.8333,168.333 16,157.5C 15.3333,119.167 15.3333,80.8333 16,42.5C 19.0161,31.6517 25.8495,24.6517 36.5,21.5 Z"/></g>
<g><path style="opacity:1" fill="#fefefc" d="M 804.5,73.5 C 805.434,72.4324 805.768,71.099 805.5,69.5C 803.585,69.2155 801.919,69.5489 800.5,70.5C 795.488,70.9199 790.488,71.0866 785.5,71C 783.626,67.4186 781.626,63.9186 779.5,60.5C 797.429,57.7752 815.429,55.9418 833.5,55C 836.205,58.242 838.539,61.742 840.5,65.5C 833.52,66.4319 826.52,67.0985 819.5,67.5C 819.5,69.5 819.5,71.5 819.5,73.5C 826.5,73.5 833.5,73.5 840.5,73.5C 840.5,74.8333 840.5,76.1667 840.5,77.5C 842.833,77.5 845.167,77.5 847.5,77.5C 847.896,70.4564 848.729,63.4564 850,56.5C 855.407,55.5268 860.907,55.1934 866.5,55.5C 865.685,62.2031 864.685,68.8698 863.5,75.5C 868.242,76.114 872.909,76.9474 877.5,78C 880.135,79.9605 881.969,82.4605 883,85.5C 884,104.828 884.333,124.161 884,143.5C 884.208,149.212 882.375,154.045 878.5,158C 872.928,159.351 867.262,159.851 861.5,159.5C 860.37,154.112 859.037,148.778 857.5,143.5C 861.106,143.789 864.606,143.456 868,142.5C 868.5,125.17 868.667,107.837 868.5,90.5C 866.167,90.5 863.833,90.5 861.5,90.5C 857.849,113.4 855.183,136.4 853.5,159.5C 847.854,158.392 842.188,157.392 836.5,156.5C 836.799,154.396 836.466,152.396 835.5,150.5C 817.874,153.745 800.207,156.745 782.5,159.5C 781.504,154.538 780.837,149.538 780.5,144.5C 787.887,143.936 795.221,142.936 802.5,141.5C 797.565,141.041 792.565,141.041 787.5,141.5C 787.5,137.833 787.5,134.167 787.5,130.5C 785.5,130.5 783.5,130.5 781.5,130.5C 782.5,117.165 783.5,103.832 784.5,90.5C 791.18,90.3877 797.847,90.0543 804.5,89.5C 804.5,88.5 804.5,87.5 804.5,86.5C 796.156,86.6119 787.822,86.9452 779.5,87.5C 779.5,83.1667 779.5,78.8333 779.5,74.5C 788.017,74.8261 796.35,74.4927 804.5,73.5 Z"/></g>
<g><path style="opacity:1" fill="#fefefd" d="M 701.5,84.5 C 704.287,85.4767 707.287,85.81 710.5,85.5C 710.5,89.5 710.5,93.5 710.5,97.5C 707.518,97.9629 704.518,98.2962 701.5,98.5C 701.351,99.552 701.517,100.552 702,101.5C 705.896,104.679 709.396,108.179 712.5,112C 710.925,116.891 709.259,121.725 707.5,126.5C 705.247,125.747 703.413,124.414 702,122.5C 701.5,134.495 701.333,146.495 701.5,158.5C 695.5,158.5 689.5,158.5 683.5,158.5C 683.666,150.826 683.5,143.159 683,135.5C 681.333,138.167 679.667,140.833 678,143.5C 674.924,137.933 672.091,132.266 669.5,126.5C 672.95,117.599 676.95,108.932 681.5,100.5C 677.63,100.249 673.63,100.249 669.5,100.5C 669.5,95.8333 669.5,91.1667 669.5,86.5C 674.833,86.5 680.167,86.5 685.5,86.5C 685.5,83.1667 685.5,79.8333 685.5,76.5C 682.049,76.5382 678.716,77.2049 675.5,78.5C 674.833,78.1667 674.167,77.8333 673.5,77.5C 671.551,72.9896 670.218,68.3229 669.5,63.5C 681.599,61.2615 693.599,58.5948 705.5,55.5C 708.888,58.5971 711.555,62.2637 713.5,66.5C 709.696,68.4348 705.696,69.7681 701.5,70.5C 701.5,75.1667 701.5,79.8333 701.5,84.5 Z"/></g>
<g><path style="opacity:1" fill="#fefefc" d="M 735.5,56.5 C 740.516,57.5036 745.516,58.6702 750.5,60C 748.604,61.0646 748.437,61.8979 750,62.5C 755.443,60.1167 760.943,59.95 766.5,62C 769.188,66.5529 769.021,71.0529 766,75.5C 751.924,88.9142 737.257,101.581 722,113.5C 717.833,110 713.667,106.5 709.5,103C 715.167,98.5 720.833,94 726.5,89.5C 725.46,87.6251 723.96,86.2918 722,85.5C 720.3,86.9266 718.467,87.76 716.5,88C 713.13,84.965 710.13,81.6317 707.5,78C 717.082,71.0554 726.416,63.8888 735.5,56.5 Z"/></g>
<g><path style="opacity:1" fill="#fdfefb" d="M 488.5,57.5 C 499.083,61.7915 509.417,66.6249 519.5,72C 517.032,76.6304 514.366,81.1304 511.5,85.5C 510.635,86.5827 509.635,86.7494 508.5,86C 498.383,81.853 488.383,77.5197 478.5,73C 481.969,67.8901 485.302,62.7234 488.5,57.5 Z"/></g>
<g><path style="opacity:1" fill="#fefefd" d="M 228.5,148.5 C 227.539,150.265 227.205,152.265 227.5,154.5C 220.833,154.5 214.167,154.5 207.5,154.5C 208.667,138.501 209.5,122.501 210,106.5C 200.292,115.21 190.292,123.543 180,131.5C 175.539,125.245 172.206,118.578 170,111.5C 194.623,92.352 220.29,74.6854 247,58.5C 252.119,62.6517 256.952,67.1517 261.5,72C 251.635,78.6968 241.635,85.1968 231.5,91.5C 229.582,110.447 228.582,129.447 228.5,148.5 Z"/></g>
<g><path style="opacity:1" fill="#fdfdfa" d="M 549.5,59.5 C 551.604,59.2011 553.604,59.5344 555.5,60.5C 558.167,65.8333 560.833,71.1667 563.5,76.5C 559.625,77.7591 555.791,79.0924 552,80.5C 549.411,74.24 546.911,67.9066 544.5,61.5C 546.291,60.8302 547.958,60.1635 549.5,59.5 Z"/></g>
<g><path style="opacity:1" fill="#fefefd" d="M 938.5,93.5 C 939.209,94.404 940.209,94.7373 941.5,94.5C 941.5,92.1667 941.5,89.8333 941.5,87.5C 935.31,87.1771 929.31,87.5104 923.5,88.5C 912.08,89.1763 900.746,90.5096 889.5,92.5C 889.5,87.1667 889.5,81.8333 889.5,76.5C 892.059,76.8016 894.393,76.4682 896.5,75.5C 911.182,75.1288 925.848,74.4621 940.5,73.5C 940.46,68.8075 940.127,64.1408 939.5,59.5C 946.167,59.5 952.833,59.5 959.5,59.5C 959.5,64.5 959.5,69.5 959.5,74.5C 967.164,74.8886 974.83,75.222 982.5,75.5C 982.5,79.5 982.5,83.5 982.5,87.5C 974.833,87.5 967.167,87.5 959.5,87.5C 959.334,93.8421 959.5,100.175 960,106.5C 966.875,116.991 967.209,127.657 961,138.5C 956.321,145.846 950.321,151.846 943,156.5C 937.105,153.803 931.272,150.969 925.5,148C 930.424,144.287 935.258,140.454 940,136.5C 941.626,133.942 942.626,131.275 943,128.5C 931.461,140.68 917.961,143.513 902.5,137C 887.423,122.6 888.09,108.933 904.5,96C 909.62,93.0707 915.12,91.5707 921,91.5C 926.869,91.9339 932.702,92.6006 938.5,93.5 Z"/></g>
<g><path style="opacity:1" fill="#fefefd" d="M 1035.5,59.5 C 1042.84,59.3337 1050.17,59.5003 1057.5,60C 1063.1,64.3582 1063.94,69.5248 1060,75.5C 1054.44,80.363 1048.6,84.863 1042.5,89C 1048.83,89.3333 1055.17,89.6667 1061.5,90C 1072.93,94.6074 1078.6,103.107 1078.5,115.5C 1076.85,135.596 1066.19,148.096 1046.5,153C 1036.8,156.172 1027.13,156.172 1017.5,153C 1007.25,148.911 1003.42,141.411 1006,130.5C 1009.54,121.642 1016.04,116.476 1025.5,115C 1034.49,113.313 1042.83,114.813 1050.5,119.5C 1052.41,121.657 1054.08,123.991 1055.5,126.5C 1063.4,116.955 1061.73,109.455 1050.5,104C 1041.45,102.761 1032.78,104.094 1024.5,108C 1015.87,111.819 1007.54,115.819 999.5,120C 995.103,115.019 991.936,109.519 990,103.5C 1004.08,94.2088 1018.25,85.0421 1032.5,76C 1022.51,76.9255 1012.51,78.0922 1002.5,79.5C 1002.5,73.8333 1002.5,68.1667 1002.5,62.5C 1013.69,61.9853 1024.69,60.9853 1035.5,59.5 Z"/></g>
<g><path style="opacity:1" fill="#fefefd" d="M 590.5,62.5 C 591.167,63.1667 591.833,63.8333 592.5,64.5C 587.964,93.6447 586.298,122.978 587.5,152.5C 582.473,152.503 577.473,152.836 572.5,153.5C 571.167,153.5 569.833,153.5 568.5,153.5C 568.5,148.167 568.5,142.833 568.5,137.5C 568.251,111.642 570.251,85.9752 574.5,60.5C 579.833,61.1667 585.167,61.8333 590.5,62.5 Z"/></g>
<g><path style="opacity:1" fill="#fdfefb" d="M 539.5,61.5 C 540.978,61.238 542.311,61.5713 543.5,62.5C 545.908,68.7239 547.908,75.0572 549.5,81.5C 545.5,82.1667 541.5,82.8333 537.5,83.5C 536.248,76.7422 534.582,70.0755 532.5,63.5C 534.969,62.8319 537.302,62.1653 539.5,61.5 Z"/></g>
<g><path style="opacity:1" fill="#dfeaa9" d="M 590.5,62.5 C 591.675,62.281 592.675,62.6143 593.5,63.5C 593.376,64.1067 593.043,64.44 592.5,64.5C 591.833,63.8333 591.167,63.1667 590.5,62.5 Z"/></g>
<g><path style="opacity:1" fill="#fefefc" d="M 116.5,64.5 C 128.547,64.1348 140.547,64.6348 152.5,66C 162.546,68.2519 166.379,74.4186 164,84.5C 162.941,87.6179 161.608,90.6179 160,93.5C 150.435,106.788 140.269,119.622 129.5,132C 133.356,135.357 137.356,138.524 141.5,141.5C 136.815,146.351 132.315,151.351 128,156.5C 114.729,146.122 101.229,136.122 87.5,126.5C 90.8487,121.14 94.682,116.14 99,111.5C 103.167,114.333 107.333,117.167 111.5,120C 112.5,120.667 113.5,120.667 114.5,120C 124.478,108.376 133.478,96.0426 141.5,83C 130.826,83.1337 120.159,83.8004 109.5,85C 95.8081,86.7442 82.1414,88.5775 68.5,90.5C 68.5,83.1667 68.5,75.8333 68.5,68.5C 84.7106,67.9153 100.711,66.582 116.5,64.5 Z"/></g>
<g><path style="opacity:1" fill="#fcfdf8" d="M 343.5,65.5 C 357.208,64.0428 363.375,70.0428 362,83.5C 358.351,91.5053 352.184,94.3387 343.5,92C 336.33,87.8406 333.83,81.6739 336,73.5C 338.028,70.3078 340.528,67.6411 343.5,65.5 Z"/></g>
<g><path style="opacity:1" fill="#fefefc" d="M 619.5,66.5 C 632.5,66.5 645.5,66.5 658.5,66.5C 658.5,71.5 658.5,76.5 658.5,81.5C 639.227,81.1613 620.227,83.1613 601.5,87.5C 601.593,81.1373 601.26,74.8039 600.5,68.5C 607.037,68.4138 613.37,67.7472 619.5,66.5 Z"/></g>
<g><path style="opacity:1" fill="#dfe9a9" d="M 800.5,70.5 C 801.919,69.5489 803.585,69.2155 805.5,69.5C 805.768,71.099 805.434,72.4324 804.5,73.5C 804.5,72.5 804.5,71.5 804.5,70.5C 803.167,70.5 801.833,70.5 800.5,70.5 Z"/></g>
<g><path style="opacity:1" fill="#bfd453" d="M 345.5,70.5 C 357.726,70.5317 360.726,75.6984 354.5,86C 345.099,88.9399 340.599,85.4399 341,75.5C 342.366,73.6383 343.866,71.9717 345.5,70.5 Z"/></g>
<g><path style="opacity:1" fill="#fefefc" d="M 304.5,72.5 C 310.026,71.711 315.026,72.8777 319.5,76C 335.536,93.0346 351.203,110.368 366.5,128C 362.167,133 357.833,138 353.5,143C 350.224,141.763 347.391,139.597 345,136.5C 333.022,122.688 320.522,109.355 307.5,96.5C 298.838,108.673 290.338,121.006 282,133.5C 276.5,128.667 271,123.833 265.5,119C 273.667,107.5 281.833,96 290,84.5C 294.149,79.5032 298.983,75.5032 304.5,72.5 Z"/></g>
<g><path style="opacity:1" fill="#c0d556" d="M 737.5,73.5 C 740.187,73.3359 742.854,73.5026 745.5,74C 743.04,75.4578 740.873,77.2911 739,79.5C 735.64,77.7984 735.14,75.7984 737.5,73.5 Z"/></g>
<g><path style="opacity:1" fill="#e8efc1" d="M 896.5,75.5 C 894.393,76.4682 892.059,76.8016 889.5,76.5C 889.5,81.8333 889.5,87.1667 889.5,92.5C 888.511,87.0247 888.178,81.358 888.5,75.5C 891.167,75.5 893.833,75.5 896.5,75.5 Z"/></g>
<g><path style="opacity:1" fill="#fefefc" d="M 474.5,83.5 C 486.207,87.1776 497.874,91.0109 509.5,95C 507.306,100.277 505.973,105.777 505.5,111.5C 492.661,109.123 479.994,106.123 467.5,102.5C 469.645,96.0612 471.978,89.7279 474.5,83.5 Z"/></g>
<g><path style="opacity:1" fill="#d1e083" d="M 818.5,85.5 C 824.645,84.5098 830.978,84.1765 837.5,84.5C 837.5,87.1667 837.5,89.8333 837.5,92.5C 838.833,92.5 840.167,92.5 841.5,92.5C 840.167,93.1667 838.833,93.8333 837.5,94.5C 836.599,93.7095 835.932,92.7095 835.5,91.5C 836.461,89.7354 836.795,87.7354 836.5,85.5C 830.5,85.5 824.5,85.5 818.5,85.5 Z"/></g>
<g><path style="opacity:1" fill="#bed451" d="M 818.5,85.5 C 824.5,85.5 830.5,85.5 836.5,85.5C 836.795,87.7354 836.461,89.7354 835.5,91.5C 833.99,90.1639 832.323,88.9973 830.5,88C 826.044,88.1018 822.044,87.2684 818.5,85.5 Z"/></g>
<g><path style="opacity:1" fill="#e3ecb3" d="M 701.5,84.5 C 704.833,84.5 708.167,84.5 711.5,84.5C 711.818,89.0323 711.485,93.3656 710.5,97.5C 710.5,93.5 710.5,89.5 710.5,85.5C 707.287,85.81 704.287,85.4767 701.5,84.5 Z"/></g>
<g><path style="opacity:1" fill="#dce7a0" d="M 923.5,88.5 C 929.31,87.5104 935.31,87.1771 941.5,87.5C 941.5,89.8333 941.5,92.1667 941.5,94.5C 940.209,94.7373 939.209,94.404 938.5,93.5C 940.256,92.4479 940.923,90.7812 940.5,88.5C 934.833,88.5 929.167,88.5 923.5,88.5 Z"/></g>
<g><path style="opacity:1" fill="#fefefd" d="M 552.5,88.5 C 556.904,92.4333 560.237,97.2666 562.5,103C 537.777,120.877 512.443,138.044 486.5,154.5C 482.52,149.887 479.02,144.887 476,139.5C 475.251,138.365 475.417,137.365 476.5,136.5C 501.898,120.475 527.231,104.475 552.5,88.5 Z"/></g>
<g><path style="opacity:1" fill="#fefefc" d="M 749.5,92.5 C 754.299,94.2769 758.633,96.9436 762.5,100.5C 760.684,102.817 758.684,104.984 756.5,107C 758.96,107.063 761.46,106.896 764,106.5C 771.015,106.858 774.015,110.524 773,117.5C 772.194,120.446 770.861,123.112 769,125.5C 757.214,138.459 744.38,150.126 730.5,160.5C 726.015,156.515 721.682,152.349 717.5,148C 721.898,144.606 726.565,141.606 731.5,139C 732.731,137.817 732.731,136.651 731.5,135.5C 730.522,135.023 729.689,134.357 729,133.5C 726.577,136.432 723.743,138.765 720.5,140.5C 716.048,137.222 711.715,133.722 707.5,130C 722.588,118.747 736.588,106.247 749.5,92.5 Z"/></g>
<g><path style="opacity:1" fill="#c0d557" d="M 841.5,92.5 C 842.5,92.5 843.5,92.5 844.5,92.5C 842.652,108.924 840.152,125.257 837,141.5C 834.959,140.248 832.625,139.581 830,139.5C 825.771,140.151 821.604,140.151 817.5,139.5C 823.023,137.789 828.69,137.122 834.5,137.5C 834.5,134.5 834.5,131.5 834.5,128.5C 829.125,128.828 823.792,128.495 818.5,127.5C 819.729,126.719 821.062,126.219 822.5,126C 827.489,125.501 832.489,125.334 837.5,125.5C 837.5,115.167 837.5,104.833 837.5,94.5C 838.833,93.8333 840.167,93.1667 841.5,92.5 Z"/></g>
<g><path style="opacity:1" fill="#e0eaab" d="M 445.5,98.5 C 451.31,97.5104 457.31,97.1771 463.5,97.5C 463.784,99.4147 463.451,101.081 462.5,102.5C 462.5,101.167 462.5,99.8333 462.5,98.5C 456.833,98.5 451.167,98.5 445.5,98.5 Z"/></g>
<g><path style="opacity:1" fill="#fefefd" d="M 390.5,98.5 C 408.833,98.5 427.167,98.5 445.5,98.5C 451.167,98.5 456.833,98.5 462.5,98.5C 462.5,99.8333 462.5,101.167 462.5,102.5C 462.5,105.833 462.5,109.167 462.5,112.5C 432.715,112.413 403.049,114.08 373.5,117.5C 371.547,111.926 370.88,105.926 371.5,99.5C 378.022,99.8235 384.355,99.4902 390.5,98.5 Z"/></g>
<g><path style="opacity:1" fill="#c2d65c" d="M 818.5,98.5 C 820.5,98.5 822.5,98.5 824.5,98.5C 824.5,99.8333 824.5,101.167 824.5,102.5C 822.5,102.5 820.5,102.5 818.5,102.5C 818.5,101.167 818.5,99.8333 818.5,98.5 Z"/></g>
<g><path style="opacity:1" fill="#dfe9a8" d="M 390.5,98.5 C 384.355,99.4902 378.022,99.8235 371.5,99.5C 370.88,105.926 371.547,111.926 373.5,117.5C 372.791,118.404 371.791,118.737 370.5,118.5C 370.5,111.833 370.5,105.167 370.5,98.5C 377.167,98.5 383.833,98.5 390.5,98.5 Z"/></g>
<g><path style="opacity:1" fill="#cbdc74" d="M 800.5,99.5 C 801.5,99.5 802.5,99.5 803.5,99.5C 803.5,100.833 803.5,102.167 803.5,103.5C 802.167,103.5 800.833,103.5 799.5,103.5C 799.433,102.041 799.766,100.708 800.5,99.5 Z"/></g>
<g><path style="opacity:1" fill="#bfd453" d="M 914.5,106.5 C 921.671,105.646 928.337,106.979 934.5,110.5C 931.057,119.213 924.724,123.379 915.5,123C 908.034,117.959 907.701,112.459 914.5,106.5 Z"/></g>
<g><path style="opacity:1" fill="#e7eebe" d="M 818.5,111.5 C 820.265,110.539 822.265,110.205 824.5,110.5C 824.737,111.791 824.404,112.791 823.5,113.5C 822.448,111.744 820.781,111.077 818.5,111.5 Z"/></g>
<g><path style="opacity:1" fill="#bcd34c" d="M 818.5,111.5 C 820.781,111.077 822.448,111.744 823.5,113.5C 823.5,114.167 823.5,114.833 823.5,115.5C 821.833,115.5 820.167,115.5 818.5,115.5C 818.5,114.167 818.5,112.833 818.5,111.5 Z"/></g>
<g><path style="opacity:1" fill="#c7d969" d="M 799.5,112.5 C 800.833,112.5 802.167,112.5 803.5,112.5C 803.5,113.833 803.5,115.167 803.5,116.5C 802.167,116.5 800.833,116.5 799.5,116.5C 799.5,115.167 799.5,113.833 799.5,112.5 Z"/></g>
<g><path style="opacity:1" fill="#dde8a3" d="M 818.5,111.5 C 818.5,112.833 818.5,114.167 818.5,115.5C 820.167,115.5 821.833,115.5 823.5,115.5C 821.735,116.461 819.735,116.795 817.5,116.5C 817.216,114.585 817.549,112.919 818.5,111.5 Z"/></g>
<g><path style="opacity:1" fill="#fdfefc" d="M 596.5,116.5 C 600.833,116.5 605.167,116.5 609.5,116.5C 608.729,123.445 611.063,128.945 616.5,133C 630.862,136.492 643.862,133.659 655.5,124.5C 658.295,129.923 660.962,135.423 663.5,141C 647.46,151.542 630.126,154.875 611.5,151C 597.036,144.582 590.369,133.416 591.5,117.5C 593.415,117.784 595.081,117.451 596.5,116.5 Z"/></g>
<g><path style="opacity:1" fill="#c1d559" d="M 748.5,118.5 C 750.288,118.215 751.955,118.548 753.5,119.5C 750.516,121.984 747.682,124.65 745,127.5C 743.315,125.983 741.815,124.316 740.5,122.5C 742.991,120.588 745.658,119.254 748.5,118.5 Z"/></g>
<g><path style="opacity:1" fill="#cddd77" d="M 796.5,128.5 C 798.604,128.201 800.604,128.534 802.5,129.5C 798.541,130.66 794.541,130.827 790.5,130C 792.708,129.809 794.708,129.309 796.5,128.5 Z"/></g>
<g><path style="opacity:1" fill="#bfd453" d="M 1028.5,128.5 C 1034.71,127.933 1039.04,130.433 1041.5,136C 1040.32,137.735 1038.65,138.735 1036.5,139C 1030.69,140.688 1026.02,139.188 1022.5,134.5C 1024.21,132.118 1026.21,130.118 1028.5,128.5 Z"/></g>
<g><path style="opacity:1" fill="#d2e186" d="M 568.5,137.5 C 568.5,142.833 568.5,148.167 568.5,153.5C 569.833,153.5 571.167,153.5 572.5,153.5C 571.081,154.451 569.415,154.784 567.5,154.5C 567.178,148.642 567.511,142.975 568.5,137.5 Z"/></g>
<g><path style="opacity:1" fill="#dde8a3" d="M 228.5,148.5 C 228.5,150.833 228.5,153.167 228.5,155.5C 221.313,155.825 214.313,155.491 207.5,154.5C 214.167,154.5 220.833,154.5 227.5,154.5C 227.205,152.265 227.539,150.265 228.5,148.5 Z"/></g>
</svg>
