<?xml version="1.0" encoding="UTF-8"?>
<!DOCTYPE svg PUBLIC "-//W3C//DTD SVG 1.1//EN" "http://www.w3.org/Graphics/SVG/1.1/DTD/svg11.dtd">
<svg xmlns="http://www.w3.org/2000/svg" version="1.1" width="671px" height="270px" style="shape-rendering:geometricPrecision; text-rendering:geometricPrecision; image-rendering:optimizeQuality; fill-rule:evenodd; clip-rule:evenodd" xmlns:xlink="http://www.w3.org/1999/xlink">
<g><path style="opacity:0.992" fill="#cfcdcd" d="M 34.5,16.5 C 236.209,16.0045 437.876,16.5045 639.5,18C 651.51,22.5183 659.01,31.0183 662,43.5C 662.981,92.8788 662.648,142.212 661,191.5C 656.482,203.51 647.982,211.01 635.5,214C 433.791,214.995 232.125,214.662 30.5,213C 18.4904,208.482 10.9904,199.982 8,187.5C 7.33333,139.5 7.33333,91.5 8,43.5C 11.682,29.3189 20.5154,20.3189 34.5,16.5 Z"/></g>
<g><path style="opacity:1" fill="#beb64a" d="M 35.5,21.5 C 235.167,21.3333 434.834,21.5 634.5,22C 646,25.5 653.5,33 657,44.5C 657.667,91.8333 657.667,139.167 657,186.5C 653.5,198 646,205.5 634.5,209C 434.833,209.667 235.167,209.667 35.5,209C 24,205.5 16.5,198 13,186.5C 12.3333,139.167 12.3333,91.8333 13,44.5C 16.684,32.9837 24.184,25.3171 35.5,21.5 Z"/></g>
<g><path style="opacity:1" fill="#fcfcf8" d="M 256.5,65.5 C 257.552,65.3505 258.552,65.5172 259.5,66C 262.647,69.9812 265.98,73.8145 269.5,77.5C 267.126,80.1078 264.293,82.1078 261,83.5C 256.868,79.6973 253.034,75.5306 249.5,71C 252.02,69.3029 254.353,67.4695 256.5,65.5 Z"/></g>
<g><path style="opacity:1" fill="#fcfcf8" d="M 274.5,64.5 C 275.239,64.369 275.906,64.5357 276.5,65C 279.798,69.2998 283.465,73.2998 287.5,77C 284.5,79.1667 281.5,81.3333 278.5,83.5C 274.613,79.7796 271.28,75.6129 268.5,71C 270.637,69.0273 272.637,66.8606 274.5,64.5 Z"/></g>
<g><path style="opacity:1" fill="#fefdfc" d="M 220.5,70.5 C 226.383,72.6911 232.217,75.0245 238,77.5C 237.456,80.7907 236.289,83.9574 234.5,87C 245.034,87.7985 255.534,87.6319 266,86.5C 270.956,89.2863 275.789,92.2863 280.5,95.5C 271.411,124.068 255.411,147.902 232.5,167C 226.258,171.577 219.758,175.743 213,179.5C 207.512,175.346 202.679,170.512 198.5,165C 225.397,152.438 244.397,132.438 255.5,105C 244.818,104.168 234.151,104.334 223.5,105.5C 216.229,116.436 207.563,126.103 197.5,134.5C 193.691,131.858 190.024,129.025 186.5,126C 184.671,124.887 183.837,123.387 184,121.5C 200.229,107.433 212.396,90.4328 220.5,70.5 Z"/></g>
<g><path style="opacity:1" fill="#fefefd" d="M 520.5,70.5 C 526.833,70.5 533.167,70.5 539.5,70.5C 539.168,84.58 539.501,97.9133 540.5,110.5C 543.317,107.574 546.151,104.574 549,101.5C 563.248,110.583 577.081,120.249 590.5,130.5C 586.729,135.722 582.729,140.722 578.5,145.5C 566.109,135.555 553.276,126.222 540,117.5C 539.5,137.831 539.333,158.164 539.5,178.5C 533.167,178.5 526.833,178.5 520.5,178.5C 520.5,142.5 520.5,106.5 520.5,70.5 Z"/></g>
<g><path style="opacity:1" fill="#fdfdfb" d="M 446.5,72.5 C 452.833,72.5 459.167,72.5 465.5,72.5C 465.179,77.6946 465.513,82.6946 466.5,87.5C 475.221,87.8044 483.888,87.4711 492.5,86.5C 497.145,89.9774 501.645,93.6441 506,97.5C 501.14,133.891 482.807,161.224 451,179.5C 446.645,174.646 442.478,169.646 438.5,164.5C 455.859,154.641 469.359,140.975 479,123.5C 481.714,117.747 483.547,111.747 484.5,105.5C 465.167,105.5 445.833,105.5 426.5,105.5C 426.5,113.5 426.5,121.5 426.5,129.5C 420.167,129.5 413.833,129.5 407.5,129.5C 407.5,115.5 407.5,101.5 407.5,87.5C 420.5,87.5 433.5,87.5 446.5,87.5C 446.5,82.5 446.5,77.5 446.5,72.5 Z"/></g>
<g><path style="opacity:1" fill="#e5e2b7" d="M 446.5,72.5 C 452.979,71.5093 459.646,71.176 466.5,71.5C 466.5,76.8333 466.5,82.1667 466.5,87.5C 465.513,82.6946 465.179,77.6946 465.5,72.5C 459.167,72.5 452.833,72.5 446.5,72.5 Z"/></g>
<g><path style="opacity:1" fill="#fefdfc" d="M 384.5,78.5 C 389.274,82.0979 393.94,85.9312 398.5,90C 388.945,107.06 376.945,122.227 362.5,135.5C 358.291,130.946 353.957,126.446 349.5,122C 358.583,114.919 366.25,106.586 372.5,97C 346.169,96.5 319.835,96.3334 293.5,96.5C 293.5,90.8333 293.5,85.1667 293.5,79.5C 324.005,79.8315 354.338,79.4981 384.5,78.5 Z"/></g>
<g><path style="opacity:1" fill="#d6d18e" d="M 520.5,70.5 C 526.979,69.5093 533.646,69.176 540.5,69.5C 540.5,83.1667 540.5,96.8333 540.5,110.5C 539.501,97.9133 539.168,84.58 539.5,70.5C 533.167,70.5 526.833,70.5 520.5,70.5 Z"/></g>
<g><path style="opacity:1" fill="#dcd89e" d="M 171.5,84.5 C 142.5,84.5 113.5,84.5 84.5,84.5C 84.5,112.833 84.5,141.167 84.5,169.5C 90.5,169.5 96.5,169.5 102.5,169.5C 96.3554,170.49 90.0221,170.823 83.5,170.5C 83.5,141.5 83.5,112.5 83.5,83.5C 113.005,83.1686 142.338,83.5019 171.5,84.5 Z"/></g>
<g><path style="opacity:1" fill="#fefffe" d="M 171.5,84.5 C 171.5,112.833 171.5,141.167 171.5,169.5C 165.5,169.5 159.5,169.5 153.5,169.5C 153.795,167.265 153.461,165.265 152.5,163.5C 135.833,163.5 119.167,163.5 102.5,163.5C 102.5,165.5 102.5,167.5 102.5,169.5C 96.5,169.5 90.5,169.5 84.5,169.5C 84.5,141.167 84.5,112.833 84.5,84.5C 113.5,84.5 142.5,84.5 171.5,84.5 Z"/></g>
<g><path style="opacity:1" fill="#beb64a" d="M 152.5,101.5 C 152.5,116.167 152.5,130.833 152.5,145.5C 135.833,145.5 119.167,145.5 102.5,145.5C 102.5,130.833 102.5,116.167 102.5,101.5C 119.167,101.5 135.833,101.5 152.5,101.5 Z"/></g>
<g><path style="opacity:1" fill="#fdfdfb" d="M 329.5,100.5 C 336.167,100.5 342.833,100.5 349.5,100.5C 348.666,134.185 334.333,160.185 306.5,178.5C 302.34,173.5 298.34,168.334 294.5,163C 318.961,149.598 330.628,128.765 329.5,100.5 Z"/></g>
<g><path style="opacity:1" fill="#e1ddac" d="M 152.5,101.5 C 153.496,116.324 153.829,131.324 153.5,146.5C 136.325,146.83 119.325,146.497 102.5,145.5C 119.167,145.5 135.833,145.5 152.5,145.5C 152.5,130.833 152.5,116.167 152.5,101.5 Z"/></g>
<g><path style="opacity:1" fill="#dfdba6" d="M 152.5,163.5 C 153.461,165.265 153.795,167.265 153.5,169.5C 159.5,169.5 165.5,169.5 171.5,169.5C 165.355,170.49 159.022,170.823 152.5,170.5C 152.5,168.167 152.5,165.833 152.5,163.5 Z"/></g>
</svg>
