<?xml version="1.0" encoding="UTF-8"?>
<!DOCTYPE svg PUBLIC "-//W3C//DTD SVG 1.1//EN" "http://www.w3.org/Graphics/SVG/1.1/DTD/svg11.dtd">
<svg xmlns="http://www.w3.org/2000/svg" version="1.1" width="614px" height="232px" style="shape-rendering:geometricPrecision; text-rendering:geometricPrecision; image-rendering:optimizeQuality; fill-rule:evenodd; clip-rule:evenodd" xmlns:xlink="http://www.w3.org/1999/xlink">
<g><path style="opacity:1" fill="#beb64a" d="M 35.5,6.5 C 216.834,6.33333 398.167,6.5 579.5,7C 592.333,10.5 600.5,18.6667 604,31.5C 604.667,76.8333 604.667,122.167 604,167.5C 600.5,180.333 592.333,188.5 579.5,192C 398.167,192.667 216.833,192.667 35.5,192C 22.6667,188.5 14.5,180.333 11,167.5C 10.3333,122.167 10.3333,76.8333 11,31.5C 14.6829,18.6514 22.8496,10.3181 35.5,6.5 Z"/></g>
<g><path style="opacity:1" fill="#fefdfc" d="M 238.5,75.5 C 238.147,77.6348 238.98,78.9681 241,79.5C 243.434,78.6777 245.934,78.3444 248.5,78.5C 248.808,83.3708 247.975,88.0374 246,92.5C 235,112.833 224,133.167 213,153.5C 212.439,154.022 211.772,154.355 211,154.5C 204.921,152.31 199.088,149.643 193.5,146.5C 205.515,127.142 216.515,107.142 226.5,86.5C 224.833,86.1667 223.167,85.8333 221.5,85.5C 213.492,86.6109 205.492,87.6109 197.5,88.5C 191.751,99.6122 185.917,110.612 180,121.5C 174.089,119.486 168.589,116.819 163.5,113.5C 172.07,93.8581 182.07,75.0247 193.5,57C 199.31,58.1024 204.976,59.9357 210.5,62.5C 209.627,64.4134 208.627,66.2467 207.5,68C 214.625,67.7087 221.792,67.2087 229,66.5C 230.833,66.8333 232.667,67.1667 234.5,67.5C 235.337,70.507 236.67,73.1737 238.5,75.5 Z"/></g>
<g><path style="opacity:1" fill="#fcfcf8" d="M 253.5,55.5 C 254.497,55.4701 255.164,55.9701 255.5,57C 257.362,61.8905 259.362,66.7238 261.5,71.5C 258.555,73.6983 255.388,74.3649 252,73.5C 249.859,68.2436 248.026,62.9103 246.5,57.5C 249.067,57.2785 251.401,56.6118 253.5,55.5 Z"/></g>
<g><path style="opacity:1" fill="#fefefc" d="M 405.5,57.5 C 412.863,57.1694 420.197,57.5027 427.5,58.5C 425.729,63.6893 424.729,69.0226 424.5,74.5C 432.174,74.3336 439.841,74.5003 447.5,75C 462.882,78.6086 466.715,87.442 459,101.5C 450.078,118.344 441.411,135.344 433,152.5C 431.274,153.576 429.441,153.743 427.5,153C 422.489,151.33 417.489,149.663 412.5,148C 421.833,129 431.167,110 440.5,91C 423.817,91.8011 407.15,93.1344 390.5,95C 389.693,102.156 388.693,109.322 387.5,116.5C 380.13,117.062 372.797,117.062 365.5,116.5C 367.577,104.221 369.41,91.8881 371,79.5C 381.752,77.8419 392.586,76.5085 403.5,75.5C 403.699,69.4407 404.366,63.4407 405.5,57.5 Z"/></g>
<g><path style="opacity:1" fill="#dad598" d="M 470.5,59.5 C 477.313,58.5088 484.313,58.1755 491.5,58.5C 491.817,62.7016 491.483,66.7016 490.5,70.5C 490.5,66.8333 490.5,63.1667 490.5,59.5C 483.833,59.5 477.167,59.5 470.5,59.5 Z"/></g>
<g><path style="opacity:1" fill="#fdfcf9" d="M 238.5,75.5 C 237.031,70.4262 235.364,65.4262 233.5,60.5C 236.601,60.3083 239.601,59.6416 242.5,58.5C 245.953,64.072 248.287,70.072 249.5,76.5C 246.962,76.5072 244.462,76.8405 242,77.5C 240.566,77.1382 239.399,76.4715 238.5,75.5 Z"/></g>
<g><path style="opacity:1" fill="#fefdfc" d="M 325.5,58.5 C 334.46,57.7657 343.126,58.9324 351.5,62C 356.958,65.4717 359.958,70.4717 360.5,77C 357.24,90.1867 352.573,102.853 346.5,115C 340.146,113.249 333.979,110.749 328,107.5C 331.507,97.4676 335.34,87.4676 339.5,77.5C 314.824,79.0249 290.491,82.6916 266.5,88.5C 265.909,81.5849 265.909,74.7515 266.5,68C 286.243,64.3754 305.91,61.2087 325.5,58.5 Z"/></g>
<g><path style="opacity:1" fill="#fefefc" d="M 470.5,59.5 C 477.167,59.5 483.833,59.5 490.5,59.5C 490.5,63.1667 490.5,66.8333 490.5,70.5C 490.295,79.8491 490.128,89.1824 490,98.5C 491.447,94.5809 493.614,91.2475 496.5,88.5C 513.27,94.7249 529.604,101.725 545.5,109.5C 542.598,114.632 540.265,119.965 538.5,125.5C 522.642,117.822 506.475,110.822 490,104.5C 489.446,120.834 488.946,137.167 488.5,153.5C 481.833,153.5 475.167,153.5 468.5,153.5C 469.077,122.165 469.743,90.8313 470.5,59.5 Z"/></g>
<g><path style="opacity:1" fill="#fefefc" d="M 111.5,61.5 C 122.216,61.1557 132.882,61.6557 143.5,63C 150.897,65.4111 155.063,70.5778 156,78.5C 156.577,101.514 157.411,124.514 158.5,147.5C 128.756,146.791 99.0897,147.791 69.5,150.5C 70.2795,122.136 71.6128,93.8031 73.5,65.5C 86.3627,64.6812 99.0293,63.3478 111.5,61.5 Z"/></g>
<g><path style="opacity:1" fill="#beb64c" d="M 127.5,79.5 C 130.448,79.2229 133.281,79.5562 136,80.5C 137.176,96.8125 137.676,113.146 137.5,129.5C 121.5,129.5 105.5,129.5 89.5,129.5C 90.4575,113.847 91.1242,98.1799 91.5,82.5C 103.679,81.8797 115.679,80.8797 127.5,79.5 Z"/></g>
<g><path style="opacity:1" fill="#fefefc" d="M 299.5,88.5 C 306.009,90.4429 312.676,91.7762 319.5,92.5C 313.006,113.136 306.506,133.803 300,154.5C 293.308,151.737 286.475,149.403 279.5,147.5C 286.163,127.845 292.83,108.178 299.5,88.5 Z"/></g>
</svg>
