<?xml version="1.0" encoding="UTF-8"?>
<!DOCTYPE svg PUBLIC "-//W3C//DTD SVG 1.1//EN" "http://www.w3.org/Graphics/SVG/1.1/DTD/svg11.dtd">
<svg xmlns="http://www.w3.org/2000/svg" version="1.1" width="921px" height="232px" style="shape-rendering:geometricPrecision; text-rendering:geometricPrecision; image-rendering:optimizeQuality; fill-rule:evenodd; clip-rule:evenodd" xmlns:xlink="http://www.w3.org/1999/xlink">
<g><path style="opacity:0.999" fill="#bdd34d" d="M 29.5,22.5 C 316.5,22.3333 603.5,22.5 890.5,23C 900.333,26.1667 906.833,32.6667 910,42.5C 910.667,80.5 910.667,118.5 910,156.5C 906.833,166.333 900.333,172.833 890.5,176C 603.5,176.667 316.5,176.667 29.5,176C 19.6667,172.833 13.1667,166.333 10,156.5C 9.33333,118.5 9.33333,80.5 10,42.5C 13.3514,32.6498 19.8514,25.9831 29.5,22.5 Z"/></g>
<g><path style="opacity:1" fill="#fefefc" d="M 236.5,73.5 C 236.402,75.5529 237.069,77.2196 238.5,78.5C 238.47,79.4972 238.97,80.1639 240,80.5C 242.384,79.2808 244.717,79.2808 247,80.5C 247.738,84.2613 247.405,87.9279 246,91.5C 234.881,112.906 223.381,134.073 211.5,155C 204.95,153.572 198.617,151.239 192.5,148C 204.34,127.989 215.674,107.656 226.5,87C 216.023,86.8569 205.69,88.0236 195.5,90.5C 190.628,101.076 185.628,111.576 180.5,122C 174.135,120.826 168.135,118.493 162.5,115C 170.941,95.1151 180.941,76.1151 192.5,58C 198.31,59.1024 203.976,60.9357 209.5,63.5C 208.627,65.4134 207.627,67.2467 206.5,69C 214.147,68.8347 221.814,68.3347 229.5,67.5C 230.833,67.8333 232.167,68.1667 233.5,68.5C 234.275,70.3964 235.275,72.063 236.5,73.5 Z"/></g>
<g><path style="opacity:1" fill="#fdfdf9" d="M 252.5,56.5 C 253.376,56.3691 254.043,56.7025 254.5,57.5C 256.5,62.5 258.5,67.5 260.5,72.5C 257.789,74.8565 254.789,75.5231 251.5,74.5C 249.223,69.6127 247.223,64.6127 245.5,59.5C 248,58.6411 250.333,57.6411 252.5,56.5 Z"/></g>
<g><path style="opacity:1" fill="#fefefc" d="M 368.5,58.5 C 381.048,64.1073 393.381,70.274 405.5,77C 401.705,83.4259 397.538,89.5926 393,95.5C 381.416,87.9564 369.583,80.7897 357.5,74C 361.386,68.9541 365.053,63.7874 368.5,58.5 Z"/></g>
<g><path style="opacity:1" fill="#fefefd" d="M 751.5,72.5 C 751.5,76.8333 751.5,81.1667 751.5,85.5C 750.167,85.5 748.833,85.5 747.5,85.5C 727.148,84.2116 706.815,84.5449 686.5,86.5C 685.624,89.7989 685.457,93.1322 686,96.5C 703.469,89.4121 720.635,89.9121 737.5,98C 746.054,105.672 748.887,115.172 746,126.5C 742.259,137.908 734.759,145.741 723.5,150C 715.35,153.132 707.017,154.632 698.5,154.5C 696.397,149.356 694.397,144.189 692.5,139C 704.556,138.548 715.056,134.382 724,126.5C 729.292,117.216 726.792,111.383 716.5,109C 712.167,108.333 707.833,108.333 703.5,109C 694.28,111.74 685.28,115.073 676.5,119C 670.944,120.778 667.11,118.945 665,113.5C 664.362,105.098 664.862,96.7645 666.5,88.5C 663.447,88.9107 660.447,89.5774 657.5,90.5C 656.504,84.5368 656.171,78.5368 656.5,72.5C 661.167,72.5 665.833,72.5 670.5,72.5C 671.606,68.1976 672.606,63.8643 673.5,59.5C 679.785,59.0065 686.119,59.0065 692.5,59.5C 691.833,63.5 691.167,67.5 690.5,71.5C 710.842,71.4245 731.175,71.7578 751.5,72.5 Z"/></g>
<g><path style="opacity:1" fill="#fdfefb" d="M 774.5,57.5 C 794.772,60.5545 814.772,64.8878 834.5,70.5C 832.372,75.3848 830.538,80.3848 829,85.5C 809.837,80.0547 790.337,76.0547 770.5,73.5C 772.149,68.2377 773.482,62.9044 774.5,57.5 Z"/></g>
<g><path style="opacity:1" fill="#fefefd" d="M 321.5,147.5 C 320.532,149.607 320.198,151.941 320.5,154.5C 313.833,154.5 307.167,154.5 300.5,154.5C 301.777,138.511 302.611,122.511 303,106.5C 293.292,115.21 283.292,123.543 273,131.5C 268.539,125.245 265.206,118.578 263,111.5C 275.5,102.333 288,93.1667 300.5,84C 313.922,75.8738 327.088,67.3738 340,58.5C 345.134,62.6329 349.968,67.1329 354.5,72C 344.671,78.749 334.671,85.249 324.5,91.5C 322.919,110.137 321.919,128.804 321.5,147.5 Z"/></g>
<g><path style="opacity:1" fill="#fdfdfa" d="M 462.5,59.5 C 467.833,59.5 473.167,59.5 478.5,59.5C 474.986,91.0516 473.653,122.718 474.5,154.5C 468.768,154.271 463.101,153.604 457.5,152.5C 455.687,121.273 457.353,90.2726 462.5,59.5 Z"/></g>
<g><path style="opacity:1" fill="#fefefc" d="M 534.5,101.5 C 534.5,103.5 534.5,105.5 534.5,107.5C 535.5,107.5 536.5,107.5 537.5,107.5C 542.193,107.54 546.859,107.873 551.5,108.5C 551.5,114.5 551.5,120.5 551.5,126.5C 546.18,125.761 540.846,125.094 535.5,124.5C 535.633,148.194 523.966,158.028 500.5,154C 492.548,152.447 487.048,147.947 484,140.5C 479.973,121.879 487.139,110.212 505.5,105.5C 509.833,105.5 514.167,105.5 518.5,105.5C 518.806,102.615 518.473,99.9479 517.5,97.5C 517.5,96.5 517.5,95.5 517.5,94.5C 504.872,95.9073 492.205,96.9073 479.5,97.5C 479.192,91.5746 479.525,85.7412 480.5,80C 491.835,79.4696 503.169,78.9696 514.5,78.5C 514.016,72.4114 513.016,66.4114 511.5,60.5C 516.829,59.7388 522.162,59.0721 527.5,58.5C 528.442,58.6082 529.275,58.9415 530,59.5C 531.162,65.7981 531.995,72.1315 532.5,78.5C 538.833,78.5 545.167,78.5 551.5,78.5C 551.5,83.5 551.5,88.5 551.5,93.5C 545.833,93.5 540.167,93.5 534.5,93.5C 534.5,96.1667 534.5,98.8333 534.5,101.5 Z"/></g>
<g><path style="opacity:1" fill="#fcfdf8" d="M 238.5,78.5 C 238.598,76.4471 237.931,74.7804 236.5,73.5C 235.466,69.7567 234.132,66.09 232.5,62.5C 235.446,61.3466 238.446,60.3466 241.5,59.5C 244.53,64.8881 247.197,70.5547 249.5,76.5C 245.928,77.7063 242.262,78.373 238.5,78.5 Z"/></g>
<g><path style="opacity:1" fill="#fefefc" d="M 603.5,61.5 C 613.647,60.9147 623.647,61.748 633.5,64C 636.728,65.5629 638.895,68.0629 640,71.5C 640.667,77.1667 640.667,82.8333 640,88.5C 638.34,94.1424 636.84,99.8091 635.5,105.5C 628.829,104.873 622.329,103.539 616,101.5C 617.091,96.5412 618.424,91.5412 620,86.5C 620.497,83.854 620.664,81.1873 620.5,78.5C 603.112,78.8384 586.112,81.5051 569.5,86.5C 568.372,80.8576 567.372,75.1909 566.5,69.5C 578.934,66.7873 591.268,64.1206 603.5,61.5 Z"/></g>
<g><path style="opacity:1" fill="#fefefc" d="M 110.5,62.5 C 121.216,62.1557 131.882,62.6557 142.5,64C 150.233,65.7342 154.399,70.5675 155,78.5C 155.881,101.834 156.714,125.168 157.5,148.5C 127.756,147.776 98.0889,148.776 68.5,151.5C 69.7225,123.161 71.0558,94.8281 72.5,66.5C 85.3437,65.4884 98.0103,64.155 110.5,62.5 Z"/></g>
<g><path style="opacity:1" fill="#d9e599" d="M 751.5,72.5 C 752.486,76.97 752.819,81.6367 752.5,86.5C 750.585,86.7845 748.919,86.4511 747.5,85.5C 748.833,85.5 750.167,85.5 751.5,85.5C 751.5,81.1667 751.5,76.8333 751.5,72.5 Z"/></g>
<g><path style="opacity:1" fill="#d1e084" d="M 236.5,73.5 C 237.931,74.7804 238.598,76.4471 238.5,78.5C 237.069,77.2196 236.402,75.5529 236.5,73.5 Z"/></g>
<g><path style="opacity:1" fill="#fefefc" d="M 766.5,79.5 C 772.887,80.2579 779.22,81.4246 785.5,83C 784.094,87.4544 782.76,91.9544 781.5,96.5C 782.167,96.8333 782.833,97.1667 783.5,97.5C 798.872,92.4365 814.538,91.2698 830.5,94C 847.062,99.2433 853.562,110.41 850,127.5C 845.116,139.885 836.616,148.885 824.5,154.5C 820.485,150.315 816.818,145.815 813.5,141C 820.948,137.218 826.782,131.718 831,124.5C 831.845,115.995 828.011,110.828 819.5,109C 812.684,108.124 806.017,108.79 799.5,111C 788.143,115.178 777.143,120.178 766.5,126C 759.884,127.221 756.884,124.388 757.5,117.5C 758.721,104.39 761.721,91.7232 766.5,79.5 Z"/></g>
<g><path style="opacity:1" fill="#bdd34f" d="M 126.5,80.5 C 129.5,80.5 132.5,80.5 135.5,80.5C 136.24,97.1561 136.574,113.823 136.5,130.5C 120.5,130.5 104.5,130.5 88.5,130.5C 89.3757,114.823 90.3757,99.1562 91.5,83.5C 103.341,82.8138 115.008,81.8138 126.5,80.5 Z"/></g>
<g><path style="opacity:1" fill="#fefefc" d="M 441.5,91.5 C 445.059,96.939 448.392,102.606 451.5,108.5C 426.248,124.709 401.081,141.042 376,157.5C 372,152.167 368,146.833 364,141.5C 363.316,140.216 363.483,139.049 364.5,138C 390.23,122.474 415.897,106.974 441.5,91.5 Z"/></g>
<g><path style="opacity:1" fill="#dce7a1" d="M 517.5,97.5 C 518.473,99.9479 518.806,102.615 518.5,105.5C 514.167,105.5 509.833,105.5 505.5,105.5C 509.298,104.517 513.298,104.183 517.5,104.5C 517.5,102.167 517.5,99.8333 517.5,97.5 Z"/></g>
<g><path style="opacity:1" fill="#e3ecb5" d="M 534.5,101.5 C 535.158,103.639 536.158,105.639 537.5,107.5C 536.5,107.5 535.5,107.5 534.5,107.5C 534.5,105.5 534.5,103.5 534.5,101.5 Z"/></g>
<g><path style="opacity:1" fill="#fefefc" d="M 572.5,113.5 C 574.144,113.286 575.644,113.62 577,114.5C 578.485,125.68 584.651,132.513 595.5,135C 611.257,136.893 626.091,134.059 640,126.5C 644.245,131.979 647.745,137.979 650.5,144.5C 628.296,155.149 605.296,157.315 581.5,151C 566.935,144.139 559.269,132.805 558.5,117C 563.278,115.751 567.945,114.584 572.5,113.5 Z"/></g>
<g><path style="opacity:1" fill="#bed351" d="M 507.5,121.5 C 511.167,121.5 514.833,121.5 518.5,121.5C 520.008,133.824 514.675,139.324 502.5,138C 499.098,134.281 498.598,130.114 501,125.5C 503.314,124.267 505.481,122.933 507.5,121.5 Z"/></g>
<g><path style="opacity:1" fill="#dee8a6" d="M 321.5,147.5 C 321.5,150.167 321.5,152.833 321.5,155.5C 314.313,155.825 307.313,155.491 300.5,154.5C 307.167,154.5 313.833,154.5 320.5,154.5C 320.198,151.941 320.532,149.607 321.5,147.5 Z"/></g>
</svg>
