<?xml version="1.0" encoding="UTF-8"?>
<!DOCTYPE svg PUBLIC "-//W3C//DTD SVG 1.1//EN" "http://www.w3.org/Graphics/SVG/1.1/DTD/svg11.dtd">
<svg xmlns="http://www.w3.org/2000/svg" version="1.1" width="1146px" height="270px" style="shape-rendering:geometricPrecision; text-rendering:geometricPrecision; image-rendering:optimizeQuality; fill-rule:evenodd; clip-rule:evenodd" xmlns:xlink="http://www.w3.org/1999/xlink">
<g><path style="opacity:0.995" fill="#c4dfb3" d="M 47.5,16.5 C 397.833,16.3333 748.167,16.5 1098.5,17C 1112.67,20.5 1121.5,29.3333 1125,43.5C 1125.67,91.5 1125.67,139.5 1125,187.5C 1121.5,201.667 1112.67,210.5 1098.5,214C 748.167,214.667 397.833,214.667 47.5,214C 35.0183,211.01 26.5183,203.51 22,191.5C 20.8517,166.214 20.3517,140.881 20.5,115.5C 20.3517,90.1193 20.8517,64.7859 22,39.5C 26.7592,27.5595 35.2592,19.8928 47.5,16.5 Z"/></g>
<g><path style="opacity:1" fill="#669901" d="M 48.5,21.5 C 398.167,21.3333 747.833,21.5 1097.5,22C 1109,25.5 1116.5,33 1120,44.5C 1120.67,91.8333 1120.67,139.167 1120,186.5C 1116.5,198 1109,205.5 1097.5,209C 747.833,209.667 398.167,209.667 48.5,209C 37,205.5 29.5,198 26,186.5C 25.3333,139.167 25.3333,91.8333 26,44.5C 29.684,32.9837 37.184,25.3171 48.5,21.5 Z"/></g>
<g><path style="opacity:1" fill="#fdfefc" d="M 1048.5,63.5 C 1060.15,61.9948 1065.98,66.9948 1066,78.5C 1063.79,83.3814 1060.29,86.8814 1055.5,89C 1045.23,129.416 1021.57,158.916 984.5,177.5C 980.326,172.489 976.326,167.323 972.5,162C 988.958,153.887 1003.46,143.054 1016,129.5C 1023.89,119.39 1029.39,108.057 1032.5,95.5C 1008.17,95.5 983.833,95.5 959.5,95.5C 959.5,89.8333 959.5,84.1667 959.5,78.5C 987.167,78.5 1014.83,78.5 1042.5,78.5C 1041.51,72.1625 1043.51,67.1625 1048.5,63.5 Z"/></g>
<g><path style="opacity:1" fill="#fdfdfc" d="M 382.5,64.5 C 387.692,68.51 391.859,73.1767 395,78.5C 379.248,92.7595 363.082,106.426 346.5,119.5C 355.037,127.535 364.037,135.035 373.5,142C 381.303,148.802 388.803,155.969 396,163.5C 392.546,169.138 388.046,174.138 382.5,178.5C 365.805,158.966 346.805,142.133 325.5,128C 319.953,122.36 320.286,117.027 326.5,112C 346.239,97.4277 364.905,81.5944 382.5,64.5 Z"/></g>
<g><path style="opacity:1" fill="#fdfefc" d="M 134.5,66.5 C 140.503,67.5009 146.503,68.5009 152.5,69.5C 152.491,71.3084 152.991,72.9751 154,74.5C 166.961,89.0682 182.794,99.2349 201.5,105C 198.357,110.786 195.357,116.62 192.5,122.5C 184.296,118.815 176.463,114.482 169,109.5C 168.503,112.146 168.336,114.813 168.5,117.5C 150.167,117.5 131.833,117.5 113.5,117.5C 113.813,114.753 113.48,112.086 112.5,109.5C 105.667,114.668 98.1672,118.668 90,121.5C 86.6688,116.171 83.8355,110.504 81.5,104.5C 103.107,97.211 120.774,84.5444 134.5,66.5 Z"/></g>
<g><path style="opacity:1" fill="#fdfefd" d="M 313.5,100.5 C 300.167,100.5 286.833,100.5 273.5,100.5C 273.185,104.371 273.518,108.038 274.5,111.5C 283.889,130.509 282.056,148.509 269,165.5C 263.927,171.244 258.26,176.244 252,180.5C 247.651,176.318 243.485,171.985 239.5,167.5C 245.991,163.594 251.658,158.761 256.5,153C 245.391,156.192 237.224,152.692 232,142.5C 227.292,130.169 229.125,119.003 237.5,109C 243.153,104.936 249.487,103.436 256.5,104.5C 256.5,103.5 256.5,102.5 256.5,101.5C 240.494,101.604 224.494,101.937 208.5,102.5C 208.5,96.8333 208.5,91.1667 208.5,85.5C 224.157,84.8128 239.824,84.4795 255.5,84.5C 255.5,79.5 255.5,74.5 255.5,69.5C 261.833,69.5 268.167,69.5 274.5,69.5C 274.5,74.5 274.5,79.5 274.5,84.5C 287.5,84.5 300.5,84.5 313.5,84.5C 313.5,89.8333 313.5,95.1667 313.5,100.5 Z"/></g>
<g><path style="opacity:1" fill="#6d9d14" d="M 1051.5,70.5 C 1058.05,70.2072 1060.05,73.0405 1057.5,79C 1051.09,81.5925 1048.59,79.4259 1050,72.5C 1050.72,71.9558 1051.22,71.2891 1051.5,70.5 Z"/></g>
<g><path style="opacity:1" fill="#fdfefc" d="M 489.5,72.5 C 495.5,72.5 501.5,72.5 507.5,72.5C 507.175,80.3516 507.508,88.0182 508.5,95.5C 514.979,96.4907 521.646,96.824 528.5,96.5C 528.5,101.833 528.5,107.167 528.5,112.5C 521.646,112.176 514.979,112.509 508.5,113.5C 509.088,143.326 496.088,164.992 469.5,178.5C 464.46,174.461 460.127,169.794 456.5,164.5C 470.976,157.86 481.142,147.193 487,132.5C 488.942,125.972 489.775,119.305 489.5,112.5C 481.5,112.5 473.5,112.5 465.5,112.5C 465.5,121.833 465.5,131.167 465.5,140.5C 459.167,140.5 452.833,140.5 446.5,140.5C 446.5,131.5 446.5,122.5 446.5,113.5C 439.687,112.509 432.687,112.175 425.5,112.5C 425.5,107.167 425.5,101.833 425.5,96.5C 432.687,96.8245 439.687,96.4912 446.5,95.5C 446.5,88.1667 446.5,80.8333 446.5,73.5C 452.5,73.5 458.5,73.5 464.5,73.5C 464.175,81.0191 464.508,88.3524 465.5,95.5C 473.5,95.5 481.5,95.5 489.5,95.5C 489.5,87.8333 489.5,80.1667 489.5,72.5 Z"/></g>
<g><path style="opacity:1" fill="#d0dfb1" d="M 489.5,72.5 C 495.645,71.5098 501.978,71.1765 508.5,71.5C 508.5,79.5 508.5,87.5 508.5,95.5C 507.508,88.0182 507.175,80.3516 507.5,72.5C 501.5,72.5 495.5,72.5 489.5,72.5 Z"/></g>
<g><path style="opacity:1" fill="#fefefd" d="M 614.5,71.5 C 620.419,75.0826 625.752,79.4159 630.5,84.5C 621.339,95.6678 610.672,105.001 598.5,112.5C 597.5,134.156 597.167,155.823 597.5,177.5C 591.167,177.5 584.833,177.5 578.5,177.5C 578.833,160.154 578.5,142.821 577.5,125.5C 567.315,132.006 556.648,137.672 545.5,142.5C 541.226,137.467 537.56,131.967 534.5,126C 552.726,118.222 570.059,108.889 586.5,98C 597.293,90.7068 606.626,81.8735 614.5,71.5 Z"/></g>
<g><path style="opacity:1" fill="#d4e2b7" d="M 446.5,73.5 C 452.645,72.5098 458.978,72.1765 465.5,72.5C 465.5,80.1667 465.5,87.8333 465.5,95.5C 464.508,88.3524 464.175,81.0191 464.5,73.5C 458.5,73.5 452.5,73.5 446.5,73.5 Z"/></g>
<g><path style="opacity:1" fill="#fcfdfb" d="M 649.5,75.5 C 652.274,76.7226 654.941,78.2226 657.5,80C 664.003,85.0075 670.336,90.1742 676.5,95.5C 672.801,100.902 668.635,105.902 664,110.5C 656.043,103.686 647.71,97.3531 639,91.5C 638.333,90.5 638.333,89.5 639,88.5C 642.713,84.2923 646.213,79.959 649.5,75.5 Z"/></g>
<g><path style="opacity:1" fill="#fdfdfb" d="M 407.5,77.5 C 411.812,81.1456 415.812,85.1456 419.5,89.5C 417.167,92.5 414.5,95.1667 411.5,97.5C 407.71,93.2082 403.71,89.0415 399.5,85C 402.062,82.267 404.729,79.767 407.5,77.5 Z"/></g>
<g><path style="opacity:1" fill="#fefefd" d="M 827.5,97.5 C 828.043,97.44 828.376,97.1067 828.5,96.5C 802.175,95.5002 775.842,95.1669 749.5,95.5C 749.5,90.1667 749.5,84.8333 749.5,79.5C 779.877,79.8254 810.211,79.4921 840.5,78.5C 846.004,81.8309 850.17,86.1643 853,91.5C 843.66,107.838 832.16,122.505 818.5,135.5C 813.648,131.482 809.315,126.982 805.5,122C 814.465,115.206 821.799,107.04 827.5,97.5 Z"/></g>
<g><path style="opacity:1" fill="#699b09" d="M 140.5,85.5 C 145.925,90.7505 151.592,95.9171 157.5,101C 146.5,101.667 135.5,101.667 124.5,101C 130.337,96.3296 135.67,91.163 140.5,85.5 Z"/></g>
<g><path style="opacity:1" fill="#fafbf7" d="M 395.5,88.5 C 399.812,92.1456 403.812,96.1456 407.5,100.5C 404.833,103.5 402.167,106.5 399.5,109.5C 395.528,105.193 391.528,100.859 387.5,96.5C 390.494,94.1727 393.161,91.5061 395.5,88.5 Z"/></g>
<g><path style="opacity:1" fill="#fcfdfa" d="M 898.5,89.5 C 899.833,89.5 901.167,89.5 902.5,89.5C 905.065,97.1371 908.065,104.637 911.5,112C 911.355,112.772 911.022,113.439 910.5,114C 905.835,115.611 901.168,117.111 896.5,118.5C 894.351,110.53 891.351,102.864 887.5,95.5C 891.034,93.2336 894.7,91.2336 898.5,89.5 Z"/></g>
<g><path style="opacity:1" fill="#fcfdfb" d="M 931.5,91.5 C 937.813,93.0484 943.813,95.3817 949.5,98.5C 944.692,121.623 934.026,141.457 917.5,158C 908.002,165.588 897.669,171.921 886.5,177C 885.5,177.667 884.5,177.667 883.5,177C 880.167,172.333 876.833,167.667 873.5,163C 908.047,151.61 927.38,127.777 931.5,91.5 Z"/></g>
<g><path style="opacity:1" fill="#fcfdfa" d="M 873.5,93.5 C 878.199,100.906 881.866,108.906 884.5,117.5C 880.682,121.34 876.015,123.674 870.5,124.5C 868.017,115.861 864.683,107.527 860.5,99.5C 864.926,97.48 869.259,95.48 873.5,93.5 Z"/></g>
<g><path style="opacity:1" fill="#fdfdfc" d="M 726.5,95.5 C 731.942,99.8179 736.608,104.985 740.5,111C 716.341,142.796 685.175,164.963 647,177.5C 643.883,171.326 641.05,164.993 638.5,158.5C 667.631,150.861 692.465,136.194 713,114.5C 718.133,108.547 722.633,102.214 726.5,95.5 Z"/></g>
<g><path style="opacity:1" fill="#ccddaa" d="M 749.5,95.5 C 775.842,95.1669 802.175,95.5002 828.5,96.5C 828.376,97.1067 828.043,97.44 827.5,97.5C 801.5,96.8333 775.5,96.1667 749.5,95.5 Z"/></g>
<g><path style="opacity:1" fill="#afc97a" d="M 446.5,95.5 C 439.687,96.4912 432.687,96.8245 425.5,96.5C 425.5,101.833 425.5,107.167 425.5,112.5C 432.687,112.175 439.687,112.509 446.5,113.5C 439.167,113.5 431.833,113.5 424.5,113.5C 424.5,107.5 424.5,101.5 424.5,95.5C 431.833,95.5 439.167,95.5 446.5,95.5 Z"/></g>
<g><path style="opacity:1" fill="#cadba6" d="M 508.5,95.5 C 515.5,95.5 522.5,95.5 529.5,95.5C 529.5,101.5 529.5,107.5 529.5,113.5C 522.5,113.5 515.5,113.5 508.5,113.5C 514.979,112.509 521.646,112.176 528.5,112.5C 528.5,107.167 528.5,101.833 528.5,96.5C 521.646,96.824 514.979,96.4907 508.5,95.5 Z"/></g>
<g><path style="opacity:1" fill="#96b851" d="M 313.5,100.5 C 300.677,101.495 287.677,101.829 274.5,101.5C 274.5,104.833 274.5,108.167 274.5,111.5C 273.518,108.038 273.185,104.371 273.5,100.5C 286.833,100.5 300.167,100.5 313.5,100.5 Z"/></g>
<g><path style="opacity:1" fill="#bbd18d" d="M 785.5,101.5 C 791.979,100.509 798.646,100.176 805.5,100.5C 805.737,101.791 805.404,102.791 804.5,103.5C 798.588,101.544 792.255,100.877 785.5,101.5 Z"/></g>
<g><path style="opacity:1" fill="#fcfdfa" d="M 785.5,101.5 C 792.255,100.877 798.588,101.544 804.5,103.5C 803.235,136.053 789.068,161.053 762,178.5C 758.167,173.5 754.333,168.5 750.5,163.5C 761.073,157.096 769.906,148.763 777,138.5C 781.958,126.525 784.791,114.191 785.5,101.5 Z"/></g>
<g><path style="opacity:1" fill="#6c9d13" d="M 251.5,120.5 C 256.918,120.924 259.585,123.924 259.5,129.5C 259.203,137.894 255.369,140.227 248,136.5C 246.48,132.625 246.146,128.625 247,124.5C 248.397,122.93 249.897,121.596 251.5,120.5 Z"/></g>
<g><path style="opacity:1" fill="#fdfefd" d="M 172.5,123.5 C 178.37,126.368 183.704,130.034 188.5,134.5C 174.653,157.508 155.153,173.842 130,183.5C 128.739,183.241 127.739,182.574 127,181.5C 123.748,176.977 121.082,172.31 119,167.5C 135.493,162.51 149.659,153.843 161.5,141.5C 139.844,140.5 118.177,140.167 96.5,140.5C 96.5,135.167 96.5,129.833 96.5,124.5C 122.005,124.831 147.339,124.498 172.5,123.5 Z"/></g>
</svg>
