<?xml version="1.0" encoding="UTF-8"?>
<!DOCTYPE svg PUBLIC "-//W3C//DTD SVG 1.1//EN" "http://www.w3.org/Graphics/SVG/1.1/DTD/svg11.dtd">
<svg xmlns="http://www.w3.org/2000/svg" version="1.1" width="1005px" height="232px" style="shape-rendering:geometricPrecision; text-rendering:geometricPrecision; image-rendering:optimizeQuality; fill-rule:evenodd; clip-rule:evenodd" xmlns:xlink="http://www.w3.org/1999/xlink">
<g><path style="opacity:0.999" fill="#669901" d="M 41.5,6.5 C 348.834,6.33333 656.167,6.5 963.5,7C 976.333,10.5 984.5,18.6667 988,31.5C 988.667,76.8333 988.667,122.167 988,167.5C 984.5,180.333 976.333,188.5 963.5,192C 656.167,192.667 348.833,192.667 41.5,192C 28.6667,188.5 20.5,180.333 17,167.5C 16.3333,122.167 16.3333,76.8333 17,31.5C 20.6829,18.6514 28.8496,10.3181 41.5,6.5 Z"/></g>
<g><path style="opacity:1" fill="#fdfdfc" d="M 116.5,53.5 C 122.233,52.8951 127.566,54.0617 132.5,57C 146.333,68.1667 160.167,79.3333 174,90.5C 174.667,91.1667 174.667,91.8333 174,92.5C 169.952,96.8797 166.285,101.546 163,106.5C 158.351,102.686 153.851,98.6856 149.5,94.5C 148.526,96.7427 148.192,99.076 148.5,101.5C 129.782,103.006 111.116,105.006 92.5,107.5C 92.6751,103.459 92.8418,99.4594 93,95.5C 89.2782,99.725 85.1115,103.392 80.5,106.5C 76.1245,103.126 72.4578,99.1256 69.5,94.5C 84.2987,79.6921 99.9653,66.0254 116.5,53.5 Z"/></g>
<g><path style="opacity:1" fill="#fdfdfb" d="M 348.5,56.5 C 353.419,59.7483 357.753,63.7483 361.5,68.5C 340.659,79.7485 320.659,92.2485 301.5,106C 321.5,118.667 341.5,131.333 361.5,144C 357.28,148.723 352.613,152.89 347.5,156.5C 327.167,143 306.833,129.5 286.5,116C 275.414,106.495 276.081,97.8287 288.5,90C 308.724,79.0592 328.724,67.8925 348.5,56.5 Z"/></g>
<g><path style="opacity:1" fill="#fdfdfb" d="M 579.5,57.5 C 592.048,63.1073 604.381,69.274 616.5,76C 612.833,81.6667 609.167,87.3333 605.5,93C 602.983,93.2566 600.65,92.5899 598.5,91C 589.251,84.7904 579.751,78.957 570,73.5C 569.685,72.0922 570.018,70.7589 571,69.5C 574.467,65.88 577.3,61.88 579.5,57.5 Z"/></g>
<g><path style="opacity:1" fill="#fdfefc" d="M 249.5,58.5 C 249.5,63.5 249.5,68.5 249.5,73.5C 257.164,73.8886 264.83,74.222 272.5,74.5C 272.5,78.5 272.5,82.5 272.5,86.5C 267.833,86.5 263.167,86.5 258.5,86.5C 255.5,86.5 252.5,86.5 249.5,86.5C 249.334,92.8421 249.5,99.1754 250,105.5C 258.217,119.444 256.884,132.444 246,144.5C 242.242,148.931 237.908,152.598 233,155.5C 227.105,152.803 221.272,149.969 215.5,147C 220.424,143.287 225.258,139.454 230,135.5C 232.01,133.129 233.01,130.463 233,127.5C 222.225,138.867 209.392,142.034 194.5,137C 183.644,130.45 179.811,120.95 183,108.5C 187.398,98.7136 194.898,92.8802 205.5,91C 213.232,90.4499 220.899,90.9499 228.5,92.5C 229.209,93.404 230.209,93.7373 231.5,93.5C 231.5,91.1667 231.5,88.8333 231.5,86.5C 225.31,86.1771 219.31,86.5104 213.5,87.5C 202.035,87.7443 190.702,89.0776 179.5,91.5C 179.5,86.1667 179.5,80.8333 179.5,75.5C 181.415,75.7845 183.081,75.4511 184.5,74.5C 199.824,73.8229 215.157,73.4896 230.5,73.5C 230.5,69.8333 230.5,66.1667 230.5,62.5C 230.5,61.1667 230.5,59.8333 230.5,58.5C 236.833,58.5 243.167,58.5 249.5,58.5 Z"/></g>
<g><path style="opacity:1" fill="#fdfefc" d="M 532.5,148.5 C 531.549,149.919 531.216,151.585 531.5,153.5C 525.167,153.5 518.833,153.5 512.5,153.5C 512.5,151.167 512.5,148.833 512.5,146.5C 513.334,132.833 513.834,119.166 514,105.5C 504.292,114.21 494.292,122.543 484,130.5C 479.993,124.488 476.493,118.155 473.5,111.5C 498.012,91.9868 523.845,74.3202 551,58.5C 556.412,61.9054 561.245,66.0721 565.5,71C 555.247,77.7094 545.08,84.5428 535,91.5C 533.883,110.49 533.05,129.49 532.5,148.5 Z"/></g>
<g><path style="opacity:1" fill="#c2d698" d="M 249.5,58.5 C 243.167,58.5 236.833,58.5 230.5,58.5C 230.5,59.8333 230.5,61.1667 230.5,62.5C 229.549,61.0813 229.216,59.4147 229.5,57.5C 236.354,57.176 243.021,57.5093 249.5,58.5 Z"/></g>
<g><path style="opacity:1" fill="#fdfdfc" d="M 438.5,58.5 C 443.179,58.3342 447.845,58.5008 452.5,59C 451.149,67.3962 450.482,75.8962 450.5,84.5C 456.833,84.5 463.167,84.5 469.5,84.5C 469.5,90.1667 469.5,95.8333 469.5,101.5C 461.913,101.186 454.413,101.519 447,102.5C 443.003,120.153 439.169,137.82 435.5,155.5C 428.833,154.167 422.167,152.833 415.5,151.5C 419.555,135.451 422.889,119.284 425.5,103C 420.129,102.324 414.796,102.491 409.5,103.5C 409.5,112.5 409.5,121.5 409.5,130.5C 402.826,130.713 396.159,131.046 389.5,131.5C 389.5,122.833 389.5,114.167 389.5,105.5C 383.822,106.085 378.155,106.751 372.5,107.5C 372.5,100.167 372.5,92.8333 372.5,85.5C 378.5,85.1667 384.5,84.8333 390.5,84.5C 390.5,76.8333 390.5,69.1667 390.5,61.5C 396.833,61.5 403.167,61.5 409.5,61.5C 409.5,69.1667 409.5,76.8333 409.5,84.5C 415.833,84.5 422.167,84.5 428.5,84.5C 429.249,76.1737 429.916,67.8403 430.5,59.5C 433.385,59.8064 436.052,59.4731 438.5,58.5 Z"/></g>
<g><path style="opacity:1" fill="#fdfefc" d="M 725.5,58.5 C 734.32,57.9706 742.987,58.8039 751.5,61C 762.715,67.4116 765.548,76.5783 760,88.5C 756.296,97.4069 752.462,106.24 748.5,115C 741.933,113.226 735.599,110.559 729.5,107C 733.926,97.2253 738.26,87.392 742.5,77.5C 717.911,78.823 693.577,82.4897 669.5,88.5C 668.504,81.5406 667.837,74.5406 667.5,67.5C 687.031,64.91 706.364,61.91 725.5,58.5 Z"/></g>
<g><path style="opacity:1" fill="#fdfdfc" d="M 905.5,61.5 C 912.589,61.1156 919.589,61.6156 926.5,63C 934.056,67.8482 936.556,74.6816 934,83.5C 928.821,95.3583 922.988,106.858 916.5,118C 932.896,117.712 938.396,125.212 933,140.5C 928.464,145.152 922.964,146.652 916.5,145C 911.851,142.545 909.017,138.712 908,133.5C 903.333,140.833 898.667,148.167 894,155.5C 887.912,152.206 881.745,149.039 875.5,146C 889.51,124.322 902.51,101.989 914.5,79C 890.458,82.6185 866.458,86.7852 842.5,91.5C 842.149,84.7291 841.149,78.0624 839.5,71.5C 861.728,68.7814 883.728,65.4481 905.5,61.5 Z"/></g>
<g><path style="opacity:1" fill="#699b0a" d="M 120.5,72.5 C 122.308,72.4914 123.975,72.9914 125.5,74C 130.5,78.3333 135.5,82.6667 140.5,87C 126.89,88.885 113.224,89.885 99.5,90C 106.69,84.3022 113.69,78.4689 120.5,72.5 Z"/></g>
<g><path style="opacity:1" fill="#b9d08a" d="M 184.5,74.5 C 183.081,75.4511 181.415,75.7845 179.5,75.5C 179.5,80.8333 179.5,86.1667 179.5,91.5C 178.511,86.0247 178.178,80.358 178.5,74.5C 180.5,74.5 182.5,74.5 184.5,74.5 Z"/></g>
<g><path style="opacity:1" fill="#b7ce87" d="M 272.5,74.5 C 273.485,78.6344 273.818,82.9677 273.5,87.5C 268.305,87.8205 263.305,87.4872 258.5,86.5C 263.167,86.5 267.833,86.5 272.5,86.5C 272.5,82.5 272.5,78.5 272.5,74.5 Z"/></g>
<g><path style="opacity:1" fill="#fbfcf8" d="M 358.5,81.5 C 359.833,81.5 361.167,81.5 362.5,81.5C 364.5,87.8333 366.5,94.1667 368.5,100.5C 365.523,101.071 362.69,102.071 360,103.5C 357.214,97.65 354.714,91.65 352.5,85.5C 352.833,84.8333 353.167,84.1667 353.5,83.5C 355.336,82.9724 357.003,82.3058 358.5,81.5 Z"/></g>
<g><path style="opacity:1" fill="#fbfcf8" d="M 347.5,84.5 C 348.496,84.4142 349.329,84.7476 350,85.5C 352.504,91.6836 355.004,97.8502 357.5,104C 354.382,104.873 351.382,106.039 348.5,107.5C 345.595,100.95 342.595,94.4502 339.5,88C 342.309,86.9066 344.976,85.7399 347.5,84.5 Z"/></g>
<g><path style="opacity:1" fill="#aac672" d="M 213.5,87.5 C 219.31,86.5104 225.31,86.1771 231.5,86.5C 231.5,88.8333 231.5,91.1667 231.5,93.5C 230.209,93.7373 229.209,93.404 228.5,92.5C 230.256,91.4479 230.923,89.7812 230.5,87.5C 224.833,87.5 219.167,87.5 213.5,87.5 Z"/></g>
<g><path style="opacity:1" fill="#fdfefc" d="M 701.5,88.5 C 708.033,90.4664 714.7,91.7997 721.5,92.5C 715.309,113.24 708.809,133.907 702,154.5C 695.672,151.668 689.172,149.335 682.5,147.5C 688.63,127.778 694.963,108.111 701.5,88.5 Z"/></g>
<g><path style="opacity:1" fill="#fdfdfb" d="M 652.5,90.5 C 656.059,95.939 659.392,101.606 662.5,107.5C 637.248,123.709 612.081,140.042 587,156.5C 583,151.167 579,145.833 575,140.5C 574.333,139.5 574.333,138.5 575,137.5C 600.814,121.682 626.647,106.015 652.5,90.5 Z"/></g>
<g><path style="opacity:1" fill="#fcfdf9" d="M 790.5,97.5 C 794.437,97.2065 798.27,97.5399 802,98.5C 803.756,105.022 805.589,111.522 807.5,118C 806.318,119.735 804.651,120.735 802.5,121C 799.487,121.502 796.487,122.002 793.5,122.5C 791.912,114.734 789.912,107.067 787.5,99.5C 788.602,98.8243 789.602,98.1577 790.5,97.5 Z"/></g>
<g><path style="opacity:1" fill="#fdfdfb" d="M 819.5,97.5 C 824.43,99.7569 829.43,101.924 834.5,104C 826.927,120.972 819.26,137.806 811.5,154.5C 806.046,152.273 800.713,149.773 795.5,147C 803.791,130.617 811.791,114.117 819.5,97.5 Z"/></g>
<g><path style="opacity:1" fill="#fbfcf9" d="M 779.5,99.5 C 780.5,99.5 781.5,99.5 782.5,99.5C 784.822,107.485 787.155,115.485 789.5,123.5C 784.933,124.022 780.6,125.355 776.5,127.5C 773.405,120.049 770.405,112.549 767.5,105C 771.249,102.567 775.249,100.734 779.5,99.5 Z"/></g>
<g><path style="opacity:1" fill="#6c9c12" d="M 204.5,105.5 C 208.514,105.334 212.514,105.501 216.5,106C 219.539,106.353 222.205,107.52 224.5,109.5C 221.187,118.321 214.854,122.487 205.5,122C 198.034,116.959 197.701,111.459 204.5,105.5 Z"/></g>
<g><path style="opacity:1" fill="#fcfdfa" d="M 135.5,109.5 C 140.179,109.334 144.845,109.501 149.5,110C 154.406,111.57 157.073,114.903 157.5,120C 152.232,132.869 145.899,145.202 138.5,157C 132.029,156.182 125.695,154.515 119.5,152C 124.549,143.404 129.215,134.571 133.5,125.5C 116.574,127.261 99.5738,129.594 82.5,132.5C 82.5,127.167 82.5,121.833 82.5,116.5C 100.356,114.561 118.022,112.227 135.5,109.5 Z"/></g>
<g><path style="opacity:1" fill="#6b9c10" d="M 918.5,123.5 C 930.17,123.675 933.17,128.841 927.5,139C 917.484,142.653 912.984,139.153 914,128.5C 915.025,126.313 916.525,124.646 918.5,123.5 Z"/></g>
<g><path style="opacity:1" fill="#a9c56f" d="M 512.5,146.5 C 512.5,148.833 512.5,151.167 512.5,153.5C 518.833,153.5 525.167,153.5 531.5,153.5C 531.216,151.585 531.549,149.919 532.5,148.5C 532.5,150.5 532.5,152.5 532.5,154.5C 525.5,154.5 518.5,154.5 511.5,154.5C 511.194,151.615 511.527,148.948 512.5,146.5 Z"/></g>
</svg>
