<?xml version="1.0" encoding="UTF-8"?>
<!DOCTYPE svg PUBLIC "-//W3C//DTD SVG 1.1//EN" "http://www.w3.org/Graphics/SVG/1.1/DTD/svg11.dtd">
<svg xmlns="http://www.w3.org/2000/svg" version="1.1" width="353px" height="232px" style="shape-rendering:geometricPrecision; text-rendering:geometricPrecision; image-rendering:optimizeQuality; fill-rule:evenodd; clip-rule:evenodd" xmlns:xlink="http://www.w3.org/1999/xlink">
<g><path style="opacity:0.985" fill="#bcd24d" d="M 34.5,5.5 C 129.501,5.33334 224.501,5.5 319.5,6C 332.333,9.5 340.5,17.6667 344,30.5C 344.667,76.1667 344.667,121.833 344,167.5C 340.5,180.333 332.333,188.5 319.5,192C 224.5,192.667 129.5,192.667 34.5,192C 21.6667,188.5 13.5,180.333 10,167.5C 9.33333,121.833 9.33333,76.1667 10,30.5C 13.6829,17.6514 21.8496,9.31807 34.5,5.5 Z"/></g>
<g><path style="opacity:1" fill="#7f7f7f" d="M 36.5,10.5 C 130.167,10.3333 223.834,10.5 317.5,11C 328.693,14.193 335.86,21.3597 339,32.5C 339.667,76.8333 339.667,121.167 339,165.5C 335.833,176.667 328.667,183.833 317.5,187C 223.833,187.667 130.167,187.667 36.5,187C 25.3597,183.86 18.193,176.693 15,165.5C 14.3333,121.167 14.3333,76.8333 15,32.5C 18.3501,21.3177 25.5167,13.9844 36.5,10.5 Z"/></g>
<g><path style="opacity:1" fill="#fdfdfd" d="M 93.5,53.5 C 99.5,53.5 105.5,53.5 111.5,53.5C 111.334,58.8437 111.501,64.1771 112,69.5C 113.872,65.7245 116.205,62.3911 119,59.5C 123.103,61.4645 126.936,63.7979 130.5,66.5C 127.09,72.8204 124.09,79.3204 121.5,86C 122.985,88.1561 124.485,90.3228 126,92.5C 126.667,109.5 126.667,126.5 126,143.5C 124.877,152.956 119.543,157.956 110,158.5C 107.183,157.969 104.35,157.636 101.5,157.5C 100.673,152.52 99.3397,147.687 97.5,143C 101.486,142.501 105.486,142.334 109.5,142.5C 109.5,138.5 109.5,134.5 109.5,130.5C 102.51,130.999 95.5097,131.332 88.5,131.5C 88.5,140.167 88.5,148.833 88.5,157.5C 82.1667,157.5 75.8333,157.5 69.5,157.5C 70.502,134.134 72.002,110.801 74,87.5C 80.0758,86.5236 86.2424,86.1903 92.5,86.5C 92.8725,75.5015 93.2058,64.5015 93.5,53.5 Z"/></g>
<g><path style="opacity:1" fill="#bfbfbf" d="M 172.5,54.5 C 166.833,54.5 161.167,54.5 155.5,54.5C 155.5,83.5 155.5,112.5 155.5,141.5C 151.833,141.5 148.167,141.5 144.5,141.5C 147.625,140.521 150.958,140.187 154.5,140.5C 154.5,111.5 154.5,82.5 154.5,53.5C 160.69,53.1771 166.69,53.5104 172.5,54.5 Z"/></g>
<g><path style="opacity:1" fill="#fdfdfd" d="M 172.5,54.5 C 172.387,79.3391 172.72,104.172 173.5,129C 173.594,136.56 173.094,144.06 172,151.5C 170.437,154.728 167.937,156.895 164.5,158C 156.173,158.5 147.84,158.666 139.5,158.5C 138.657,152.797 137.657,147.13 136.5,141.5C 139.167,141.5 141.833,141.5 144.5,141.5C 148.167,141.5 151.833,141.5 155.5,141.5C 155.5,112.5 155.5,83.5 155.5,54.5C 161.167,54.5 166.833,54.5 172.5,54.5 Z"/></g>
<g><path style="opacity:1" fill="#fdfdfd" d="M 256.5,116.5 C 255.504,129.99 255.171,143.656 255.5,157.5C 249.833,157.5 244.167,157.5 238.5,157.5C 238.5,144.167 238.5,130.833 238.5,117.5C 231.822,117.789 225.156,118.289 218.5,119C 218.455,131.542 212.122,137.375 199.5,136.5C 197.961,131.216 196.627,125.882 195.5,120.5C 197.5,120.5 199.5,120.5 201.5,120.5C 200.629,113.387 198.462,106.721 195,100.5C 194.5,112.495 194.333,124.495 194.5,136.5C 194.5,143.167 194.5,149.833 194.5,156.5C 189.5,156.5 184.5,156.5 179.5,156.5C 179.462,122.829 179.795,89.162 180.5,55.5C 191.137,54.2244 201.804,53.7244 212.5,54C 215.057,54.6853 216.891,56.1853 218,58.5C 218.175,62.211 218.675,65.8776 219.5,69.5C 226.662,64.4182 233.995,59.5848 241.5,55C 245.833,53 250.167,53 254.5,55C 263.93,61.1314 273.097,67.6314 282,74.5C 280.716,79.6601 277.883,83.9935 273.5,87.5C 272.534,89.396 272.201,91.396 272.5,93.5C 267.167,93.5 261.833,93.5 256.5,93.5C 256.5,96.8333 256.5,100.167 256.5,103.5C 265.5,103.5 274.5,103.5 283.5,103.5C 284.08,107.81 284.414,112.143 284.5,116.5C 275.167,116.5 265.833,116.5 256.5,116.5 Z"/></g>
<g><path style="opacity:1" fill="#fcfcfc" d="M 131.5,61.5 C 137.167,61.5 142.833,61.5 148.5,61.5C 148.5,84.1667 148.5,106.833 148.5,129.5C 142.5,129.5 136.5,129.5 130.5,129.5C 130.907,106.835 131.241,84.168 131.5,61.5 Z"/></g>
<g><path style="opacity:1" fill="#fafafa" d="M 78.5,62.5 C 87.8537,62.6813 92.0204,67.348 91,76.5C 88.0812,82.0248 83.5812,83.8581 77.5,82C 71.0225,78.8848 69.1892,74.0514 72,67.5C 73.8049,65.1743 75.9716,63.5077 78.5,62.5 Z"/></g>
<g><path style="opacity:1" fill="#848484" d="M 194.5,67.5 C 196.833,67.5 199.167,67.5 201.5,67.5C 200.483,74.8639 198.317,81.8639 195,88.5C 194.5,81.5079 194.334,74.5079 194.5,67.5 Z"/></g>
<g><path style="opacity:1" fill="#838383" d="M 245.5,69.5 C 252.172,71.6753 258.172,75.1753 263.5,80C 252.524,81.2847 241.524,81.618 230.5,81C 235.685,77.3031 240.685,73.4698 245.5,69.5 Z"/></g>
<g><path style="opacity:1" fill="#808080" d="M 110.5,81.5 C 112.807,82.6534 115.14,83.8201 117.5,85C 115.19,85.4966 112.857,85.6633 110.5,85.5C 110.5,84.1667 110.5,82.8333 110.5,81.5 Z"/></g>
<g><path style="opacity:1" fill="#818181" d="M 212.5,83.5 C 215.394,84.8823 217.894,86.8823 220,89.5C 220.667,88.8333 221.333,88.1667 222,87.5C 222.498,90.4816 222.665,93.4816 222.5,96.5C 228.161,96.0932 233.828,95.7599 239.5,95.5C 239.5,98.5 239.5,101.5 239.5,104.5C 231.16,104.666 222.827,104.5 214.5,104C 212.566,100.13 210.9,96.1298 209.5,92C 210.803,89.2565 211.803,86.4232 212.5,83.5 Z"/></g>
<g><path style="opacity:1" fill="#808080" d="M 103.5,96.5 C 105.833,96.5 108.167,96.5 110.5,96.5C 110.5,98.5 110.5,100.5 110.5,102.5C 103.833,102.5 97.1667,102.5 90.5,102.5C 90.5,100.833 90.5,99.1667 90.5,97.5C 95.0323,97.8182 99.3656,97.4849 103.5,96.5 Z"/></g>
<g><path style="opacity:1" fill="#808080" d="M 109.5,118.5 C 102.833,118.5 96.1667,118.5 89.5,118.5C 89.5,117.5 89.5,116.5 89.5,115.5C 95.7496,113.541 102.416,112.874 109.5,113.5C 109.5,115.167 109.5,116.833 109.5,118.5 Z"/></g>
<g><path style="opacity:1" fill="#bcbcbc" d="M 89.5,115.5 C 89.5,116.5 89.5,117.5 89.5,118.5C 96.1667,118.5 102.833,118.5 109.5,118.5C 102.687,119.491 95.6866,119.825 88.5,119.5C 88.2322,117.901 88.5655,116.568 89.5,115.5 Z"/></g>
<g><path style="opacity:1" fill="#fcfcfc" d="M 269.5,118.5 C 270.75,118.577 271.583,119.244 272,120.5C 276.069,130.208 280.236,139.874 284.5,149.5C 279.289,152.352 273.956,155.019 268.5,157.5C 264.65,146.618 260.984,135.618 257.5,124.5C 261.656,122.679 265.656,120.679 269.5,118.5 Z"/></g>
<g><path style="opacity:1" fill="#fcfcfc" d="M 222.5,120.5 C 226.768,122.09 231.101,123.59 235.5,125C 236.428,125.388 237.095,126.055 237.5,127C 233.638,137.878 229.138,148.378 224,158.5C 218.262,156.645 212.762,154.312 207.5,151.5C 212.784,141.267 217.784,130.934 222.5,120.5 Z"/></g>
<g><path style="opacity:1" fill="#b4b4b4" d="M 256.5,116.5 C 256.5,130.5 256.5,144.5 256.5,158.5C 250.31,158.823 244.31,158.49 238.5,157.5C 244.167,157.5 249.833,157.5 255.5,157.5C 255.171,143.656 255.504,129.99 256.5,116.5 Z"/></g>
<g><path style="opacity:1" fill="#bbbbbb" d="M 194.5,136.5 C 195.491,143.313 195.825,150.313 195.5,157.5C 189.974,157.821 184.64,157.488 179.5,156.5C 184.5,156.5 189.5,156.5 194.5,156.5C 194.5,149.833 194.5,143.167 194.5,136.5 Z"/></g>
</svg>
