<?xml version="1.0" encoding="UTF-8"?>
<!DOCTYPE svg PUBLIC "-//W3C//DTD SVG 1.1//EN" "http://www.w3.org/Graphics/SVG/1.1/DTD/svg11.dtd">
<svg xmlns="http://www.w3.org/2000/svg" version="1.1" width="549px" height="232px" style="shape-rendering:geometricPrecision; text-rendering:geometricPrecision; image-rendering:optimizeQuality; fill-rule:evenodd; clip-rule:evenodd" xmlns:xlink="http://www.w3.org/1999/xlink">
<g><path style="opacity:0.989" fill="#bcd24d" d="M 36.5,5.5 C 195.167,5.33333 353.834,5.5 512.5,6C 525.333,9.5 533.5,17.6667 537,30.5C 537.667,76.1667 537.667,121.833 537,167.5C 533.5,180.333 525.333,188.5 512.5,192C 353.833,192.667 195.167,192.667 36.5,192C 23.6667,188.5 15.5,180.333 12,167.5C 11.3333,121.833 11.3333,76.1667 12,30.5C 15.6829,17.6514 23.8496,9.31807 36.5,5.5 Z"/></g>
<g><path style="opacity:1" fill="#7f7f7f" d="M 38.5,10.5 C 195.834,10.3333 353.167,10.5 510.5,11C 521.693,14.193 528.86,21.3597 532,32.5C 532.667,76.8333 532.667,121.167 532,165.5C 528.833,176.667 521.667,183.833 510.5,187C 353.167,187.667 195.833,187.667 38.5,187C 27.3597,183.86 20.193,176.693 17,165.5C 16.3333,121.167 16.3333,76.8333 17,32.5C 20.3501,21.3177 27.5167,13.9844 38.5,10.5 Z"/></g>
<g><path style="opacity:1" fill="#fdfdfd" d="M 93.5,53.5 C 99.8333,53.5 106.167,53.5 112.5,53.5C 111.8,59.1586 111.634,64.8253 112,70.5C 113.934,66.2406 116.268,62.2406 119,58.5C 122.416,60.792 125.916,62.9586 129.5,65C 130.022,65.5613 130.355,66.228 130.5,67C 127.5,73.3333 124.5,79.6667 121.5,86C 125.17,88.8361 127.17,92.6694 127.5,97.5C 126.71,113.815 126.21,130.149 126,146.5C 123.472,154.521 117.972,158.521 109.5,158.5C 107.142,158.247 104.808,157.914 102.5,157.5C 101.167,152.5 99.8333,147.5 98.5,142.5C 102.5,142.5 106.5,142.5 110.5,142.5C 110.5,138.5 110.5,134.5 110.5,130.5C 103.504,130.894 96.5036,131.227 89.5,131.5C 88.8539,140.152 88.5205,148.818 88.5,157.5C 82.5,157.5 76.5,157.5 70.5,157.5C 71.2095,134.481 72.3761,111.481 74,88.5C 79.8737,86.5698 86.0404,85.9032 92.5,86.5C 93.2095,75.5145 93.5428,64.5145 93.5,53.5 Z"/></g>
<g><path style="opacity:1" fill="#fefefe" d="M 155.5,54.5 C 161.167,54.5 166.833,54.5 172.5,54.5C 172.169,75.3401 172.503,96.0067 173.5,116.5C 173.667,127.505 173.5,138.505 173,149.5C 172.112,154.208 169.279,157.042 164.5,158C 156.5,158.667 148.5,158.667 140.5,158C 139.409,152.804 138.076,147.637 136.5,142.5C 142.772,141.239 149.105,140.573 155.5,140.5C 155.5,111.833 155.5,83.1667 155.5,54.5 Z"/></g>
<g><path style="opacity:1" fill="#fcfcfc" d="M 196.5,124.5 C 196.586,123.504 196.252,122.671 195.5,122C 197.058,121.79 198.391,121.29 199.5,120.5C 200.497,120.53 201.164,120.03 201.5,119C 200.534,112.102 198.367,105.602 195,99.5C 194.503,101.81 194.337,104.143 194.5,106.5C 194.171,120.01 194.504,133.344 195.5,146.5C 195.5,149.833 195.5,153.167 195.5,156.5C 190.5,156.5 185.5,156.5 180.5,156.5C 180.5,136.833 180.5,117.167 180.5,97.5C 180.349,83.4839 180.682,69.4839 181.5,55.5C 192.157,54.5132 202.824,54.0132 213.5,54C 215.286,54.7845 216.786,55.9512 218,57.5C 218.333,61.8333 218.667,66.1667 219,70.5C 226.225,64.943 233.725,59.7764 241.5,55C 248.951,52.2664 255.617,53.5998 261.5,59C 268.975,64.3076 276.308,69.8076 283.5,75.5C 280.5,79.5 277.5,83.5 274.5,87.5C 273.534,89.396 273.201,91.396 273.5,93.5C 267.833,93.5 262.167,93.5 256.5,93.5C 256.5,96.8333 256.5,100.167 256.5,103.5C 265.833,103.5 275.167,103.5 284.5,103.5C 284.5,107.833 284.5,112.167 284.5,116.5C 275.167,116.5 265.833,116.5 256.5,116.5C 256.5,130.5 256.5,144.5 256.5,158.5C 250.5,158.5 244.5,158.5 238.5,158.5C 238.666,148.161 238.5,137.828 238,127.5C 233.963,137.739 229.796,147.905 225.5,158C 219.4,156.633 213.4,154.633 207.5,152C 213.191,141.786 218.191,131.286 222.5,120.5C 227.539,121.957 232.539,123.624 237.5,125.5C 238.48,122.914 238.813,120.247 238.5,117.5C 231.79,117.913 225.124,118.58 218.5,119.5C 217.775,123.532 216.942,127.532 216,131.5C 211.203,135.328 205.869,136.661 200,135.5C 198.726,131.846 197.56,128.18 196.5,124.5 Z"/></g>
<g><path style="opacity:1" fill="#c3c3c3" d="M 359.5,58.5 C 353.167,58.5 346.833,58.5 340.5,58.5C 340.5,61.1667 340.5,63.8333 340.5,66.5C 339.523,63.7131 339.19,60.7131 339.5,57.5C 346.354,57.176 353.021,57.5093 359.5,58.5 Z"/></g>
<g><path style="opacity:1" fill="#fdfdfd" d="M 359.5,58.5 C 359.5,63.5 359.5,68.5 359.5,73.5C 367.164,73.8886 374.83,74.222 382.5,74.5C 382.5,78.5 382.5,82.5 382.5,86.5C 374.648,86.1746 366.982,86.508 359.5,87.5C 359.334,93.5092 359.501,99.5092 360,105.5C 368.028,118.805 367.028,131.472 357,143.5C 352.911,148.262 348.244,152.262 343,155.5C 337.105,152.803 331.272,149.969 325.5,147C 330.424,143.287 335.258,139.454 340,135.5C 342.01,133.129 343.01,130.463 343,127.5C 332.256,139.122 319.422,142.288 304.5,137C 292.398,128.757 289.231,117.923 295,104.5C 304.559,92.31 317.059,87.81 332.5,91C 334.518,91.5046 336.518,92.0046 338.5,92.5C 339.209,93.404 340.209,93.7373 341.5,93.5C 341.5,91.1667 341.5,88.8333 341.5,86.5C 335.31,86.1771 329.31,86.5104 323.5,87.5C 312.035,87.7443 300.702,89.0776 289.5,91.5C 289.5,86.1667 289.5,80.8333 289.5,75.5C 291.735,75.7947 293.735,75.4614 295.5,74.5C 310.488,73.7428 325.488,73.4095 340.5,73.5C 340.5,71.1667 340.5,68.8333 340.5,66.5C 340.5,63.8333 340.5,61.1667 340.5,58.5C 346.833,58.5 353.167,58.5 359.5,58.5 Z"/></g>
<g><path style="opacity:1" fill="#fdfdfd" d="M 435.5,58.5 C 442.841,58.3337 450.174,58.5003 457.5,59C 460.784,60.3964 462.451,62.8964 462.5,66.5C 462.1,69.6989 461.1,72.6989 459.5,75.5C 454.189,80.155 448.522,84.3217 442.5,88C 469.125,85.2917 480.959,97.125 478,123.5C 471.928,139.483 460.428,149.316 443.5,153C 430.808,156.605 419.308,154.438 409,146.5C 401.933,129.513 407.433,118.68 425.5,114C 434.333,112.474 442.666,113.807 450.5,118C 452.371,120.37 454.038,122.87 455.5,125.5C 461.642,119.328 461.975,112.828 456.5,106C 452.522,103.507 448.189,102.341 443.5,102.5C 436.915,102.896 430.582,104.396 424.5,107C 415.87,110.819 407.536,114.819 399.5,119C 396.333,114.5 393.167,110 390,105.5C 389.333,104.5 389.333,103.5 390,102.5C 404.082,93.2088 418.248,84.0421 432.5,75C 422.514,75.9255 412.514,77.0922 402.5,78.5C 402.5,72.8333 402.5,67.1667 402.5,61.5C 413.677,60.868 424.677,59.868 435.5,58.5 Z"/></g>
<g><path style="opacity:1" fill="#fdfdfd" d="M 142.5,61.5 C 144.265,62.4614 146.265,62.7947 148.5,62.5C 148.5,75.5 148.5,88.5 148.5,101.5C 148.5,110.833 148.5,120.167 148.5,129.5C 142.5,129.5 136.5,129.5 130.5,129.5C 131.3,106.84 131.967,84.1731 132.5,61.5C 135.833,61.5 139.167,61.5 142.5,61.5 Z"/></g>
<g><path style="opacity:1" fill="#fbfbfb" d="M 78.5,62.5 C 89.9715,63.283 93.6382,68.9497 89.5,79.5C 83.6919,83.7517 78.1919,83.4184 73,78.5C 69.7081,71.1698 71.5414,65.8365 78.5,62.5 Z"/></g>
<g><path style="opacity:1" fill="#828282" d="M 195.5,67.5 C 197.857,67.3367 200.19,67.5034 202.5,68C 200.749,74.5861 198.582,81.0861 196,87.5C 195.5,80.8417 195.334,74.175 195.5,67.5 Z"/></g>
<g><path style="opacity:1" fill="#828282" d="M 247.5,68.5 C 253.138,72.3233 258.805,76.1566 264.5,80C 253.173,80.9258 241.84,81.2592 230.5,81C 236.59,77.3005 242.257,73.1339 247.5,68.5 Z"/></g>
<g><path style="opacity:1" fill="#c3c3c3" d="M 295.5,74.5 C 293.735,75.4614 291.735,75.7947 289.5,75.5C 289.5,80.8333 289.5,86.1667 289.5,91.5C 288.511,86.0247 288.178,80.358 288.5,74.5C 290.833,74.5 293.167,74.5 295.5,74.5 Z"/></g>
<g><path style="opacity:1" fill="#c7c7c7" d="M 155.5,54.5 C 161.31,53.5104 167.31,53.1771 173.5,53.5C 173.5,74.5 173.5,95.5 173.5,116.5C 172.503,96.0067 172.169,75.3401 172.5,54.5C 166.833,54.5 161.167,54.5 155.5,54.5 Z"/></g>
<g><path style="opacity:1" fill="#878787" d="M 110.5,81.5 C 119.381,84.3151 119.381,85.6484 110.5,85.5C 110.5,84.1667 110.5,82.8333 110.5,81.5 Z"/></g>
<g><path style="opacity:1" fill="#808080" d="M 213.5,83.5 C 215.63,85.1271 217.63,86.9604 219.5,89C 220.449,89.6172 221.282,89.4506 222,88.5C 222.179,91.5535 222.679,94.5535 223.5,97.5C 228.722,96.0308 234.055,95.3641 239.5,95.5C 239.5,98.5 239.5,101.5 239.5,104.5C 231.14,104.831 222.807,104.498 214.5,103.5C 212.927,99.6083 211.26,95.7749 209.5,92C 210.703,89.0954 212.036,86.2621 213.5,83.5 Z"/></g>
<g><path style="opacity:1" fill="#b6b6b6" d="M 323.5,87.5 C 329.31,86.5104 335.31,86.1771 341.5,86.5C 341.5,88.8333 341.5,91.1667 341.5,93.5C 340.209,93.7373 339.209,93.404 338.5,92.5C 340.256,91.4479 340.923,89.7812 340.5,87.5C 334.833,87.5 329.167,87.5 323.5,87.5 Z"/></g>
<g><path style="opacity:1" fill="#bbbbbb" d="M 382.5,74.5 C 383.485,78.6344 383.818,82.9677 383.5,87.5C 375.5,87.5 367.5,87.5 359.5,87.5C 366.982,86.508 374.648,86.1746 382.5,86.5C 382.5,82.5 382.5,78.5 382.5,74.5 Z"/></g>
<g><path style="opacity:1" fill="#b8b8b8" d="M 142.5,61.5 C 144.833,61.5 147.167,61.5 149.5,61.5C 149.829,75.0105 149.496,88.3438 148.5,101.5C 148.5,88.5 148.5,75.5 148.5,62.5C 146.265,62.7947 144.265,62.4614 142.5,61.5 Z"/></g>
<g><path style="opacity:1" fill="#b1b1b1" d="M 93.5,97.5 C 99.31,96.5104 105.31,96.1771 111.5,96.5C 111.768,98.099 111.434,99.4324 110.5,100.5C 110.5,99.5 110.5,98.5 110.5,97.5C 104.833,97.5 99.1667,97.5 93.5,97.5 Z"/></g>
<g><path style="opacity:1" fill="#7e7f7e" d="M 91.5,97.5 C 92.1667,97.5 92.8333,97.5 93.5,97.5C 99.1667,97.5 104.833,97.5 110.5,97.5C 110.5,98.5 110.5,99.5 110.5,100.5C 110.5,101.167 110.5,101.833 110.5,102.5C 104.167,102.5 97.8333,102.5 91.5,102.5C 91.5,100.833 91.5,99.1667 91.5,97.5 Z"/></g>
<g><path style="opacity:1" fill="#c9c9c9" d="M 91.5,97.5 C 91.5,99.1667 91.5,100.833 91.5,102.5C 97.8333,102.5 104.167,102.5 110.5,102.5C 104.021,103.491 97.3543,103.824 90.5,103.5C 90.2053,101.265 90.5386,99.2646 91.5,97.5 Z"/></g>
<g><path style="opacity:1" fill="#838383" d="M 199.5,120.5 C 198.167,120.5 196.833,120.5 195.5,120.5C 195.819,115.637 195.486,110.97 194.5,106.5C 194.337,104.143 194.503,101.81 195,99.5C 198.367,105.602 200.534,112.102 201.5,119C 201.164,120.03 200.497,120.53 199.5,120.5 Z"/></g>
<g><path style="opacity:1" fill="#818181" d="M 314.5,105.5 C 321.671,104.646 328.337,105.979 334.5,109.5C 329.611,120.879 321.778,123.879 311,118.5C 309.539,113.326 310.706,108.993 314.5,105.5 Z"/></g>
<g><path style="opacity:1" fill="#818181" d="M 89.5,113.5 C 96.5,113.5 103.5,113.5 110.5,113.5C 110.5,115.167 110.5,116.833 110.5,118.5C 103.5,118.5 96.5,118.5 89.5,118.5C 89.5,116.833 89.5,115.167 89.5,113.5 Z"/></g>
<g><path style="opacity:1" fill="#fcfcfc" d="M 270.5,118.5 C 275.912,128.361 280.578,138.695 284.5,149.5C 279.511,152.661 274.178,155.328 268.5,157.5C 264.867,146.768 261.534,135.935 258.5,125C 262.276,122.358 266.276,120.191 270.5,118.5 Z"/></g>
<g><path style="opacity:1" fill="#828282" d="M 428.5,127.5 C 434.979,127.071 439.646,129.738 442.5,135.5C 436.216,139.339 430.049,139.339 424,135.5C 423.533,131.785 425.033,129.119 428.5,127.5 Z"/></g>
<g><path style="opacity:1" fill="#b0b0b0" d="M 180.5,97.5 C 180.5,117.167 180.5,136.833 180.5,156.5C 185.5,156.5 190.5,156.5 195.5,156.5C 190.36,157.488 185.026,157.821 179.5,157.5C 179.17,137.326 179.503,117.326 180.5,97.5 Z"/></g>
<g><path style="opacity:1" fill="#d1d1d1" d="M 194.5,106.5 C 195.486,110.97 195.819,115.637 195.5,120.5C 196.833,120.5 198.167,120.5 199.5,120.5C 198.391,121.29 197.058,121.79 195.5,122C 196.252,122.671 196.586,123.504 196.5,124.5C 195.508,131.648 195.175,138.981 195.5,146.5C 194.504,133.344 194.171,120.01 194.5,106.5 Z"/></g>
</svg>
