<?xml version="1.0" encoding="UTF-8"?>
<!DOCTYPE svg PUBLIC "-//W3C//DTD SVG 1.1//EN" "http://www.w3.org/Graphics/SVG/1.1/DTD/svg11.dtd">
<svg xmlns="http://www.w3.org/2000/svg" version="1.1" width="412px" height="271px" style="shape-rendering:geometricPrecision; text-rendering:geometricPrecision; image-rendering:optimizeQuality; fill-rule:evenodd; clip-rule:evenodd" xmlns:xlink="http://www.w3.org/1999/xlink">
<g><path style="opacity:0.991" fill="#99cc32" d="M 52.5,1.5 C 154.834,1.33334 257.167,1.5 359.5,2C 375.667,6.16667 385.833,16.3333 390,32.5C 390.667,88.5 390.667,144.5 390,200.5C 385.833,216.667 375.667,226.833 359.5,231C 257.167,231.667 154.833,231.667 52.5,231C 36.3333,226.833 26.1667,216.667 22,200.5C 21.3333,144.5 21.3333,88.5 22,32.5C 26.3489,16.3186 36.5156,5.98523 52.5,1.5 Z"/></g>
<g><path style="opacity:1" fill="#767171" d="M 54.5,6.5 C 154.501,6.33334 254.501,6.5 354.5,7C 370.661,9.49313 380.827,18.6598 385,34.5C 385.667,88.1667 385.667,141.833 385,195.5C 382.167,213 372,223.167 354.5,226C 254.5,226.667 154.5,226.667 54.5,226C 38.6598,221.827 29.4931,211.661 27,195.5C 26.3333,141.833 26.3333,88.1667 27,34.5C 31.0159,19.985 40.1825,10.6517 54.5,6.5 Z"/></g>
<g><path style="opacity:1" fill="#fdfdfd" d="M 325.5,118.5 C 325.5,123.5 325.5,128.5 325.5,133.5C 315.5,133.5 305.5,133.5 295.5,133.5C 295.5,147.167 295.5,160.833 295.5,174.5C 295.44,179.061 293.107,181.561 288.5,182C 282.472,182.83 276.472,182.664 270.5,181.5C 269.441,176.039 267.941,170.705 266,165.5C 262.977,170.023 259.144,173.69 254.5,176.5C 249.54,173.208 245.207,169.208 241.5,164.5C 251.11,157.554 258.11,148.554 262.5,137.5C 267.528,139.676 272.194,142.343 276.5,145.5C 274.027,151.779 271.027,157.779 267.5,163.5C 270.833,164.833 274.167,164.833 277.5,163.5C 278.474,153.887 278.808,144.22 278.5,134.5C 270.833,134.5 263.167,134.5 255.5,134.5C 256.137,145.926 250.97,152.926 240,155.5C 238.893,155.415 237.893,155.081 237,154.5C 235.81,149.072 234.31,143.739 232.5,138.5C 234.805,137.769 236.638,136.436 238,134.5C 238.667,131.167 238.667,127.833 238,124.5C 236.449,120.004 234.616,115.671 232.5,111.5C 234.77,103.689 237.437,96.022 240.5,88.5C 237.572,87.5159 234.572,87.1826 231.5,87.5C 231.5,119.167 231.5,150.833 231.5,182.5C 226.167,182.5 220.833,182.5 215.5,182.5C 215.5,145.167 215.5,107.833 215.5,70.5C 226.04,70.7987 236.54,70.4653 247,69.5C 251.428,71.6278 255.595,74.1278 259.5,77C 258.369,81.3938 257.035,85.7272 255.5,90C 255.833,90.5 256.167,91 256.5,91.5C 265.946,84.7987 273.946,76.6321 280.5,67C 286.175,67.0834 291.842,67.5834 297.5,68.5C 297.351,69.552 297.517,70.552 298,71.5C 306.703,81.9398 317.203,90.1064 329.5,96C 326.696,101.119 323.529,105.953 320,110.5C 317.182,109.09 314.515,107.423 312,105.5C 311.503,108.146 311.336,110.813 311.5,113.5C 306.5,113.5 301.5,113.5 296.5,113.5C 296.5,115.167 296.5,116.833 296.5,118.5C 306.167,118.5 315.833,118.5 325.5,118.5 Z"/></g>
<g><path style="opacity:1" fill="#fdfdfd" d="M 109.5,67.5 C 115.167,67.5 120.833,67.5 126.5,67.5C 126.172,78.6794 126.505,89.6794 127.5,100.5C 133.833,100.5 140.167,100.5 146.5,100.5C 146.667,125.502 146.5,150.502 146,175.5C 144.833,179.333 142.333,181.833 138.5,183C 132.509,183.499 126.509,183.666 120.5,183.5C 119.5,177.5 118.5,171.5 117.5,165.5C 121.5,165.5 125.5,165.5 129.5,165.5C 129.5,161.833 129.5,158.167 129.5,154.5C 122.167,154.5 114.833,154.5 107.5,154.5C 106.506,163.652 106.173,172.985 106.5,182.5C 100.833,182.5 95.1667,182.5 89.5,182.5C 89.5,155.167 89.5,127.833 89.5,100.5C 96.1667,100.5 102.833,100.5 109.5,100.5C 109.5,89.5 109.5,78.5 109.5,67.5 Z"/></g>
<g><path style="opacity:1" fill="#bcbaba" d="M 109.5,67.5 C 115.31,66.5104 121.31,66.1771 127.5,66.5C 127.174,75.0168 127.507,83.3501 128.5,91.5C 128.5,91.8333 128.5,92.1667 128.5,92.5C 127.527,94.9479 127.194,97.6146 127.5,100.5C 126.505,89.6794 126.172,78.6794 126.5,67.5C 120.833,67.5 115.167,67.5 109.5,67.5 Z"/></g>
<g><path style="opacity:1" fill="#fcfcfc" d="M 97.5,69.5 C 101.385,77.1222 104.718,85.1222 107.5,93.5C 103.125,95.4588 98.6252,97.1255 94,98.5C 89.8852,91.8484 86.7186,84.6818 84.5,77C 84.6448,76.228 84.9781,75.5613 85.5,75C 89.71,73.3914 93.71,71.5581 97.5,69.5 Z"/></g>
<g><path style="opacity:1" fill="#fcfcfc" d="M 151.5,74.5 C 151.5,74.8333 151.5,75.1667 151.5,75.5C 150.124,83.463 147.457,90.963 143.5,98C 138.087,97.2936 133.087,95.4603 128.5,92.5C 128.5,92.1667 128.5,91.8333 128.5,91.5C 132.396,84.269 135.229,76.6023 137,68.5C 141.901,70.3682 146.735,72.3682 151.5,74.5 Z"/></g>
<g><path style="opacity:1" fill="#fdfdfd" d="M 177.5,69.5 C 183.167,69.5 188.833,69.5 194.5,69.5C 194.5,104.167 194.5,138.833 194.5,173.5C 193.312,178.853 189.979,182.02 184.5,183C 177.508,183.5 170.508,183.666 163.5,183.5C 162.06,177.195 160.727,170.862 159.5,164.5C 165.425,164.808 171.259,164.475 177,163.5C 177.5,132.168 177.667,100.835 177.5,69.5 Z"/></g>
<g><path style="opacity:1" fill="#bfbdbd" d="M 151.5,75.5 C 151.5,75.1667 151.5,74.8333 151.5,74.5C 157.833,74.5 164.167,74.5 170.5,74.5C 170.831,101.339 170.498,128.005 169.5,154.5C 169.5,128.167 169.5,101.833 169.5,75.5C 164.167,75.5 158.833,75.5 153.5,75.5C 153.5,101.833 153.5,128.167 153.5,154.5C 152.833,128.167 152.167,101.833 151.5,75.5 Z"/></g>
<g><path style="opacity:1" fill="#fefffe" d="M 169.5,154.5 C 164.167,154.5 158.833,154.5 153.5,154.5C 153.5,128.167 153.5,101.833 153.5,75.5C 158.833,75.5 164.167,75.5 169.5,75.5C 169.5,101.833 169.5,128.167 169.5,154.5 Z"/></g>
<g><path style="opacity:1" fill="#7a7575" d="M 287.5,84.5 C 291.497,87.9711 295.163,91.8045 298.5,96C 291.808,96.8309 285.142,96.6642 278.5,95.5C 281.902,92.1047 284.902,88.438 287.5,84.5 Z"/></g>
<g><path style="opacity:1" fill="#797474" d="M 252.5,100.5 C 253.952,104.159 255.619,107.825 257.5,111.5C 260.751,109.625 263.918,107.625 267,105.5C 267.497,108.146 267.664,110.813 267.5,113.5C 271.167,113.5 274.833,113.5 278.5,113.5C 278.5,115.167 278.5,116.833 278.5,118.5C 270.5,118.5 262.5,118.5 254.5,118.5C 254.663,120.857 254.497,123.19 254,125.5C 252.294,120.717 250.794,115.884 249.5,111C 250.354,107.459 251.354,103.959 252.5,100.5 Z"/></g>
<g><path style="opacity:1" fill="#b9b7b7" d="M 177.5,69.5 C 183.31,68.5104 189.31,68.1771 195.5,68.5C 195.832,103.671 195.498,138.671 194.5,173.5C 194.5,138.833 194.5,104.167 194.5,69.5C 188.833,69.5 183.167,69.5 177.5,69.5 Z"/></g>
<g><path style="opacity:1" fill="#757170" d="M 107.5,117.5 C 114.833,117.5 122.167,117.5 129.5,117.5C 129.5,119.5 129.5,121.5 129.5,123.5C 122.167,123.5 114.833,123.5 107.5,123.5C 107.5,121.5 107.5,119.5 107.5,117.5 Z"/></g>
<g><path style="opacity:1" fill="#777272" d="M 107.5,136.5 C 114.833,136.5 122.167,136.5 129.5,136.5C 129.5,138.167 129.5,139.833 129.5,141.5C 122.167,141.5 114.833,141.5 107.5,141.5C 107.5,139.833 107.5,138.167 107.5,136.5 Z"/></g>
<g><path style="opacity:1" fill="#fcfbfb" d="M 310.5,138.5 C 311.5,138.5 312.5,138.5 313.5,138.5C 316.405,148.977 321.405,158.311 328.5,166.5C 324.315,170.515 319.815,174.182 315,177.5C 307.806,167.947 302.306,157.447 298.5,146C 302.367,143.236 306.367,140.736 310.5,138.5 Z"/></g>
<g><path style="opacity:1" fill="#d4d3d3" d="M 325.5,118.5 C 326.488,123.64 326.821,128.974 326.5,134.5C 316.5,134.5 306.5,134.5 296.5,134.5C 296.829,148.01 296.496,161.344 295.5,174.5C 295.5,160.833 295.5,147.167 295.5,133.5C 305.5,133.5 315.5,133.5 325.5,133.5C 325.5,128.5 325.5,123.5 325.5,118.5 Z"/></g>
<g><path style="opacity:1" fill="#cac8c8" d="M 107.5,154.5 C 107.5,164.167 107.5,173.833 107.5,183.5C 101.31,183.823 95.31,183.49 89.5,182.5C 95.1667,182.5 100.833,182.5 106.5,182.5C 106.173,172.985 106.506,163.652 107.5,154.5 Z"/></g>
</svg>
