<?xml version="1.0" encoding="UTF-8"?>
<!DOCTYPE svg PUBLIC "-//W3C//DTD SVG 1.1//EN" "http://www.w3.org/Graphics/SVG/1.1/DTD/svg11.dtd">
<svg xmlns="http://www.w3.org/2000/svg" version="1.1" width="631px" height="271px" style="shape-rendering:geometricPrecision; text-rendering:geometricPrecision; image-rendering:optimizeQuality; fill-rule:evenodd; clip-rule:evenodd" xmlns:xlink="http://www.w3.org/1999/xlink">
<g><path style="opacity:0.994" fill="#99cc32" d="M 50.5,15.5 C 227.167,15.3333 403.834,15.5 580.5,16C 594,20.1667 602.833,29 607,42.5C 607.667,91.8333 607.667,141.167 607,190.5C 602.833,204 594,212.833 580.5,217C 403.833,217.667 227.167,217.667 50.5,217C 37,212.833 28.1667,204 24,190.5C 23.3333,141.167 23.3333,91.8333 24,42.5C 28.3506,28.9836 37.1839,19.9836 50.5,15.5 Z"/></g>
<g><path style="opacity:1" fill="#767171" d="M 52.5,20.5 C 227.834,20.3333 403.167,20.5 578.5,21C 588.115,23.9597 595.282,29.7931 600,38.5C 600.667,40.5 601.333,42.5 602,44.5C 602.667,92.5 602.667,140.5 602,188.5C 600.112,193.945 597.445,198.945 594,203.5C 589.363,207.236 584.196,210.07 578.5,212C 403.167,212.667 227.833,212.667 52.5,212C 47.0869,210.127 42.0869,207.46 37.5,204C 33.7636,199.363 30.9303,194.196 29,188.5C 28.3333,140.5 28.3333,92.5 29,44.5C 30.8735,39.0869 33.5401,34.0869 37,29.5C 41.8848,25.8145 47.0515,22.8145 52.5,20.5 Z"/></g>
<g><path style="opacity:1" fill="#fcfbfb" d="M 232.5,112.5 C 232.5,112.167 232.5,111.833 232.5,111.5C 234.47,103.425 237.136,95.5914 240.5,88C 237.518,87.502 234.518,87.3354 231.5,87.5C 230.502,118.996 230.168,150.662 230.5,182.5C 225.167,182.5 219.833,182.5 214.5,182.5C 214.5,145.167 214.5,107.833 214.5,70.5C 225.892,70.5993 237.225,70.4327 248.5,70C 252.336,72.0836 256.003,74.417 259.5,77C 257.77,81.7502 256.604,86.5836 256,91.5C 265.355,84.9786 273.188,76.9786 279.5,67.5C 280.667,67.1667 281.833,66.8333 283,66.5C 287.82,67.3313 292.653,67.998 297.5,68.5C 299.117,73.5305 302.117,77.6972 306.5,81C 313.517,86.5049 320.85,91.5049 328.5,96C 326.04,101.092 323.206,105.926 320,110.5C 317.078,109.245 314.411,107.578 312,105.5C 311.503,108.146 311.336,110.813 311.5,113.5C 306.5,113.5 301.5,113.5 296.5,113.5C 296.5,115.167 296.5,116.833 296.5,118.5C 306.167,118.5 315.833,118.5 325.5,118.5C 325.5,123.833 325.5,129.167 325.5,134.5C 315.833,134.5 306.167,134.5 296.5,134.5C 296.667,147.837 296.5,161.171 296,174.5C 294.807,178.36 292.307,180.86 288.5,182C 282.175,182.5 275.842,182.666 269.5,182.5C 269.283,176.58 268.116,170.913 266,165.5C 262.939,170.229 258.939,173.896 254,176.5C 249.364,173.031 245.197,169.031 241.5,164.5C 245.818,160.682 249.985,156.682 254,152.5C 256.936,147.627 259.603,142.627 262,137.5C 267.037,139.602 271.871,142.102 276.5,145C 273.644,151.212 270.644,157.379 267.5,163.5C 271.27,165.024 274.77,164.691 278,162.5C 278.5,153.173 278.666,143.839 278.5,134.5C 270.5,134.5 262.5,134.5 254.5,134.5C 255.613,147.714 249.613,154.714 236.5,155.5C 235.481,149.426 234.148,143.426 232.5,137.5C 236.87,136.959 238.87,134.459 238.5,130C 238.057,123.618 236.057,117.785 232.5,112.5 Z"/></g>
<g><path style="opacity:1" fill="#a8a5a5" d="M 128.5,91.5 C 128.5,92.1667 128.5,92.8333 128.5,93.5C 127.532,95.6074 127.198,97.9407 127.5,100.5C 127.167,100.5 126.833,100.5 126.5,100.5C 126.5,89.5 126.5,78.5 126.5,67.5C 120.833,67.5 115.167,67.5 109.5,67.5C 109.5,78.8333 109.5,90.1667 109.5,101.5C 102.833,101.5 96.1667,101.5 89.5,101.5C 89.5,128.5 89.5,155.5 89.5,182.5C 95.1667,182.5 100.833,182.5 106.5,182.5C 106.5,172.833 106.5,163.167 106.5,153.5C 114.352,153.175 122.018,153.508 129.5,154.5C 122.167,154.5 114.833,154.5 107.5,154.5C 107.5,164.167 107.5,173.833 107.5,183.5C 101.167,183.5 94.8333,183.5 88.5,183.5C 88.5,155.833 88.5,128.167 88.5,100.5C 95.1667,100.5 101.833,100.5 108.5,100.5C 108.5,89.1667 108.5,77.8333 108.5,66.5C 114.833,66.5 121.167,66.5 127.5,66.5C 127.174,75.0168 127.507,83.3501 128.5,91.5 Z"/></g>
<g><path style="opacity:1" fill="#fefefe" d="M 126.5,100.5 C 132.645,101.49 138.978,101.823 145.5,101.5C 145.5,126.167 145.5,150.833 145.5,175.5C 144.644,179.854 141.977,182.354 137.5,183C 131.843,183.499 126.176,183.666 120.5,183.5C 119.242,177.545 118.242,171.545 117.5,165.5C 121.182,165.665 124.848,165.499 128.5,165C 129.456,161.606 129.789,158.106 129.5,154.5C 122.018,153.508 114.352,153.175 106.5,153.5C 106.5,163.167 106.5,172.833 106.5,182.5C 100.833,182.5 95.1667,182.5 89.5,182.5C 89.5,155.5 89.5,128.5 89.5,101.5C 96.1667,101.5 102.833,101.5 109.5,101.5C 109.5,90.1667 109.5,78.8333 109.5,67.5C 115.167,67.5 120.833,67.5 126.5,67.5C 126.5,78.5 126.5,89.5 126.5,100.5 Z"/></g>
<g><path style="opacity:1" fill="#fbfbfb" d="M 96.5,69.5 C 98.335,70.1223 99.5017,71.4556 100,73.5C 102.402,80.2054 104.902,86.8721 107.5,93.5C 103.125,95.4588 98.6252,97.1255 94,98.5C 93.228,98.3552 92.5613,98.0219 92,97.5C 89.1621,90.3165 86.3287,83.1498 83.5,76C 88.1565,74.2935 92.4898,72.1269 96.5,69.5 Z"/></g>
<g><path style="opacity:1" fill="#fbfbfb" d="M 128.5,93.5 C 128.5,92.8333 128.5,92.1667 128.5,91.5C 132.236,84.2311 134.903,76.5644 136.5,68.5C 141.127,70.4313 145.794,72.2647 150.5,74C 150.521,83.0497 147.687,91.2163 142,98.5C 137.533,96.6808 133.033,95.0141 128.5,93.5 Z"/></g>
<g><path style="opacity:1" fill="#fefefe" d="M 194.5,170.5 C 194.432,177.233 191.099,181.233 184.5,182.5C 177.08,182.797 169.746,182.464 162.5,181.5C 161.608,175.812 160.608,170.146 159.5,164.5C 165.167,164.5 170.833,164.5 176.5,164.5C 176.5,163.5 176.5,162.5 176.5,161.5C 177.498,131.005 177.831,100.338 177.5,69.5C 183.167,69.5 188.833,69.5 194.5,69.5C 194.5,103.167 194.5,136.833 194.5,170.5 Z"/></g>
<g><path style="opacity:1" fill="#fdfdfd" d="M 382.5,69.5 C 389.167,69.5 395.833,69.5 402.5,69.5C 402.5,74.5 402.5,79.5 402.5,84.5C 415.5,84.5 428.5,84.5 441.5,84.5C 441.5,89.8333 441.5,95.1667 441.5,100.5C 428.167,100.5 414.833,100.5 401.5,100.5C 401.335,104.182 401.501,107.848 402,111.5C 408.21,120.92 410.21,131.253 408,142.5C 403.247,158.75 393.747,171.417 379.5,180.5C 374.792,176.793 370.792,172.46 367.5,167.5C 373.747,163.922 379.08,159.256 383.5,153.5C 366.212,155.057 357.545,146.891 357.5,129C 357.993,112.004 366.66,103.837 383.5,104.5C 383.5,103.5 383.5,102.5 383.5,101.5C 367.834,101.861 352.167,102.194 336.5,102.5C 336.5,96.8333 336.5,91.1667 336.5,85.5C 352.152,84.6806 367.819,84.3473 383.5,84.5C 383.084,79.5068 382.751,74.5068 382.5,69.5 Z"/></g>
<g><path style="opacity:1" fill="#fcfcfc" d="M 515.5,71.5 C 517.288,71.2148 518.955,71.5481 520.5,72.5C 523.747,76.6591 526.747,80.9924 529.5,85.5C 522.015,93.4857 514.348,101.319 506.5,109C 517.737,108.392 528.07,111.059 537.5,117C 547.661,127.163 550.161,138.997 545,152.5C 538.357,167.42 526.857,175.92 510.5,178C 503.5,178.667 496.5,178.667 489.5,178C 481.317,176.135 475.15,171.635 471,164.5C 469.353,151.128 475.187,142.961 488.5,140C 498.645,138.428 507.979,140.428 516.5,146C 518.657,147.981 520.324,150.314 521.5,153C 525.185,151.983 527.685,149.483 529,145.5C 531.126,135.916 527.626,129.416 518.5,126C 509.342,124.907 500.342,125.574 491.5,128C 479.691,134.589 469.358,143.089 460.5,153.5C 456.445,149.734 452.612,145.734 449,141.5C 448.312,140.668 448.479,140.002 449.5,139.5C 466.618,124.551 483.285,109.051 499.5,93C 487.615,94.7828 475.615,95.9495 463.5,96.5C 462.631,91.4871 461.631,86.4871 460.5,81.5C 460.608,80.5581 460.941,79.7247 461.5,79C 479.901,78.318 497.901,75.818 515.5,71.5 Z"/></g>
<g><path style="opacity:1" fill="#fdfdfd" d="M 152.5,74.5 C 158.167,74.5 163.833,74.5 169.5,74.5C 169.5,101.167 169.5,127.833 169.5,154.5C 163.833,154.5 158.167,154.5 152.5,154.5C 152.5,127.833 152.5,101.167 152.5,74.5 Z"/></g>
<g><path style="opacity:1" fill="#797474" d="M 286.5,84.5 C 290.558,88.0529 294.558,91.8862 298.5,96C 291.5,96.6667 284.5,96.6667 277.5,96C 281.503,92.8449 284.503,89.0115 286.5,84.5 Z"/></g>
<g><path style="opacity:1" fill="#9c9999" d="M 194.5,170.5 C 194.5,136.833 194.5,103.167 194.5,69.5C 188.833,69.5 183.167,69.5 177.5,69.5C 177.831,100.338 177.498,131.005 176.5,161.5C 176.5,130.5 176.5,99.5 176.5,68.5C 182.833,68.5 189.167,68.5 195.5,68.5C 195.832,102.671 195.498,136.671 194.5,170.5 Z"/></g>
<g><path style="opacity:1" fill="#cecdcd" d="M 231.5,87.5 C 231.174,95.6841 231.508,103.684 232.5,111.5C 232.5,111.833 232.5,112.167 232.5,112.5C 231.833,135.833 231.167,159.167 230.5,182.5C 230.168,150.662 230.502,118.996 231.5,87.5 Z"/></g>
<g><path style="opacity:1" fill="#787373" d="M 231.5,87.5 C 234.518,87.3354 237.518,87.502 240.5,88C 237.136,95.5914 234.47,103.425 232.5,111.5C 231.508,103.684 231.174,95.6841 231.5,87.5 Z"/></g>
<g><path style="opacity:1" fill="#787373" d="M 266.5,106.5 C 266.5,108.833 266.5,111.167 266.5,113.5C 270.5,113.5 274.5,113.5 278.5,113.5C 278.5,115.167 278.5,116.833 278.5,118.5C 270.5,118.5 262.5,118.5 254.5,118.5C 254.664,121.187 254.497,123.854 254,126.5C 252.848,121.371 251.015,116.538 248.5,112C 249.542,108.373 250.875,104.873 252.5,101.5C 254.171,104.858 255.838,108.192 257.5,111.5C 260.366,109.568 263.366,107.901 266.5,106.5 Z"/></g>
<g><path style="opacity:1" fill="#c7c5c5" d="M 278.5,113.5 C 274.5,113.5 270.5,113.5 266.5,113.5C 266.5,111.167 266.5,108.833 266.5,106.5C 267.513,107.659 267.847,109.659 267.5,112.5C 271.371,112.185 275.038,112.518 278.5,113.5 Z"/></g>
<g><path style="opacity:1" fill="#dad9d9" d="M 126.5,100.5 C 126.833,100.5 127.167,100.5 127.5,100.5C 133.833,100.5 140.167,100.5 146.5,100.5C 146.831,125.672 146.498,150.672 145.5,175.5C 145.5,150.833 145.5,126.167 145.5,101.5C 138.978,101.823 132.645,101.49 126.5,100.5 Z"/></g>
<g><path style="opacity:1" fill="#777272" d="M 106.5,117.5 C 114.167,117.5 121.833,117.5 129.5,117.5C 129.5,119.5 129.5,121.5 129.5,123.5C 121.833,123.5 114.167,123.5 106.5,123.5C 106.5,121.5 106.5,119.5 106.5,117.5 Z"/></g>
<g><path style="opacity:1" fill="#7a7575" d="M 377.5,121.5 C 381.793,120.536 384.96,121.869 387,125.5C 389.145,134.121 385.978,138.288 377.5,138C 376.299,137.097 375.465,135.931 375,134.5C 374.333,130.833 374.333,127.167 375,123.5C 375.995,122.934 376.828,122.267 377.5,121.5 Z"/></g>
<g><path style="opacity:1" fill="#787373" d="M 106.5,136.5 C 114.167,136.5 121.833,136.5 129.5,136.5C 129.5,138.167 129.5,139.833 129.5,141.5C 121.833,141.5 114.167,141.5 106.5,141.5C 106.5,139.833 106.5,138.167 106.5,136.5 Z"/></g>
<g><path style="opacity:1" fill="#fbfbfb" d="M 310.5,138.5 C 311.496,138.414 312.329,138.748 313,139.5C 316.5,149.652 321.666,158.818 328.5,167C 324.012,170.743 319.346,174.243 314.5,177.5C 307.196,168.06 301.863,157.56 298.5,146C 302.367,143.236 306.367,140.736 310.5,138.5 Z"/></g>
<g><path style="opacity:1" fill="#7a7575" d="M 491.5,153.5 C 498.969,151.915 504.302,154.415 507.5,161C 507.095,161.945 506.428,162.612 505.5,163C 500.743,163.81 496.076,163.476 491.5,162C 487.605,159.178 487.605,156.345 491.5,153.5 Z"/></g>
<g><path style="opacity:1" fill="#c1bfbf" d="M 162.5,181.5 C 169.746,182.464 177.08,182.797 184.5,182.5C 181.016,183.165 177.349,183.499 173.5,183.5C 169.435,183.489 165.768,182.822 162.5,181.5 Z"/></g>
</svg>
