<?xml version="1.0" encoding="UTF-8"?>
<!DOCTYPE svg PUBLIC "-//W3C//DTD SVG 1.1//EN" "http://www.w3.org/Graphics/SVG/1.1/DTD/svg11.dtd">
<svg xmlns="http://www.w3.org/2000/svg" version="1.1" width="411px" height="270px" style="shape-rendering:geometricPrecision; text-rendering:geometricPrecision; image-rendering:optimizeQuality; fill-rule:evenodd; clip-rule:evenodd" xmlns:xlink="http://www.w3.org/1999/xlink">
<g><path style="opacity:0.988" fill="#c4dfb3" d="M 40.5,15.5 C 150.501,15.3333 260.501,15.5 370.5,16C 384.667,19.5 393.5,28.3333 397,42.5C 397.667,91.5 397.667,140.5 397,189.5C 393.5,203.667 384.667,212.5 370.5,216C 260.5,216.667 150.5,216.667 40.5,216C 26.3333,212.5 17.5,203.667 14,189.5C 13.3333,140.5 13.3333,91.5 14,42.5C 17.682,28.3189 26.5154,19.3189 40.5,15.5 Z"/></g>
<g><path style="opacity:1" fill="#669901" d="M 41.5,20.5 C 150.501,20.3333 259.501,20.5 368.5,21C 380.568,24.0675 388.401,31.5675 392,43.5C 392.667,91.5 392.667,139.5 392,187.5C 388.833,200 381,207.833 368.5,211C 259.5,211.667 150.5,211.667 41.5,211C 29.5675,207.401 22.0675,199.568 19,187.5C 18.3333,139.5 18.3333,91.5 19,43.5C 22.684,31.9837 30.184,24.3171 41.5,20.5 Z"/></g>
<g><path style="opacity:1" fill="#bbd28e" d="M 277.5,67.5 C 283.979,66.5093 290.646,66.176 297.5,66.5C 297.5,69.8333 297.5,73.1667 297.5,76.5C 296.523,73.7131 296.19,70.7131 296.5,67.5C 290.167,67.5 283.833,67.5 277.5,67.5 Z"/></g>
<g><path style="opacity:1" fill="#fefefd" d="M 96.5,67.5 C 102.167,67.5 107.833,67.5 113.5,67.5C 113.5,75.1667 113.5,82.8333 113.5,90.5C 116.5,90.5 119.5,90.5 122.5,90.5C 122.5,95.8333 122.5,101.167 122.5,106.5C 119.5,106.5 116.5,106.5 113.5,106.5C 113.173,111.214 113.507,115.88 114.5,120.5C 115.833,119.833 117.167,119.167 118.5,118.5C 120.208,123.027 121.541,127.694 122.5,132.5C 122.392,133.442 122.059,134.275 121.5,135C 118.904,136.136 116.237,136.969 113.5,137.5C 113.667,149.838 113.5,162.171 113,174.5C 109.724,180.944 104.39,183.61 97,182.5C 94.245,182.475 91.5783,182.141 89,181.5C 87.4988,176.161 85.9988,170.828 84.5,165.5C 87.7848,164.676 91.1182,164.176 94.5,164C 95,163.5 95.5,163 96,162.5C 96.4995,156.175 96.6662,149.842 96.5,143.5C 93.1667,144.167 89.8333,144.833 86.5,145.5C 85.6405,139.728 84.3071,134.062 82.5,128.5C 86.9536,126.929 91.4536,125.596 96,124.5C 96.4995,118.509 96.6662,112.509 96.5,106.5C 92.1667,106.5 87.8333,106.5 83.5,106.5C 83.5,101.5 83.5,96.5 83.5,91.5C 87.8333,91.5 92.1667,91.5 96.5,91.5C 96.5,83.5 96.5,75.5 96.5,67.5 Z"/></g>
<g><path style="opacity:1" fill="#fdfefd" d="M 277.5,67.5 C 283.833,67.5 290.167,67.5 296.5,67.5C 296.19,70.7131 296.523,73.7131 297.5,76.5C 306.652,77.4936 315.985,77.8269 325.5,77.5C 325.5,82.1667 325.5,86.8333 325.5,91.5C 299.167,91.5 272.833,91.5 246.5,91.5C 246.664,88.8127 246.497,86.146 246,83.5C 244.915,84.2931 243.748,84.9598 242.5,85.5C 241.507,90.1196 241.173,94.7863 241.5,99.5C 245.298,100.483 249.298,100.817 253.5,100.5C 253.5,105.833 253.5,111.167 253.5,116.5C 250.482,116.335 247.482,116.502 244.5,117C 246.833,120 249.167,123 251.5,126C 275.498,126.5 299.498,126.667 323.5,126.5C 323.667,142.837 323.5,159.17 323,175.5C 322.027,179.406 319.527,181.573 315.5,182C 309.843,182.499 304.176,182.666 298.5,182.5C 297.942,178.208 296.942,174.041 295.5,170C 291.848,169.501 288.182,169.335 284.5,169.5C 284.5,171.167 284.5,172.833 284.5,174.5C 280.167,174.5 275.833,174.5 271.5,174.5C 271.5,164.167 271.5,153.833 271.5,143.5C 282.167,143.5 292.833,143.5 303.5,143.5C 303.169,150.863 303.503,158.197 304.5,165.5C 305.086,165.291 305.586,164.957 306,164.5C 306.5,156.173 306.666,147.84 306.5,139.5C 294.167,139.5 281.833,139.5 269.5,139.5C 268.504,153.657 268.171,167.99 268.5,182.5C 262.833,182.5 257.167,182.5 251.5,182.5C 251.827,172.319 251.494,162.319 250.5,152.5C 250.666,148.154 250.499,143.821 250,139.5C 249,142.167 248,144.833 247,147.5C 245.333,145.5 243.667,143.5 242,141.5C 241.5,155.496 241.333,169.496 241.5,183.5C 236.167,183.5 230.833,183.5 225.5,183.5C 225.667,172.828 225.5,162.161 225,151.5C 224.283,152.044 223.783,152.711 223.5,153.5C 222.011,157.145 220.011,160.478 217.5,163.5C 214.695,157.091 211.695,150.758 208.5,144.5C 213.947,135.94 218.614,126.94 222.5,117.5C 218.555,116.509 214.555,116.176 210.5,116.5C 210.5,110.833 210.5,105.167 210.5,99.5C 215.167,99.5 219.833,99.5 224.5,99.5C 224.5,96.8333 224.5,94.1667 224.5,91.5C 221.412,92.0685 218.412,92.0685 215.5,91.5C 213.5,86.8333 211.5,82.1667 209.5,77.5C 220.871,74.9081 231.871,71.2415 242.5,66.5C 245.985,69.484 249.318,72.6507 252.5,76C 260.827,76.4997 269.16,76.6664 277.5,76.5C 277.5,73.5 277.5,70.5 277.5,67.5 Z"/></g>
<g><path style="opacity:1" fill="#fdfdfc" d="M 122.5,106.5 C 126.817,104.347 129.984,101.014 132,96.5C 133.363,88.5705 133.863,80.5705 133.5,72.5C 147.833,72.5 162.167,72.5 176.5,72.5C 176.5,82.1667 176.5,91.8333 176.5,101.5C 178.604,101.799 180.604,101.466 182.5,100.5C 183.439,96.2351 183.772,91.9017 183.5,87.5C 188.462,88.6567 193.462,89.6567 198.5,90.5C 198.183,97.5544 197.35,104.554 196,111.5C 194.833,113.333 193.667,115.167 192.5,117C 183.242,118.584 173.909,118.917 164.5,118C 161.892,116.622 160.392,114.455 160,111.5C 159.5,103.841 159.334,96.1739 159.5,88.5C 156.5,88.5 153.5,88.5 150.5,88.5C 151.085,103.473 145.085,114.806 132.5,122.5C 128.14,117.775 124.807,112.441 122.5,106.5 Z"/></g>
<g><path style="opacity:1" fill="#c7d9a2" d="M 297.5,76.5 C 307.167,76.5 316.833,76.5 326.5,76.5C 326.821,81.6946 326.487,86.6946 325.5,91.5C 325.5,86.8333 325.5,82.1667 325.5,77.5C 315.985,77.8269 306.652,77.4936 297.5,76.5 Z"/></g>
<g><path style="opacity:1" fill="#a4c267" d="M 96.5,67.5 C 96.5,75.5 96.5,83.5 96.5,91.5C 92.1667,91.5 87.8333,91.5 83.5,91.5C 83.5,96.5 83.5,101.5 83.5,106.5C 82.5119,101.36 82.1786,96.0262 82.5,90.5C 86.8333,90.5 91.1667,90.5 95.5,90.5C 95.1746,82.6484 95.508,74.9818 96.5,67.5 Z"/></g>
<g><path style="opacity:1" fill="#fdfefc" d="M 257.5,95.5 C 277.5,95.5 297.5,95.5 317.5,95.5C 317.5,104.5 317.5,113.5 317.5,122.5C 297.5,122.5 277.5,122.5 257.5,122.5C 257.5,113.5 257.5,104.5 257.5,95.5 Z"/></g>
<g><path style="opacity:1" fill="#c5d89e" d="M 241.5,99.5 C 245.833,99.5 250.167,99.5 254.5,99.5C 254.822,105.358 254.489,111.025 253.5,116.5C 253.5,111.167 253.5,105.833 253.5,100.5C 249.298,100.817 245.298,100.483 241.5,99.5 Z"/></g>
<g><path style="opacity:1" fill="#699b0b" d="M 274.5,106.5 C 282.833,106.5 291.167,106.5 299.5,106.5C 299.5,107.833 299.5,109.167 299.5,110.5C 291.167,110.5 282.833,110.5 274.5,110.5C 274.5,109.167 274.5,107.833 274.5,106.5 Z"/></g>
<g><path style="opacity:1" fill="#fdfefc" d="M 178.5,122.5 C 183.675,125.261 188.341,128.761 192.5,133C 188.461,142.92 182.794,151.754 175.5,159.5C 177.336,160.919 179.336,162.086 181.5,163C 187.806,164.461 194.139,165.794 200.5,167C 197.562,172.209 194.895,177.543 192.5,183C 180.679,181.949 169.846,178.115 160,171.5C 151.621,177.075 142.455,180.908 132.5,183C 130.5,183.667 128.5,183.667 126.5,183C 124.105,177.543 121.438,172.209 118.5,167C 123.718,165.539 129.052,164.539 134.5,164C 138.374,163.273 141.707,161.607 144.5,159C 139.226,152.958 134.559,146.458 130.5,139.5C 129.311,138.571 127.978,138.238 126.5,138.5C 126.5,133.5 126.5,128.5 126.5,123.5C 144.008,123.83 161.341,123.497 178.5,122.5 Z"/></g>
<g><path style="opacity:1" fill="#6c9d12" d="M 150.5,138.5 C 156.842,138.334 163.175,138.5 169.5,139C 167.381,143.761 164.215,147.594 160,150.5C 155.639,147.445 152.473,143.445 150.5,138.5 Z"/></g>
<g><path style="opacity:1" fill="#c2d699" d="M 269.5,139.5 C 269.5,154.167 269.5,168.833 269.5,183.5C 263.167,183.5 256.833,183.5 250.5,183.5C 250.5,173.167 250.5,162.833 250.5,152.5C 251.494,162.319 251.827,172.319 251.5,182.5C 257.167,182.5 262.833,182.5 268.5,182.5C 268.171,167.99 268.504,153.657 269.5,139.5 Z"/></g>
<g><path style="opacity:1" fill="#659900" d="M 284.5,153.5 C 286.5,153.5 288.5,153.5 290.5,153.5C 290.5,155.167 290.5,156.833 290.5,158.5C 288.5,158.5 286.5,158.5 284.5,158.5C 284.5,156.833 284.5,155.167 284.5,153.5 Z"/></g>
<g><path style="opacity:1" fill="#cedead" d="M 225.5,183.5 C 224.833,173.5 224.167,163.5 223.5,153.5C 223.783,152.711 224.283,152.044 225,151.5C 225.5,162.161 225.667,172.828 225.5,183.5 Z"/></g>
</svg>
