<?xml version="1.0" encoding="UTF-8"?>
<!DOCTYPE svg PUBLIC "-//W3C//DTD SVG 1.1//EN" "http://www.w3.org/Graphics/SVG/1.1/DTD/svg11.dtd">
<svg xmlns="http://www.w3.org/2000/svg" version="1.1" width="631px" height="270px" style="shape-rendering:geometricPrecision; text-rendering:geometricPrecision; image-rendering:optimizeQuality; fill-rule:evenodd; clip-rule:evenodd" xmlns:xlink="http://www.w3.org/1999/xlink">
<g><path style="opacity:0.995" fill="#a8d08d" d="M 48.5,16.5 C 227.876,16.005 407.209,16.505 586.5,18C 598.51,22.5183 606.01,31.0183 609,43.5C 609.981,92.8788 609.648,142.212 608,191.5C 603.482,203.51 594.982,211.01 582.5,214C 403.124,214.995 223.791,214.662 44.5,213C 32.4904,208.482 24.9904,199.982 22,187.5C 21.3333,139.5 21.3333,91.5 22,43.5C 25.682,29.3189 34.5154,20.3189 48.5,16.5 Z"/></g>
<g><path style="opacity:1" fill="#669902" d="M 49.5,21.5 C 226.834,21.3333 404.167,21.5 581.5,22C 593,25.5 600.5,33 604,44.5C 604.667,91.8333 604.667,139.167 604,186.5C 600.5,198 593,205.5 581.5,209C 404.167,209.667 226.833,209.667 49.5,209C 38,205.5 30.5,198 27,186.5C 26.3333,139.167 26.3333,91.8333 27,44.5C 30.684,32.9837 38.184,25.3171 49.5,21.5 Z"/></g>
<g><path style="opacity:1" fill="#c0d595" d="M 277.5,67.5 C 283.979,66.5093 290.646,66.176 297.5,66.5C 297.5,69.8333 297.5,73.1667 297.5,76.5C 296.523,73.7131 296.19,70.7131 296.5,67.5C 290.167,67.5 283.833,67.5 277.5,67.5 Z"/></g>
<g><path style="opacity:1" fill="#fefefd" d="M 113.5,67.5 C 113.5,75.5 113.5,83.5 113.5,91.5C 116.5,91.5 119.5,91.5 122.5,91.5C 122.5,96.5 122.5,101.5 122.5,106.5C 119.5,106.5 116.5,106.5 113.5,106.5C 113.173,111.214 113.507,115.88 114.5,120.5C 116.059,119.926 117.559,119.26 119,118.5C 121.16,123.934 121.993,129.434 121.5,135C 118.904,136.136 116.237,136.969 113.5,137.5C 113.667,149.838 113.5,162.171 113,174.5C 109.724,180.944 104.39,183.61 97,182.5C 94.245,182.475 91.5783,182.141 89,181.5C 87.8021,176.074 86.3021,170.741 84.5,165.5C 87.7848,164.676 91.1182,164.176 94.5,164C 95,163.5 95.5,163 96,162.5C 96.4995,156.175 96.6662,149.842 96.5,143.5C 93.1667,144.167 89.8333,144.833 86.5,145.5C 85.6765,139.716 84.3432,134.05 82.5,128.5C 87.02,126.857 91.6866,125.857 96.5,125.5C 96.5,119.167 96.5,112.833 96.5,106.5C 92.1667,106.5 87.8333,106.5 83.5,106.5C 83.5,101.167 83.5,95.8333 83.5,90.5C 87.8333,90.5 92.1667,90.5 96.5,90.5C 96.5,82.8333 96.5,75.1667 96.5,67.5C 102.167,67.5 107.833,67.5 113.5,67.5 Z"/></g>
<g><path style="opacity:1" fill="#a1bf62" d="M 113.5,67.5 C 114.492,74.9818 114.825,82.6484 114.5,90.5C 117.5,90.5 120.5,90.5 123.5,90.5C 123.179,95.6946 123.513,100.695 124.5,105.5C 124.158,106.338 123.492,106.672 122.5,106.5C 122.5,101.5 122.5,96.5 122.5,91.5C 119.5,91.5 116.5,91.5 113.5,91.5C 113.5,83.5 113.5,75.5 113.5,67.5 Z"/></g>
<g><path style="opacity:1" fill="#fdfefc" d="M 277.5,67.5 C 283.833,67.5 290.167,67.5 296.5,67.5C 296.19,70.7131 296.523,73.7131 297.5,76.5C 306.652,77.4936 315.985,77.8269 325.5,77.5C 325.5,82.1667 325.5,86.8333 325.5,91.5C 299.5,91.5 273.5,91.5 247.5,91.5C 247.813,88.7531 247.48,86.0865 246.5,83.5C 245.167,84.1667 243.833,84.8333 242.5,85.5C 241.507,90.1196 241.173,94.7863 241.5,99.5C 245.298,100.483 249.298,100.817 253.5,100.5C 253.5,105.833 253.5,111.167 253.5,116.5C 250.482,116.335 247.482,116.502 244.5,117C 246.833,120 249.167,123 251.5,126C 275.831,126.5 300.164,126.667 324.5,126.5C 324.956,143.237 324.456,159.903 323,176.5C 321.52,179.663 319.02,181.496 315.5,182C 309.843,182.499 304.176,182.666 298.5,182.5C 297.962,178.476 297.295,174.476 296.5,170.5C 292.5,170.5 288.5,170.5 284.5,170.5C 284.5,171.833 284.5,173.167 284.5,174.5C 280.167,174.5 275.833,174.5 271.5,174.5C 271.5,164.167 271.5,153.833 271.5,143.5C 282.167,143.5 292.833,143.5 303.5,143.5C 303.169,150.863 303.503,158.197 304.5,165.5C 305.086,165.291 305.586,164.957 306,164.5C 306.5,156.173 306.666,147.84 306.5,139.5C 294.167,139.5 281.833,139.5 269.5,139.5C 268.504,153.657 268.171,167.99 268.5,182.5C 262.833,182.5 257.167,182.5 251.5,182.5C 251.835,166.783 251.502,152.45 250.5,139.5C 249.26,142.024 248.093,144.691 247,147.5C 245.333,145.5 243.667,143.5 242,141.5C 241.5,155.496 241.333,169.496 241.5,183.5C 236.167,183.5 230.833,183.5 225.5,183.5C 225.667,172.828 225.5,162.161 225,151.5C 223.961,152.244 223.461,153.244 223.5,154.5C 222.241,158.025 220.241,161.025 217.5,163.5C 214.595,156.95 211.595,150.45 208.5,144C 214.241,135.752 218.908,126.919 222.5,117.5C 218.555,116.509 214.555,116.176 210.5,116.5C 210.5,111.167 210.5,105.833 210.5,100.5C 215.5,100.5 220.5,100.5 225.5,100.5C 225.81,97.2869 225.477,94.2869 224.5,91.5C 221.412,92.0685 218.412,92.0685 215.5,91.5C 213.5,86.8333 211.5,82.1667 209.5,77.5C 220.968,75.2169 231.968,71.5502 242.5,66.5C 245.985,69.484 249.318,72.6507 252.5,76C 260.827,76.4997 269.16,76.6664 277.5,76.5C 277.5,73.5 277.5,70.5 277.5,67.5 Z"/></g>
<g><path style="opacity:1" fill="#fdfefc" d="M 383.5,69.5 C 389.833,69.5 396.167,69.5 402.5,69.5C 402.5,74.5 402.5,79.5 402.5,84.5C 415.5,84.5 428.5,84.5 441.5,84.5C 441.5,89.8333 441.5,95.1667 441.5,100.5C 428.167,100.5 414.833,100.5 401.5,100.5C 401.335,104.182 401.501,107.848 402,111.5C 409.166,123.081 410.5,135.415 406,148.5C 401.006,162.329 392.172,172.996 379.5,180.5C 375.528,176.193 371.528,171.859 367.5,167.5C 374.134,163.529 379.801,158.529 384.5,152.5C 367.039,155.754 358.039,148.087 357.5,129.5C 357.925,111.737 366.925,103.404 384.5,104.5C 384.5,103.5 384.5,102.5 384.5,101.5C 368.5,101.833 352.5,102.167 336.5,102.5C 336.5,96.8333 336.5,91.1667 336.5,85.5C 352.173,85.4193 367.84,85.086 383.5,84.5C 383.5,79.5 383.5,74.5 383.5,69.5 Z"/></g>
<g><path style="opacity:1" fill="#fdfdfc" d="M 122.5,106.5 C 123.492,106.672 124.158,106.338 124.5,105.5C 128.281,102.625 131.114,98.9585 133,94.5C 133.5,87.1742 133.666,79.8409 133.5,72.5C 147.833,72.5 162.167,72.5 176.5,72.5C 176.5,82.1667 176.5,91.8333 176.5,101.5C 178.604,101.799 180.604,101.466 182.5,100.5C 183.439,96.2351 183.772,91.9017 183.5,87.5C 188.462,88.6567 193.462,89.6567 198.5,90.5C 198.257,96.184 197.757,101.851 197,107.5C 196.436,111.127 194.936,114.293 192.5,117C 183.268,118.611 173.935,118.945 164.5,118C 162.19,116.363 160.69,114.196 160,111.5C 159.5,103.841 159.334,96.1739 159.5,88.5C 156.5,88.5 153.5,88.5 150.5,88.5C 151.285,103.604 145.285,114.937 132.5,122.5C 128.14,117.775 124.807,112.441 122.5,106.5 Z"/></g>
<g><path style="opacity:1" fill="#fdfdfb" d="M 516.5,71.5 C 517.978,71.238 519.311,71.5713 520.5,72.5C 523.747,76.6591 526.747,80.9924 529.5,85.5C 522.015,93.4857 514.348,101.319 506.5,109C 517.737,108.392 528.07,111.059 537.5,117C 550.563,132.543 550.73,148.377 538,164.5C 524.121,176.682 507.954,181.182 489.5,178C 485.047,176.274 480.714,174.274 476.5,172C 468.103,162.087 468.77,152.754 478.5,144C 491.543,137.619 504.209,138.285 516.5,146C 518.167,148.333 519.833,150.667 521.5,153C 524.46,152.394 526.627,150.561 528,147.5C 531.272,131.919 524.772,124.253 508.5,124.5C 501.904,124.899 495.571,126.399 489.5,129C 478.31,135.276 468.643,143.443 460.5,153.5C 457.009,149.875 453.509,146.209 450,142.5C 449.333,141.5 449.333,140.5 450,139.5C 466.802,124.366 483.302,108.866 499.5,93C 487.531,94.1619 475.531,95.3286 463.5,96.5C 462.116,90.9114 461.116,85.2448 460.5,79.5C 474.196,78.3861 487.863,76.8861 501.5,75C 506.781,74.4616 511.781,73.295 516.5,71.5 Z"/></g>
<g><path style="opacity:1" fill="#cbdca8" d="M 297.5,76.5 C 307.167,76.5 316.833,76.5 326.5,76.5C 326.821,81.6946 326.487,86.6946 325.5,91.5C 325.5,86.8333 325.5,82.1667 325.5,77.5C 315.985,77.8269 306.652,77.4936 297.5,76.5 Z"/></g>
<g><path style="opacity:1" fill="#fdfefd" d="M 257.5,95.5 C 277.5,95.5 297.5,95.5 317.5,95.5C 317.5,104.5 317.5,113.5 317.5,122.5C 297.5,122.5 277.5,122.5 257.5,122.5C 257.5,113.5 257.5,104.5 257.5,95.5 Z"/></g>
<g><path style="opacity:1" fill="#bdd390" d="M 224.5,91.5 C 225.477,94.2869 225.81,97.2869 225.5,100.5C 220.5,100.5 215.5,100.5 210.5,100.5C 214.97,99.5139 219.637,99.1805 224.5,99.5C 224.5,96.8333 224.5,94.1667 224.5,91.5 Z"/></g>
<g><path style="opacity:1" fill="#d0e0b0" d="M 241.5,99.5 C 245.833,99.5 250.167,99.5 254.5,99.5C 254.822,105.358 254.489,111.025 253.5,116.5C 253.5,111.167 253.5,105.833 253.5,100.5C 249.298,100.817 245.298,100.483 241.5,99.5 Z"/></g>
<g><path style="opacity:1" fill="#659900" d="M 275.5,106.5 C 283.5,106.5 291.5,106.5 299.5,106.5C 299.5,107.833 299.5,109.167 299.5,110.5C 291.5,110.5 283.5,110.5 275.5,110.5C 275.5,109.167 275.5,107.833 275.5,106.5 Z"/></g>
<g><path style="opacity:1" fill="#6d9d15" d="M 379.5,120.5 C 384.669,121.122 387.336,124.122 387.5,129.5C 387.111,137.936 383.278,140.269 376,136.5C 374.466,132.289 374.133,127.956 375,123.5C 376.409,122.219 377.909,121.219 379.5,120.5 Z"/></g>
<g><path style="opacity:1" fill="#fdfefc" d="M 179.5,122.5 C 184.201,125.521 188.534,129.021 192.5,133C 188.461,142.92 182.794,151.754 175.5,159.5C 177.336,160.919 179.336,162.086 181.5,163C 187.801,164.492 194.135,165.825 200.5,167C 197.833,172.333 195.167,177.667 192.5,183C 180.746,181.97 169.913,178.136 160,171.5C 151.61,177.078 142.443,180.911 132.5,183C 130.5,183.667 128.5,183.667 126.5,183C 124.105,177.543 121.438,172.209 118.5,167C 123.718,165.539 129.052,164.539 134.5,164C 138.378,162.986 142.044,161.486 145.5,159.5C 139.443,153.718 134.609,147.051 131,139.5C 129.644,138.62 128.144,138.286 126.5,138.5C 126.5,133.5 126.5,128.5 126.5,123.5C 144.341,123.83 162.008,123.497 179.5,122.5 Z"/></g>
<g><path style="opacity:1" fill="#6c9c10" d="M 150.5,138.5 C 156.842,138.334 163.175,138.5 169.5,139C 167.381,143.761 164.215,147.594 160,150.5C 155.639,147.445 152.473,143.445 150.5,138.5 Z"/></g>
<g><path style="opacity:1" fill="#659900" d="M 284.5,153.5 C 286.5,153.5 288.5,153.5 290.5,153.5C 290.5,155.167 290.5,156.833 290.5,158.5C 288.5,158.5 286.5,158.5 284.5,158.5C 284.5,156.833 284.5,155.167 284.5,153.5 Z"/></g>
<g><path style="opacity:1" fill="#6b9c10" d="M 491.5,153.5 C 499.095,151.583 504.428,154.083 507.5,161C 507.095,161.945 506.428,162.612 505.5,163C 500.743,163.81 496.076,163.476 491.5,162C 487.605,159.178 487.605,156.345 491.5,153.5 Z"/></g>
<g><path style="opacity:1" fill="#c8daa3" d="M 269.5,139.5 C 269.5,154.167 269.5,168.833 269.5,183.5C 263.167,183.5 256.833,183.5 250.5,183.5C 250.5,168.833 250.5,154.167 250.5,139.5C 251.502,152.45 251.835,166.783 251.5,182.5C 257.167,182.5 262.833,182.5 268.5,182.5C 268.171,167.99 268.504,153.657 269.5,139.5 Z"/></g>
<g><path style="opacity:1" fill="#b9d08b" d="M 225.5,183.5 C 224.833,173.833 224.167,164.167 223.5,154.5C 223.461,153.244 223.961,152.244 225,151.5C 225.5,162.161 225.667,172.828 225.5,183.5 Z"/></g>
</svg>
