<?xml version="1.0" encoding="UTF-8"?>
<!DOCTYPE svg PUBLIC "-//W3C//DTD SVG 1.1//EN" "http://www.w3.org/Graphics/SVG/1.1/DTD/svg11.dtd">
<svg xmlns="http://www.w3.org/2000/svg" version="1.1" width="353px" height="232px" style="shape-rendering:geometricPrecision; text-rendering:geometricPrecision; image-rendering:optimizeQuality; fill-rule:evenodd; clip-rule:evenodd" xmlns:xlink="http://www.w3.org/1999/xlink">
<g><path style="opacity:0.998" fill="#679903" d="M 42.5,6.5 C 131.834,6.33334 221.167,6.5 310.5,7C 323.333,10.5 331.5,18.6667 335,31.5C 335.667,76.8333 335.667,122.167 335,167.5C 331.5,180.333 323.333,188.5 310.5,192C 221.167,192.667 131.833,192.667 42.5,192C 29.6667,188.5 21.5,180.333 18,167.5C 17.3333,122.167 17.3333,76.8333 18,31.5C 21.6829,18.6514 29.8496,10.3181 42.5,6.5 Z"/></g>
<g><path style="opacity:1" fill="#fdfefc" d="M 239.5,54.5 C 245.598,53.8833 251.265,54.55 256.5,56.5C 256.5,58.1667 256.5,59.8333 256.5,61.5C 265.133,60.6228 273.8,60.2895 282.5,60.5C 282.5,64.1667 282.5,67.8333 282.5,71.5C 275.646,71.176 268.979,71.5093 262.5,72.5C 246.647,72.4837 230.981,74.1503 215.5,77.5C 215.5,73.1667 215.5,68.8333 215.5,64.5C 213.738,64.3573 212.071,64.6906 210.5,65.5C 208.977,71.0613 208.31,76.728 208.5,82.5C 211.5,82.5 214.5,82.5 217.5,82.5C 217.5,86.5 217.5,90.5 217.5,94.5C 215.143,94.3367 212.81,94.5034 210.5,95C 213.333,97.8333 216.167,100.667 219,103.5C 219.265,105.163 218.765,106.663 217.5,108C 233.663,107.134 249.829,105.968 266,104.5C 269.167,104.667 272.333,104.833 275.5,105C 277.848,105.346 279.681,106.513 281,108.5C 282.633,123.407 282.967,138.407 282,153.5C 281.065,156.102 279.232,157.602 276.5,158C 270.833,158.667 265.167,158.667 259.5,158C 258.274,154.157 256.941,150.323 255.5,146.5C 259.107,145.511 262.774,145.177 266.5,145.5C 266.5,135.5 266.5,125.5 266.5,115.5C 255.192,116.764 243.859,117.764 232.5,118.5C 231.833,131.833 231.167,145.167 230.5,158.5C 225.5,158.5 220.5,158.5 215.5,158.5C 215.667,143.496 215.5,128.496 215,113.5C 214.252,115.332 213.252,116.999 212,118.5C 210.667,117.167 209.333,115.833 208,114.5C 207.5,129.163 207.333,143.83 207.5,158.5C 201.833,158.5 196.167,158.5 190.5,158.5C 190.666,148.161 190.5,137.828 190,127.5C 187.752,130.328 185.752,133.328 184,136.5C 181.697,132.061 179.53,127.561 177.5,123C 180.963,114.408 184.963,106.074 189.5,98C 185.506,98.1637 181.506,98.6637 177.5,99.5C 177.334,94.8215 177.501,90.1548 178,85.5C 182.733,84.387 187.566,83.7204 192.5,83.5C 192.936,79.089 192.936,74.7556 192.5,70.5C 189.221,72.2808 185.888,72.9475 182.5,72.5C 180.551,67.9896 179.218,63.3229 178.5,58.5C 189.72,57.2543 200.886,55.5876 212,53.5C 212.833,53.8333 213.667,54.1667 214.5,54.5C 215.74,57.3934 217.074,60.2267 218.5,63C 225.493,63.1076 232.493,62.941 239.5,62.5C 239.5,59.8333 239.5,57.1667 239.5,54.5 Z"/></g>
<g><path style="opacity:1" fill="#b4cd82" d="M 239.5,54.5 C 245.31,53.5104 251.31,53.1771 257.5,53.5C 257.737,54.791 257.404,55.791 256.5,56.5C 251.265,54.55 245.598,53.8833 239.5,54.5 Z"/></g>
<g><path style="opacity:1" fill="#fcfdfb" d="M 99.5,66.5 C 98.5184,69.9619 98.185,73.6286 98.5,77.5C 101.833,77.5 105.167,77.5 108.5,77.5C 108.5,81.5 108.5,85.5 108.5,89.5C 105.167,89.5 101.833,89.5 98.5,89.5C 98.1774,93.226 98.5108,96.8927 99.5,100.5C 101.642,99.3995 103.808,98.3995 106,97.5C 106.829,102.533 106.662,107.533 105.5,112.5C 103.417,113.959 101.25,115.292 99,116.5C 98.6667,127.5 98.3333,138.5 98,149.5C 97.3936,152.548 95.8936,155.048 93.5,157C 87.6594,158.951 81.6594,159.784 75.5,159.5C 74.5402,153.787 72.8735,148.287 70.5,143C 74.4862,142.501 78.4862,142.334 82.5,142.5C 82.666,137.156 82.4994,131.823 82,126.5C 79.2995,128.269 76.4662,129.602 73.5,130.5C 72.4379,125.314 70.7712,120.314 68.5,115.5C 72.674,112.912 77.0074,110.579 81.5,108.5C 82.4954,102.872 82.8288,97.2055 82.5,91.5C 78.1311,91.4672 73.7978,91.8005 69.5,92.5C 69.5,87.8333 69.5,83.1667 69.5,78.5C 74.1925,78.4599 78.8592,78.1266 83.5,77.5C 83.5,69.8333 83.5,62.1667 83.5,54.5C 88.8333,54.5 94.1667,54.5 99.5,54.5C 99.5,58.5 99.5,62.5 99.5,66.5 Z"/></g>
<g><path style="opacity:1" fill="#fdfdfb" d="M 135.5,54.5 C 155.809,51.1412 163.809,59.4746 159.5,79.5C 163.833,79.5 168.167,79.5 172.5,79.5C 172.5,84.1667 172.5,88.8333 172.5,93.5C 164.519,94.4433 156.519,94.61 148.5,94C 146.19,92.3626 144.69,90.196 144,87.5C 143.5,81.1754 143.334,74.8421 143.5,68.5C 139.167,68.5 134.833,68.5 130.5,68.5C 129.704,77.8485 128.704,87.1818 127.5,96.5C 121.748,95.7829 116.081,94.6162 110.5,93C 112.763,80.8492 115.097,68.6825 117.5,56.5C 123.678,56.1558 129.678,55.4891 135.5,54.5 Z"/></g>
<g><path style="opacity:1" fill="#d3e2b7" d="M 282.5,60.5 C 283.483,64.2984 283.817,68.2984 283.5,72.5C 276.5,72.5 269.5,72.5 262.5,72.5C 268.979,71.5093 275.646,71.176 282.5,71.5C 282.5,67.8333 282.5,64.1667 282.5,60.5 Z"/></g>
<g><path style="opacity:1" fill="#fcfdfa" d="M 257.5,74.5 C 263.279,73.708 268.446,75.0414 273,78.5C 273.862,80.087 274.529,81.7536 275,83.5C 275.499,89.1569 275.666,94.8236 275.5,100.5C 258.851,102.054 242.185,103.387 225.5,104.5C 225.448,95.4818 225.782,86.4818 226.5,77.5C 237.025,76.9952 247.358,75.9952 257.5,74.5 Z"/></g>
<g><path style="opacity:1" fill="#c5d89f" d="M 99.5,66.5 C 99.5,69.8333 99.5,73.1667 99.5,76.5C 102.713,76.19 105.713,76.5233 108.5,77.5C 105.167,77.5 101.833,77.5 98.5,77.5C 98.185,73.6286 98.5184,69.9619 99.5,66.5 Z"/></g>
<g><path style="opacity:1" fill="#6e9e16" d="M 241.5,85.5 C 247.167,85.5 252.833,85.5 258.5,85.5C 258.5,87.1667 258.5,88.8333 258.5,90.5C 252.5,91.1667 246.5,91.8333 240.5,92.5C 240.298,90.0504 240.631,87.717 241.5,85.5 Z"/></g>
<g><path style="opacity:1" fill="#fdfdfc" d="M 113.5,99.5 C 130.503,99.3334 147.503,99.5001 164.5,100C 168.277,102.911 169.444,106.744 168,111.5C 163.649,119.521 158.149,126.688 151.5,133C 159.036,137.263 166.37,141.763 173.5,146.5C 169.667,150.833 165.833,155.167 162,159.5C 155.262,154.426 148.262,149.759 141,145.5C 136.535,149.635 132.368,154.135 128.5,159C 122.789,157.338 117.456,154.672 112.5,151C 116.513,146.322 120.513,141.655 124.5,137C 121.527,134.509 118.194,132.509 114.5,131C 112.993,130.163 112.493,128.996 113,127.5C 115.675,123.995 118.509,120.661 121.5,117.5C 126.167,119.833 130.833,122.167 135.5,124.5C 138.379,120.576 141.379,116.743 144.5,113C 133.79,112.505 123.124,113.005 112.5,114.5C 112.503,109.473 112.836,104.473 113.5,99.5 Z"/></g>
<g><path style="opacity:1" fill="#fcfdfa" d="M 242.5,120.5 C 248.176,120.334 253.843,120.501 259.5,121C 263.386,122.937 265.053,126.103 264.5,130.5C 263.918,134.818 263.585,139.151 263.5,143.5C 253.757,143.927 244.091,144.927 234.5,146.5C 234.833,138.5 235.167,130.5 235.5,122.5C 238.067,122.279 240.401,121.612 242.5,120.5 Z"/></g>
<g><path style="opacity:1" fill="#6d9d14" d="M 245.5,129.5 C 247.833,129.5 250.167,129.5 252.5,129.5C 252.5,131.167 252.5,132.833 252.5,134.5C 250.139,134.674 247.806,135.007 245.5,135.5C 245.5,133.5 245.5,131.5 245.5,129.5 Z"/></g>
</svg>
