<?xml version="1.0" encoding="UTF-8"?>
<!DOCTYPE svg PUBLIC "-//W3C//DTD SVG 1.1//EN" "http://www.w3.org/Graphics/SVG/1.1/DTD/svg11.dtd">
<svg xmlns="http://www.w3.org/2000/svg" version="1.1" width="549px" height="232px" style="shape-rendering:geometricPrecision; text-rendering:geometricPrecision; image-rendering:optimizeQuality; fill-rule:evenodd; clip-rule:evenodd" xmlns:xlink="http://www.w3.org/1999/xlink">
<g><path style="opacity:0.999" fill="#669902" d="M 46.5,6.5 C 198.5,6.33333 350.5,6.5 502.5,7C 515.333,10.5 523.5,18.6667 527,31.5C 527.667,76.8333 527.667,122.167 527,167.5C 523.5,180.333 515.333,188.5 502.5,192C 350.5,192.667 198.5,192.667 46.5,192C 33.6667,188.5 25.5,180.333 22,167.5C 21.3333,122.167 21.3333,76.8333 22,31.5C 25.6829,18.6514 33.8496,10.3181 46.5,6.5 Z"/></g>
<g><path style="opacity:1" fill="#fdfdfb" d="M 212.5,81.5 C 214.167,81.5 215.833,81.5 217.5,81.5C 217.5,85.5 217.5,89.5 217.5,93.5C 215.143,93.3367 212.81,93.5034 210.5,94C 213.522,97.0218 216.522,100.022 219.5,103C 219.097,104.473 218.43,105.806 217.5,107C 233.663,106.134 249.829,104.968 266,103.5C 273.924,101.79 279.591,104.457 283,111.5C 283.167,118 283.333,124.5 283.5,131C 289.082,152.911 281.082,161.411 259.5,156.5C 258.24,152.619 256.907,148.786 255.5,145C 259.152,144.501 262.818,144.335 266.5,144.5C 266.5,134.5 266.5,124.5 266.5,114.5C 255.225,115.277 244.058,116.61 233,118.5C 232.24,131.514 231.407,144.514 230.5,157.5C 225.833,157.5 221.167,157.5 216.5,157.5C 216.667,142.163 216.5,126.83 216,111.5C 215.283,112.044 214.783,112.711 214.5,113.5C 213.308,118.098 211.641,118.431 209.5,114.5C 209.44,113.957 209.107,113.624 208.5,113.5C 207.501,128.152 207.167,142.818 207.5,157.5C 201.833,157.5 196.167,157.5 190.5,157.5C 190.666,147.161 190.5,136.828 190,126.5C 187.752,129.328 185.752,132.328 184,135.5C 182.107,130.713 179.94,126.047 177.5,121.5C 181.644,113.379 185.644,105.213 189.5,97C 186.132,96.9495 182.798,97.4495 179.5,98.5C 178.506,93.544 178.173,88.544 178.5,83.5C 183.507,83.2491 188.507,82.9157 193.5,82.5C 193.826,78.1161 193.492,73.7828 192.5,69.5C 189.273,70.9094 185.94,71.9094 182.5,72.5C 181.674,68.1869 180.34,64.0202 178.5,60C 178.645,59.228 178.978,58.5613 179.5,58C 190.197,56.3296 200.864,54.4963 211.5,52.5C 212.5,52.8333 213.5,53.1667 214.5,53.5C 215.833,56.1667 217.167,58.8333 218.5,61.5C 225.512,62.7209 232.512,62.7209 239.5,61.5C 239.5,58.8333 239.5,56.1667 239.5,53.5C 245.5,53.5 251.5,53.5 257.5,53.5C 257.007,55.8056 256.674,58.139 256.5,60.5C 265.467,59.6175 274.467,59.2841 283.5,59.5C 283.5,63.5 283.5,67.5 283.5,71.5C 270.496,71.3334 257.496,71.5001 244.5,72C 234.791,72.942 225.291,74.7753 216,77.5C 215.501,72.8452 215.334,68.1785 215.5,63.5C 213.738,63.3573 212.071,63.6906 210.5,64.5C 209.505,70.1278 209.171,75.7945 209.5,81.5C 210.5,81.5 211.5,81.5 212.5,81.5 Z"/></g>
<g><path style="opacity:1" fill="#fdfdfc" d="M 99.5,70.5 C 98.5386,72.2646 98.2053,74.2646 98.5,76.5C 101.833,76.5 105.167,76.5 108.5,76.5C 108.5,80.5 108.5,84.5 108.5,88.5C 105.167,88.5 101.833,88.5 98.5,88.5C 98.1774,92.226 98.5108,95.8927 99.5,99.5C 101.642,98.3995 103.808,97.3995 106,96.5C 106.667,101.5 106.667,106.5 106,111.5C 103.75,112.708 101.583,114.041 99.5,115.5C 98.9188,127.875 98.0855,140.208 97,152.5C 95.3626,154.81 93.196,156.31 90.5,157C 85.89,158.29 81.2233,158.624 76.5,158C 74.1287,152.719 72.4621,147.219 71.5,141.5C 75.1667,141.5 78.8333,141.5 82.5,141.5C 82.666,136.156 82.4994,130.823 82,125.5C 79.5514,127.146 77.0514,128.313 74.5,129C 71.58,124.103 70.2467,118.936 70.5,113.5C 74.4121,111.628 78.2454,109.628 82,107.5C 82.4994,101.843 82.6661,96.1764 82.5,90.5C 78.1578,90.7395 73.8244,91.0728 69.5,91.5C 69.5,86.8333 69.5,82.1667 69.5,77.5C 74.1925,77.4599 78.8592,77.1266 83.5,76.5C 83.5,68.8333 83.5,61.1667 83.5,53.5C 88.8333,53.5 94.1667,53.5 99.5,53.5C 99.5,59.1667 99.5,64.8333 99.5,70.5 Z"/></g>
<g><path style="opacity:1" fill="#fcfdfb" d="M 136.5,53.5 C 141.511,53.3341 146.511,53.5007 151.5,54C 153.746,55.0395 155.913,56.2062 158,57.5C 159.425,64.3846 159.925,71.3846 159.5,78.5C 164.167,78.5 168.833,78.5 173.5,78.5C 172.771,83.1304 172.437,87.7971 172.5,92.5C 167.68,92.9306 162.847,93.264 158,93.5C 151.225,95.1127 146.558,92.7794 144,86.5C 143.5,80.1754 143.334,73.8421 143.5,67.5C 139.167,67.5 134.833,67.5 130.5,67.5C 129.499,76.8405 128.499,86.1739 127.5,95.5C 121.748,94.7829 116.081,93.6162 110.5,92C 113.021,79.896 115.354,67.7293 117.5,55.5C 124.05,55.5459 130.383,54.8792 136.5,53.5 Z"/></g>
<g><path style="opacity:1" fill="#fdfdfb" d="M 339.5,58.5 C 346.167,58.5 352.833,58.5 359.5,58.5C 359.5,63.5 359.5,68.5 359.5,73.5C 367.15,74.1433 374.817,74.4766 382.5,74.5C 382.5,78.5 382.5,82.5 382.5,86.5C 374.833,86.5 367.167,86.5 359.5,86.5C 359.334,92.8421 359.5,99.1754 360,105.5C 367.821,117.96 367.154,129.96 358,141.5C 353.826,147.081 348.826,151.747 343,155.5C 337.105,152.803 331.272,149.969 325.5,147C 333.024,142.31 339.024,136.143 343.5,128.5C 343.167,128.167 342.833,127.833 342.5,127.5C 331.179,139.773 317.845,142.606 302.5,136C 287.921,122.69 287.921,109.357 302.5,96C 314.616,89.6281 327.116,88.7948 340,93.5C 340.497,91.1902 340.663,88.8568 340.5,86.5C 322.981,86.437 305.648,88.1037 288.5,91.5C 288.5,85.8333 288.5,80.1667 288.5,74.5C 305.853,74.2214 323.186,73.5547 340.5,72.5C 340.167,67.8333 339.833,63.1667 339.5,58.5 Z"/></g>
<g><path style="opacity:1" fill="#fdfefc" d="M 433.5,58.5 C 441.174,58.3336 448.841,58.5003 456.5,59C 458.286,59.7845 459.786,60.9512 461,62.5C 461.767,66.5935 461.434,70.5935 460,74.5C 454.437,79.363 448.604,83.863 442.5,88C 471.376,86.28 482.543,99.4466 476,127.5C 470.035,140.789 459.868,148.956 445.5,152C 436.159,155.332 426.825,155.332 417.5,152C 405.422,146.105 402.255,136.938 408,124.5C 416.738,114.81 427.571,111.31 440.5,114C 447.372,115.37 452.372,119.203 455.5,125.5C 461.666,119.492 462,113.159 456.5,106.5C 452.943,103.307 448.777,101.974 444,102.5C 428.058,104.815 413.392,110.481 400,119.5C 395.973,114.306 392.14,108.973 388.5,103.5C 402.996,93.7509 417.663,84.2509 432.5,75C 422.514,75.9255 412.514,77.0922 402.5,78.5C 402.5,72.8333 402.5,67.1667 402.5,61.5C 413.015,60.8757 423.348,59.8757 433.5,58.5 Z"/></g>
<g><path style="opacity:1" fill="#fcfdfb" d="M 255.5,73.5 C 259.846,73.3343 264.179,73.501 268.5,74C 271.728,75.5629 273.895,78.0629 275,81.5C 275.499,87.4908 275.666,93.4908 275.5,99.5C 258.853,101.022 242.186,102.356 225.5,103.5C 225.966,94.5061 226.3,85.5061 226.5,76.5C 236.395,76.3172 246.061,75.3172 255.5,73.5 Z"/></g>
<g><path style="opacity:1" fill="#cfdfaf" d="M 99.5,70.5 C 99.5,72.1667 99.5,73.8333 99.5,75.5C 102.713,75.19 105.713,75.5233 108.5,76.5C 105.167,76.5 101.833,76.5 98.5,76.5C 98.2053,74.2646 98.5386,72.2646 99.5,70.5 Z"/></g>
<g><path style="opacity:1" fill="#b2cc80" d="M 212.5,81.5 C 214.265,80.5386 216.265,80.2053 218.5,80.5C 218.818,85.0323 218.485,89.3656 217.5,93.5C 217.5,89.5 217.5,85.5 217.5,81.5C 215.833,81.5 214.167,81.5 212.5,81.5 Z"/></g>
<g><path style="opacity:1" fill="#6d9d14" d="M 241.5,84.5 C 247.167,84.5 252.833,84.5 258.5,84.5C 258.5,86.1667 258.5,87.8333 258.5,89.5C 252.521,90.3307 246.521,90.9973 240.5,91.5C 240.674,89.139 241.007,86.8056 241.5,84.5 Z"/></g>
<g><path style="opacity:1" fill="#fcfdfb" d="M 147.5,97.5 C 153.245,97.2111 158.912,97.7111 164.5,99C 168.557,100.947 170.057,104.114 169,108.5C 164.736,117.44 158.903,125.274 151.5,132C 159.036,136.263 166.37,140.763 173.5,145.5C 170.285,149.427 166.951,153.26 163.5,157C 161.711,157.52 160.044,157.187 158.5,156C 152.736,152.036 146.902,148.203 141,144.5C 136.358,148.976 131.858,153.643 127.5,158.5C 123.167,156 118.833,153.5 114.5,151C 113.549,150.282 113.383,149.449 114,148.5C 117.717,144.238 121.55,140.072 125.5,136C 120.999,133.584 116.666,130.917 112.5,128C 115.149,123.856 118.149,120.022 121.5,116.5C 126.167,118.833 130.833,121.167 135.5,123.5C 138.379,119.576 141.379,115.743 144.5,112C 133.784,111.424 123.118,111.924 112.5,113.5C 112.503,108.473 112.836,103.473 113.5,98.5C 125.012,98.8281 136.346,98.4948 147.5,97.5 Z"/></g>
<g><path style="opacity:1" fill="#6a9b0e" d="M 314.5,105.5 C 320.7,105.016 326.7,105.849 332.5,108C 333.554,109.388 333.72,110.888 333,112.5C 329.04,119.228 323.207,122.395 315.5,122C 308.034,116.959 307.701,111.459 314.5,105.5 Z"/></g>
<g><path style="opacity:1" fill="#fdfdfc" d="M 242.5,119.5 C 248.176,119.334 253.843,119.501 259.5,120C 263.84,122.353 265.507,126.02 264.5,131C 264.243,134.848 263.909,138.682 263.5,142.5C 253.769,142.98 244.103,143.98 234.5,145.5C 235.224,137.521 235.558,129.521 235.5,121.5C 238.067,121.279 240.401,120.612 242.5,119.5 Z"/></g>
<g><path style="opacity:1" fill="#72a121" d="M 250.5,128.5 C 252.256,129.552 252.923,131.219 252.5,133.5C 250.139,133.674 247.806,134.007 245.5,134.5C 245.5,132.5 245.5,130.5 245.5,128.5C 247.167,128.5 248.833,128.5 250.5,128.5 Z"/></g>
<g><path style="opacity:1" fill="#adc876" d="M 250.5,128.5 C 251.209,127.596 252.209,127.263 253.5,127.5C 253.795,129.735 253.461,131.735 252.5,133.5C 252.923,131.219 252.256,129.552 250.5,128.5 Z"/></g>
<g><path style="opacity:1" fill="#6e9e16" d="M 427.5,127.5 C 434.101,126.63 438.767,129.13 441.5,135C 440.318,136.735 438.651,137.735 436.5,138C 433.167,138.667 429.833,138.667 426.5,138C 424.673,137.101 423.34,135.767 422.5,134C 423.283,131.062 424.95,128.896 427.5,127.5 Z"/></g>
<g><path style="opacity:1" fill="#d2e0b3" d="M 209.5,114.5 C 208.833,128.833 208.167,143.167 207.5,157.5C 207.167,142.818 207.501,128.152 208.5,113.5C 209.107,113.624 209.44,113.957 209.5,114.5 Z"/></g>
<g><path style="opacity:1" fill="#d4e2b8" d="M 216.5,157.5 C 215.833,142.833 215.167,128.167 214.5,113.5C 214.783,112.711 215.283,112.044 216,111.5C 216.5,126.83 216.667,142.163 216.5,157.5 Z"/></g>
</svg>
