<?xml version="1.0" encoding="UTF-8"?>
<!DOCTYPE svg PUBLIC "-//W3C//DTD SVG 1.1//EN" "http://www.w3.org/Graphics/SVG/1.1/DTD/svg11.dtd">
<svg xmlns="http://www.w3.org/2000/svg" version="1.1" width="1265px" height="232px" style="shape-rendering:geometricPrecision; text-rendering:geometricPrecision; image-rendering:optimizeQuality; fill-rule:evenodd; clip-rule:evenodd" xmlns:xlink="http://www.w3.org/1999/xlink">
<g><path style="opacity:1" fill="#beb64a" d="M 39.5,6.5 C 434.5,6.33333 829.5,6.5 1224.5,7C 1237.33,10.5 1245.5,18.6667 1249,31.5C 1249.67,76.8333 1249.67,122.167 1249,167.5C 1245.5,180.333 1237.33,188.5 1224.5,192C 829.5,192.667 434.5,192.667 39.5,192C 26.6667,188.5 18.5,180.333 15,167.5C 14.3333,122.167 14.3333,76.8333 15,31.5C 18.6829,18.6514 26.8496,10.3181 39.5,6.5 Z"/></g>
<g><path style="opacity:1" fill="#fefefc" d="M 355.5,54.5 C 358.5,54.5 361.5,54.5 364.5,54.5C 364.5,57.8333 364.5,61.1667 364.5,64.5C 373.801,63.6126 383.134,63.2792 392.5,63.5C 392.5,67.5 392.5,71.5 392.5,75.5C 386.824,75.3339 381.157,75.5006 375.5,76C 377.717,77.2684 379.717,78.7684 381.5,80.5C 377.721,83.8965 373.721,87.0631 369.5,90C 376.982,93.8302 384.482,97.6635 392,101.5C 392.163,107.039 391.663,112.539 390.5,118C 390.167,118.5 389.833,119 389.5,119.5C 388.5,118.833 387.5,118.167 386.5,117.5C 386.167,118.167 385.833,118.833 385.5,119.5C 387.021,132.456 388.021,145.456 388.5,158.5C 383.167,158.5 377.833,158.5 372.5,158.5C 372.563,153.797 372.229,149.13 371.5,144.5C 362.482,144.448 353.482,144.782 344.5,145.5C 344.5,150.167 344.5,154.833 344.5,159.5C 338.5,159.5 332.5,159.5 326.5,159.5C 327.373,146.168 327.873,132.835 328,119.5C 326.663,120.765 325.163,121.265 323.5,121C 320.353,117.019 317.02,113.186 313.5,109.5C 322.044,104.068 330.377,98.4011 338.5,92.5C 334.013,89.8363 329.68,87.003 325.5,84C 325.759,82.7387 326.426,81.7387 327.5,81C 324.174,80.8281 320.841,80.9947 317.5,81.5C 317.5,76.5 317.5,71.5 317.5,66.5C 327.483,65.6861 337.483,65.0194 347.5,64.5C 347.5,61.5 347.5,58.5 347.5,55.5C 350.385,55.8064 353.052,55.4731 355.5,54.5 Z"/></g>
<g><path style="opacity:1" fill="#d2cc82" d="M 644.5,55.5 C 651.313,54.5088 658.313,54.1755 665.5,54.5C 665.81,57.7131 665.477,60.7131 664.5,63.5C 664.5,60.8333 664.5,58.1667 664.5,55.5C 657.833,55.5 651.167,55.5 644.5,55.5 Z"/></g>
<g><path style="opacity:1" fill="#fefefc" d="M 162.5,142.5 C 165.625,143.479 168.958,143.813 172.5,143.5C 172.5,147.5 172.5,151.5 172.5,155.5C 137.669,154.287 103.002,155.953 68.5,160.5C 68.5,154.833 68.5,149.167 68.5,143.5C 77.1667,143.5 85.8333,143.5 94.5,143.5C 94.5,140.167 94.5,136.833 94.5,133.5C 90.1667,133.5 85.8333,133.5 81.5,133.5C 82.0478,125.284 83.0478,117.117 84.5,109C 84.1667,108.167 83.8333,107.333 83.5,106.5C 82.3801,107.833 81.0468,108.333 79.5,108C 75.2002,104.702 71.2002,101.035 67.5,97C 72.8333,93 78.1667,89 83.5,85C 78.5,81.3333 73.5,77.6667 68.5,74C 71.8909,70.2317 75.7242,67.065 80,64.5C 85.5977,67.7613 90.931,71.428 96,75.5C 98.5,73.6667 101,71.8333 103.5,70C 99.4761,69.5027 95.4761,69.6693 91.5,70.5C 91.1975,65.57 91.5308,60.7367 92.5,56C 97.8333,55.8333 103.167,55.6667 108.5,55.5C 114.911,55.3968 121.244,55.8968 127.5,57C 129.074,58.8259 129.907,60.9925 130,63.5C 130.689,64.3567 131.522,65.0233 132.5,65.5C 135.902,62.0899 139.569,59.0899 143.5,56.5C 147.657,57.7749 151.657,59.4415 155.5,61.5C 156.521,62.0016 156.688,62.6683 156,63.5C 152.5,67 149,70.5 145.5,74C 146,74.5 146.5,75 147,75.5C 151.015,71.3179 155.182,67.3179 159.5,63.5C 163.5,65.5 167.5,67.5 171.5,69.5C 172.521,70.0016 172.688,70.6683 172,71.5C 167.66,75.0095 163.493,78.6762 159.5,82.5C 164.024,86.5247 168.357,90.6914 172.5,95C 170.014,100.145 166.68,104.645 162.5,108.5C 156.234,104.403 150.4,99.7366 145,94.5C 144.517,95.448 144.351,96.448 144.5,97.5C 131.991,97.4619 119.491,97.7952 107,98.5C 102.74,98.4605 98.74,97.7939 95,96.5C 93.1266,98.7089 90.96,100.542 88.5,102C 107.83,101.572 127.163,101.238 146.5,101C 151.549,102.717 155.382,105.884 158,110.5C 159.377,117.076 159.877,123.743 159.5,130.5C 156.813,130.336 154.146,130.503 151.5,131C 149.291,134.586 146.957,138.086 144.5,141.5C 150.463,142.496 156.463,142.829 162.5,142.5 Z"/></g>
<g><path style="opacity:1" fill="#fefdfc" d="M 225.5,57.5 C 237.42,56.5214 249.42,56.1881 261.5,56.5C 266.688,56.498 270.188,58.8313 272,63.5C 272.5,73.5097 272.333,83.5097 271.5,93.5C 275.167,93.5 278.833,93.5 282.5,93.5C 282.5,97.8333 282.5,102.167 282.5,106.5C 275.167,106.5 267.833,106.5 260.5,106.5C 260.183,109.572 260.516,112.572 261.5,115.5C 265.142,113.025 268.642,110.358 272,107.5C 275.682,111.015 279.182,114.682 282.5,118.5C 278.538,121.488 274.538,124.488 270.5,127.5C 273.863,132.209 277.696,136.542 282,140.5C 281.51,144.835 279.843,148.835 277,152.5C 276.28,154.255 275.113,155.089 273.5,155C 269.212,149.59 265.045,144.09 261,138.5C 260.667,143.167 260.333,147.833 260,152.5C 257.874,156.816 254.374,158.983 249.5,159C 245.167,159.667 240.833,159.667 236.5,159C 234.866,154.598 233.533,150.098 232.5,145.5C 229.167,146.5 225.833,147.5 222.5,148.5C 222.143,144.737 221.31,141.07 220,137.5C 219.502,140.482 219.335,143.482 219.5,146.5C 206.574,150.531 193.741,154.864 181,159.5C 179.711,153.679 178.544,147.846 177.5,142C 182.708,140.198 188.041,139.031 193.5,138.5C 193.664,135.813 193.497,133.146 193,130.5C 188.969,136.109 184.302,136.776 179,132.5C 175.611,123.076 178.778,118.243 188.5,118C 190.552,118.93 192.052,120.43 193,122.5C 193.497,119.854 193.664,117.187 193.5,114.5C 188.482,114.613 183.482,114.947 178.5,115.5C 178.5,110.5 178.5,105.5 178.5,100.5C 184.167,100.5 189.833,100.5 195.5,100.5C 195.5,98.5 195.5,96.5 195.5,94.5C 190.819,94.6686 186.152,95.0019 181.5,95.5C 183.67,86.3243 182.337,77.8243 177.5,70C 183.833,65.6667 190.167,61.3333 196.5,57C 201.657,54.8319 206.657,55.1652 211.5,58C 216,61.8333 220.5,65.6667 225,69.5C 225.499,65.5138 225.666,61.5138 225.5,57.5 Z"/></g>
<g><path style="opacity:1" fill="#ece9ca" d="M 261.5,56.5 C 249.42,56.1881 237.42,56.5214 225.5,57.5C 231.128,56.1707 237.128,55.504 243.5,55.5C 249.676,55.5005 255.676,55.8338 261.5,56.5 Z"/></g>
<g><path style="opacity:1" fill="#fefdfc" d="M 644.5,55.5 C 651.167,55.5 657.833,55.5 664.5,55.5C 664.5,58.1667 664.5,60.8333 664.5,63.5C 664.5,64.8333 664.5,66.1667 664.5,67.5C 678.5,67.5 692.5,67.5 706.5,67.5C 705.947,72.482 705.613,77.482 705.5,82.5C 687.5,82.5 669.5,82.5 651.5,82.5C 651.167,84.5 650.833,86.5 650.5,88.5C 649.596,89.209 649.263,90.209 649.5,91.5C 656.833,91.5 664.167,91.5 671.5,91.5C 682.289,90.7878 688.455,95.7878 690,106.5C 690.667,119.833 690.667,133.167 690,146.5C 687.297,155.542 681.13,159.709 671.5,159C 667.129,159.828 662.795,159.661 658.5,158.5C 656.296,152.595 653.963,146.762 651.5,141C 657.825,140.5 664.158,140.334 670.5,140.5C 670.278,129.496 669.944,118.496 669.5,107.5C 660.871,107.173 652.371,107.84 644,109.5C 639.34,125.808 634.84,142.142 630.5,158.5C 623.515,157.422 616.848,155.422 610.5,152.5C 617.781,129.992 624.448,107.325 630.5,84.5C 620.838,85.2328 611.172,85.8995 601.5,86.5C 601.9,80.171 602.233,73.8376 602.5,67.5C 616.503,67.2824 630.503,66.9491 644.5,66.5C 644.5,62.8333 644.5,59.1667 644.5,55.5 Z"/></g>
<g><path style="opacity:1" fill="#fdfdfb" d="M 299.5,56.5 C 308.429,54.7848 313.762,58.2848 315.5,67C 314.592,75.469 309.926,78.469 301.5,76C 295.673,72.8672 293.507,68.0339 295,61.5C 296.707,59.9625 298.207,58.2959 299.5,56.5 Z"/></g>
<g><path style="opacity:1" fill="#fefefc" d="M 978.5,68.5 C 979.429,72.2843 980.762,75.951 982.5,79.5C 985.446,80.3211 988.446,80.3211 991.5,79.5C 991.665,82.8499 991.498,86.1832 991,89.5C 979.588,111.326 967.921,132.993 956,154.5C 955.439,155.022 954.772,155.355 954,155.5C 948.109,153.138 942.275,150.638 936.5,148C 948.34,127.989 959.674,107.656 970.5,87C 960.014,86.7906 949.681,87.9572 939.5,90.5C 934.628,101.076 929.628,111.576 924.5,122C 918.197,120.673 912.197,118.339 906.5,115C 914.852,94.4479 925.352,75.2813 938,57.5C 943.165,59.2776 948.332,60.9443 953.5,62.5C 953.219,64.9628 952.219,67.1295 950.5,69C 958.147,68.8347 965.814,68.3347 973.5,67.5C 975.258,67.5916 976.924,67.925 978.5,68.5 Z"/></g>
<g><path style="opacity:1" fill="#fdfcf9" d="M 996.5,56.5 C 1000.01,61.0096 1002.67,66.1763 1004.5,72C 1002,74.7809 998.997,75.6142 995.5,74.5C 993.5,69.5 991.5,64.5 989.5,59.5C 992,58.6411 994.333,57.6411 996.5,56.5 Z"/></g>
<g><path style="opacity:1" fill="#fefdfb" d="M 1112.5,58.5 C 1124.8,64.0677 1136.97,70.0677 1149,76.5C 1145.74,82.9808 1141.91,89.3141 1137.5,95.5C 1126.08,88.3744 1114.58,81.3744 1103,74.5C 1102.68,73.0922 1103.02,71.7589 1104,70.5C 1107.47,66.88 1110.3,62.88 1112.5,58.5 Z"/></g>
<g><path style="opacity:1" fill="#fefefc" d="M 717.5,59.5 C 723.167,59.5 728.833,59.5 734.5,59.5C 730.103,90.9969 728.436,122.664 729.5,154.5C 723.474,154.051 717.474,153.385 711.5,152.5C 711.397,121.35 713.397,90.3499 717.5,59.5 Z"/></g>
<g><path style="opacity:1" fill="#fefefc" d="M 793.5,78.5 C 797.634,79.4849 801.968,79.8182 806.5,79.5C 806.5,83.8333 806.5,88.1667 806.5,92.5C 800.833,92.5 795.167,92.5 789.5,92.5C 789.19,95.7131 789.523,98.7131 790.5,101.5C 790.5,103.5 790.5,105.5 790.5,107.5C 795.862,107.472 801.195,107.806 806.5,108.5C 806.5,114.5 806.5,120.5 806.5,126.5C 801.516,125.725 796.516,125.058 791.5,124.5C 789.709,151.743 775.709,160.91 749.5,152C 736.295,141.838 734.128,129.671 743,115.5C 751.097,106.132 761.264,102.799 773.5,105.5C 773.5,101.833 773.5,98.1667 773.5,94.5C 760.844,95.6654 748.178,96.6654 735.5,97.5C 735.5,91.5 735.5,85.5 735.5,79.5C 747.192,79.6049 758.858,79.1049 770.5,78C 768.949,71.9519 767.949,65.7853 767.5,59.5C 773.5,59.5 779.5,59.5 785.5,59.5C 786.608,65.8138 787.608,72.1471 788.5,78.5C 790.167,78.5 791.833,78.5 793.5,78.5 Z"/></g>
<g><path style="opacity:1" fill="#fefefd" d="M 1065.5,150.5 C 1064.57,151.568 1064.23,152.901 1064.5,154.5C 1058.17,154.5 1051.83,154.5 1045.5,154.5C 1045.5,151.833 1045.5,149.167 1045.5,146.5C 1045.83,135.817 1046.5,125.15 1047.5,114.5C 1047.17,112.167 1046.83,109.833 1046.5,107.5C 1036.83,115.5 1027.17,123.5 1017.5,131.5C 1013.09,125.693 1009.42,119.36 1006.5,112.5C 1031.01,92.9868 1056.84,75.3202 1084,59.5C 1089.41,62.9054 1094.24,67.0721 1098.5,72C 1088.33,78.8333 1078.17,85.6667 1068,92.5C 1067,111.829 1066.17,131.163 1065.5,150.5 Z"/></g>
<g><path style="opacity:1" fill="#fefdfc" d="M 424.5,59.5 C 434.655,57.3803 443.155,60.047 450,67.5C 451.093,71.2164 451.593,75.0497 451.5,79C 451.219,84.8415 450.886,90.6748 450.5,96.5C 455.82,97.2393 461.154,97.906 466.5,98.5C 467.002,88.488 467.668,78.488 468.5,68.5C 474.377,69.4431 480.211,70.4431 486,71.5C 485.429,80.4774 484.596,89.4774 483.5,98.5C 483.833,100.167 484.167,101.833 484.5,103.5C 488.048,104.97 491.715,105.97 495.5,106.5C 494.606,112.196 493.606,117.863 492.5,123.5C 488.167,122.167 483.833,120.833 479.5,119.5C 478.015,131.258 476.015,142.924 473.5,154.5C 466.936,154.129 460.602,152.796 454.5,150.5C 457.429,138.616 460.429,126.782 463.5,115C 458.547,113.84 453.547,113.007 448.5,112.5C 447.082,123.256 443.582,133.256 438,142.5C 426.229,155.363 414.229,155.696 402,143.5C 394.837,125.982 398.67,111.482 413.5,100C 419.184,97.2457 425.184,95.7457 431.5,95.5C 431.303,89.4549 431.637,83.4549 432.5,77.5C 422.175,79.496 411.842,81.496 401.5,83.5C 401.623,76.4707 401.29,69.4707 400.5,62.5C 408.766,62.5613 416.766,61.5613 424.5,59.5 Z"/></g>
<g><path style="opacity:1" fill="#fcfcf7" d="M 989.5,77.5 C 987.545,78.3235 985.545,78.4901 983.5,78C 982.105,74.6116 980.438,71.4449 978.5,68.5C 978.414,66.323 977.747,64.323 976.5,62.5C 979.756,61.0194 983.089,60.186 986.5,60C 989.121,65.3604 991.455,70.8604 993.5,76.5C 992.311,77.4287 990.978,77.762 989.5,77.5 Z"/></g>
<g><path style="opacity:1" fill="#fefdfc" d="M 543.5,61.5 C 571.811,59.9959 588.978,72.9959 595,100.5C 597.296,121.789 590.463,139.455 574.5,153.5C 569.31,149.142 563.977,144.976 558.5,141C 574.492,131.287 580.659,117.12 577,98.5C 571.298,82.0589 559.798,75.5589 542.5,79C 522.071,87.0235 514.905,101.524 521,122.5C 522.599,124.036 524.433,124.536 526.5,124C 538.914,116.254 549.414,106.421 558,94.5C 562.467,97.9651 566.633,101.798 570.5,106C 560.078,121.09 547.078,133.423 531.5,143C 514.337,148.872 504.504,142.705 502,124.5C 498.377,91.6947 512.211,70.6947 543.5,61.5 Z"/></g>
<g><path style="opacity:1" fill="#fefdfc" d="M 854.5,62.5 C 866.618,61.927 878.618,62.7603 890.5,65C 895.432,67.6857 898.265,71.8523 899,77.5C 900.397,101.148 901.23,124.815 901.5,148.5C 871.758,147.791 842.092,148.791 812.5,151.5C 813.723,123.161 815.056,94.8273 816.5,66.5C 829.34,65.4886 842.006,64.1553 854.5,62.5 Z"/></g>
<g><path style="opacity:1" fill="#c0b851" d="M 236.5,68.5 C 242.5,68.5 248.5,68.5 254.5,68.5C 254.5,70.5 254.5,72.5 254.5,74.5C 245.833,74.5 237.167,74.5 228.5,74.5C 228.5,78.8333 228.5,83.1667 228.5,87.5C 237.152,86.8539 245.818,86.5205 254.5,86.5C 254.5,88.8333 254.5,91.1667 254.5,93.5C 243.833,93.5 233.167,93.5 222.5,93.5C 222.5,98.8333 222.5,104.167 222.5,109.5C 224.199,109.34 225.866,109.506 227.5,110C 225.116,112.379 223.616,115.213 223,118.5C 219.43,114.468 215.096,113.468 210,115.5C 209.517,114.552 209.351,113.552 209.5,112.5C 213.167,112.5 216.833,112.5 220.5,112.5C 221.08,108.19 221.414,103.857 221.5,99.5C 217.833,99.5 214.167,99.5 210.5,99.5C 210.5,97.5 210.5,95.5 210.5,93.5C 213.833,93.5 217.167,93.5 220.5,93.5C 220.5,89.5 220.5,85.5 220.5,81.5C 209.495,81.6665 198.495,81.4998 187.5,81C 192.068,77.1328 196.901,73.6328 202,70.5C 206.022,74.0233 210.189,77.3566 214.5,80.5C 218.019,77.1465 221.686,73.9798 225.5,71C 229.28,70.082 232.946,69.2487 236.5,68.5 Z"/></g>
<g><path style="opacity:1" fill="#c0b850" d="M 119.5,77.5 C 124.499,79.6404 129.166,82.4738 133.5,86C 125.167,86.6667 116.833,86.6667 108.5,86C 112.597,83.6304 116.264,80.7971 119.5,77.5 Z"/></g>
<g><path style="opacity:1" fill="#c4bc5b" d="M 356.5,76.5 C 359.187,76.3359 361.854,76.5026 364.5,77C 361.399,78.9665 358.232,80.7998 355,82.5C 352.177,81.0168 349.343,79.5168 346.5,78C 350.025,77.8213 353.359,77.3213 356.5,76.5 Z"/></g>
<g><path style="opacity:1" fill="#d0c97b" d="M 978.5,68.5 C 980.438,71.4449 982.105,74.6116 983.5,78C 985.545,78.4901 987.545,78.3235 989.5,77.5C 990.167,78.1667 990.833,78.8333 991.5,79.5C 988.446,80.3211 985.446,80.3211 982.5,79.5C 980.762,75.951 979.429,72.2843 978.5,68.5 Z"/></g>
<g><path style="opacity:1" fill="#beb64c" d="M 867.5,80.5 C 871.5,80.5 875.5,80.5 879.5,80.5C 880.289,97.1544 880.622,113.821 880.5,130.5C 864.5,130.5 848.5,130.5 832.5,130.5C 833.537,114.833 834.537,99.1664 835.5,83.5C 846.378,83.2042 857.044,82.2042 867.5,80.5 Z"/></g>
<g><path style="opacity:1" fill="#fdfcf9" d="M 293.5,84.5 C 304.331,83.1712 309.497,87.8379 309,98.5C 303.434,106.818 297.101,107.485 290,100.5C 286.129,94.0204 287.295,88.6871 293.5,84.5 Z"/></g>
<g><path style="opacity:1" fill="#d7d393" d="M 650.5,88.5 C 657.274,90.1514 664.274,91.1514 671.5,91.5C 664.167,91.5 656.833,91.5 649.5,91.5C 649.263,90.209 649.596,89.209 650.5,88.5 Z"/></g>
<g><path style="opacity:1" fill="#edebce" d="M 793.5,78.5 C 798.167,78.5 802.833,78.5 807.5,78.5C 807.5,83.5 807.5,88.5 807.5,93.5C 801.833,93.5 796.167,93.5 790.5,93.5C 790.5,96.1667 790.5,98.8333 790.5,101.5C 789.523,98.7131 789.19,95.7131 789.5,92.5C 795.167,92.5 800.833,92.5 806.5,92.5C 806.5,88.1667 806.5,83.8333 806.5,79.5C 801.968,79.8182 797.634,79.4849 793.5,78.5 Z"/></g>
<g><path style="opacity:1" fill="#fefdfc" d="M 1185.5,91.5 C 1189.06,96.939 1192.39,102.606 1195.5,108.5C 1170.25,124.709 1145.08,141.042 1120,157.5C 1116,152.167 1112,146.833 1108,141.5C 1107.33,140.5 1107.33,139.5 1108,138.5C 1133.81,122.682 1159.65,107.015 1185.5,91.5 Z"/></g>
<g><path style="opacity:1" fill="#c0b84f" d="M 353.5,100.5 C 358.859,102.012 363.859,104.346 368.5,107.5C 369.466,109.396 369.799,111.396 369.5,113.5C 361.149,113.482 352.816,113.815 344.5,114.5C 344.192,112.076 344.526,109.743 345.5,107.5C 348.239,105.149 350.905,102.816 353.5,100.5 Z"/></g>
<g><path style="opacity:1" fill="#c2ba55" d="M 238.5,107.5 C 240.167,107.5 241.833,107.5 243.5,107.5C 243.828,112.875 243.495,118.208 242.5,123.5C 241.549,124.326 240.549,124.492 239.5,124C 244.096,117.914 243.096,112.914 236.5,109C 237.416,108.722 238.082,108.222 238.5,107.5 Z"/></g>
<g><path style="opacity:1" fill="#c0b851" d="M 123.5,111.5 C 128.167,111.5 132.833,111.5 137.5,111.5C 137.5,113.833 137.5,116.167 137.5,118.5C 126.174,119.033 114.841,119.366 103.5,119.5C 103.5,117.5 103.5,115.5 103.5,113.5C 110.346,113.182 117.013,112.515 123.5,111.5 Z"/></g>
<g><path style="opacity:1" fill="#c0b851" d="M 423.5,112.5 C 425.5,112.5 427.5,112.5 429.5,112.5C 428.941,118.734 427.441,124.734 425,130.5C 421.146,135.757 417.479,135.757 414,130.5C 413.238,122.356 416.404,116.356 423.5,112.5 Z"/></g>
<g><path style="opacity:1" fill="#fdfdfb" d="M 300.5,113.5 C 305.445,114.987 310.445,116.32 315.5,117.5C 313.443,131.866 310.11,145.866 305.5,159.5C 300.552,157.846 295.552,156.346 290.5,155C 289.941,154.275 289.608,153.442 289.5,152.5C 293.326,139.525 296.993,126.525 300.5,113.5 Z"/></g>
<g><path style="opacity:1" fill="#c2ba56" d="M 223.5,122.5 C 227.476,126.331 232.142,127.498 237.5,126C 232.053,127.89 226.72,130.057 221.5,132.5C 217.516,131.781 213.683,132.448 210,134.5C 209.192,132.421 209.359,130.421 210.5,128.5C 217.17,131.666 221.504,129.666 223.5,122.5 Z"/></g>
<g><path style="opacity:1" fill="#c0b851" d="M 762.5,121.5 C 766.5,121.5 770.5,121.5 774.5,121.5C 775.633,135.21 769.633,140.377 756.5,137C 753.025,129.775 755.025,124.608 762.5,121.5 Z"/></g>
<g><path style="opacity:1" fill="#bfb74c" d="M 354.5,125.5 C 359.833,125.5 365.167,125.5 370.5,125.5C 370.5,127.5 370.5,129.5 370.5,131.5C 361.822,131.584 353.155,131.917 344.5,132.5C 344.5,130.5 344.5,128.5 344.5,126.5C 348.042,126.813 351.375,126.479 354.5,125.5 Z"/></g>
<g><path style="opacity:1" fill="#c0b850" d="M 113.5,130.5 C 119.206,130.171 124.872,130.505 130.5,131.5C 128.833,134.833 127.167,138.167 125.5,141.5C 121.217,142.492 116.884,142.826 112.5,142.5C 112.646,138.481 112.979,134.481 113.5,130.5 Z"/></g>
<g><path style="opacity:1" fill="#c2bb57" d="M 242.5,138.5 C 243.434,139.568 243.768,140.901 243.5,142.5C 241.143,142.663 238.81,142.497 236.5,142C 238.727,141.059 240.727,139.892 242.5,138.5 Z"/></g>
<g><path style="opacity:1" fill="#e2dfaf" d="M 162.5,142.5 C 166.167,142.5 169.833,142.5 173.5,142.5C 173.818,147.032 173.485,151.366 172.5,155.5C 172.5,151.5 172.5,147.5 172.5,143.5C 168.958,143.813 165.625,143.479 162.5,142.5 Z"/></g>
<g><path style="opacity:1" fill="#e0dca9" d="M 1045.5,146.5 C 1045.5,149.167 1045.5,151.833 1045.5,154.5C 1051.83,154.5 1058.17,154.5 1064.5,154.5C 1064.23,152.901 1064.57,151.568 1065.5,150.5C 1065.5,152.167 1065.5,153.833 1065.5,155.5C 1058.5,155.5 1051.5,155.5 1044.5,155.5C 1044.19,152.287 1044.52,149.287 1045.5,146.5 Z"/></g>
</svg>
