<?xml version="1.0" encoding="UTF-8"?>
<!DOCTYPE svg PUBLIC "-//W3C//DTD SVG 1.1//EN" "http://www.w3.org/Graphics/SVG/1.1/DTD/svg11.dtd">
<svg xmlns="http://www.w3.org/2000/svg" version="1.1" width="1249px" height="232px" style="shape-rendering:geometricPrecision; text-rendering:geometricPrecision; image-rendering:optimizeQuality; fill-rule:evenodd; clip-rule:evenodd" xmlns:xlink="http://www.w3.org/1999/xlink">
<g><path style="opacity:0.996" fill="#cfcdcd" d="M 40.5,1.5 C 429.833,1.33333 819.167,1.5 1208.5,2C 1222.67,5.5 1231.5,14.3333 1235,28.5C 1235.67,76.1667 1235.67,123.833 1235,171.5C 1231.5,185.667 1222.67,194.5 1208.5,198C 819.167,198.667 429.833,198.667 40.5,198C 27.9406,195.108 19.4406,187.608 15,175.5C 13.8519,150.381 13.3519,125.214 13.5,100C 13.3519,74.7859 13.8519,49.6192 15,24.5C 19.6148,12.3788 28.1148,4.71211 40.5,1.5 Z"/></g>
<g><path style="opacity:1" fill="#beb64a" d="M 42.5,6.5 C 430.5,6.33333 818.5,6.5 1206.5,7C 1219.04,10.2021 1226.87,18.0354 1230,30.5C 1230.67,76.8333 1230.67,123.167 1230,169.5C 1226.83,182 1219,189.833 1206.5,193C 818.5,193.667 430.5,193.667 42.5,193C 30.0354,189.869 22.2021,182.035 19,169.5C 18.8333,146.333 18.6667,123.167 18.5,100C 18.3524,75.4524 18.8524,50.9524 20,26.5C 24.2763,16.0492 31.7763,9.38249 42.5,6.5 Z"/></g>
<g><path style="opacity:1" fill="#fcfcf8" d="M 988.5,55.5 C 992.298,58.7961 995.964,62.2961 999.5,66C 996.971,68.0285 994.304,69.8619 991.5,71.5C 988.152,68.1486 985.152,64.4819 982.5,60.5C 984.544,58.7806 986.544,57.1139 988.5,55.5 Z"/></g>
<g><path style="opacity:1" fill="#fcfcf8" d="M 973.5,55.5 C 976.935,59.4379 980.602,63.2712 984.5,67C 982.067,68.6324 979.567,70.1324 977,71.5C 972.846,68.6791 969.346,65.1791 966.5,61C 969.266,59.629 971.599,57.7957 973.5,55.5 Z"/></g>
<g><path style="opacity:1" fill="#fefdfc" d="M 152.5,102.5 C 148.9,100.08 145.4,97.4138 142,94.5C 141.506,96.1341 141.34,97.8008 141.5,99.5C 127.167,99.5 112.833,99.5 98.5,99.5C 98.762,98.0222 98.4287,96.6888 97.5,95.5C 90.973,101.105 83.6396,104.439 75.5,105.5C 73.7737,101.047 71.7737,96.7136 69.5,92.5C 74.6467,91.732 79.3134,89.8987 83.5,87C 80.8333,85 78.1667,83 75.5,81C 77.5,79 79.5,77 81.5,75C 79.5273,74.5045 77.5273,74.3379 75.5,74.5C 75.5,70.1667 75.5,65.8333 75.5,61.5C 88.7461,61.8227 101.913,61.4894 115,60.5C 117.549,63.765 119.716,67.265 121.5,71C 118.781,76.8863 114.781,81.7196 109.5,85.5C 108.711,85.7828 108.044,86.2828 107.5,87C 116.186,87.8319 124.853,87.6652 133.5,86.5C 133.376,85.8933 133.043,85.56 132.5,85.5C 126.397,78.628 122.397,70.628 120.5,61.5C 124.539,60.376 128.539,59.0426 132.5,57.5C 134.253,60.0048 135.753,62.6714 137,65.5C 139.277,62.6009 141.777,59.9342 144.5,57.5C 148.167,60 151.833,62.5 155.5,65C 152.049,68.7398 148.715,72.5732 145.5,76.5C 146.365,77.5827 147.365,77.7494 148.5,77C 151.313,73.3528 154.313,69.8528 157.5,66.5C 161.309,69.1421 164.976,71.9754 168.5,75C 165.167,79 161.833,83 158.5,87C 162.557,90.4112 167.224,92.5778 172.5,93.5C 169.607,97.9521 167.274,102.619 165.5,107.5C 160.815,106.654 156.481,104.987 152.5,102.5 Z"/></g>
<g><path style="opacity:1" fill="#fefdfc" d="M 328.5,128.5 C 329.817,122.322 329.817,115.988 328.5,109.5C 327.893,109.624 327.56,109.957 327.5,110.5C 324.57,111.299 321.57,111.632 318.5,111.5C 318.345,108.391 317.678,105.391 316.5,102.5C 313.757,105.654 311.257,108.988 309,112.5C 303.732,107.784 297.899,103.951 291.5,101C 293.709,97.414 296.043,93.914 298.5,90.5C 304.755,91.0402 310.255,93.7068 315,98.5C 321.939,96.6401 329.106,95.1401 336.5,94C 337.672,93.5814 338.672,92.9147 339.5,92C 334.884,89.7177 331.217,86.3844 328.5,82C 324.579,81.797 320.745,81.297 317,80.5C 316.059,82.0614 314.892,83.3947 313.5,84.5C 307.099,79.6148 300.933,74.9482 295,70.5C 298.009,66.6606 301.176,62.9939 304.5,59.5C 308.633,61.8021 312.633,64.3021 316.5,67C 326.494,67.4998 336.494,67.6665 346.5,67.5C 346.5,64.1667 346.5,60.8333 346.5,57.5C 351.5,57.5 356.5,57.5 361.5,57.5C 361.5,60.8333 361.5,64.1667 361.5,67.5C 371.167,67.5 380.833,67.5 390.5,67.5C 390.5,72.1667 390.5,76.8333 390.5,81.5C 387.482,81.3354 384.482,81.502 381.5,82C 377.5,85.3333 373.5,88.6667 369.5,92C 376.654,95.8516 384.321,97.3516 392.5,96.5C 391.238,101.283 389.572,105.95 387.5,110.5C 385.599,111.231 383.599,111.231 381.5,110.5C 381.5,125.833 381.5,141.167 381.5,156.5C 376.5,156.5 371.5,156.5 366.5,156.5C 366.5,150.833 366.5,145.167 366.5,139.5C 358.826,139.334 351.159,139.5 343.5,140C 340.875,147.112 336.875,153.279 331.5,158.5C 326.443,155.645 321.777,152.312 317.5,148.5C 323.271,142.956 326.937,136.29 328.5,128.5 Z"/></g>
<g><path style="opacity:1" fill="#fefefd" d="M 709.5,86.5 C 690.5,86.5 671.5,86.5 652.5,86.5C 652.185,90.3714 652.518,94.0381 653.5,97.5C 668.833,97.5 684.167,97.5 699.5,97.5C 699.23,113.945 697.73,130.278 695,146.5C 693.885,151.245 691.052,154.412 686.5,156C 678.5,156.667 670.5,156.667 662.5,156C 660.66,151.313 659.327,146.48 658.5,141.5C 664.842,141.666 671.175,141.5 677.5,141C 678.333,140.167 679.167,139.333 680,138.5C 681.751,129.578 682.917,120.578 683.5,111.5C 672.833,111.5 662.167,111.5 651.5,111.5C 649.634,132.193 639.801,147.86 622,158.5C 618.425,154.347 615.091,150.014 612,145.5C 618.087,140.427 624.087,134.76 630,128.5C 636.162,115.212 638.662,101.212 637.5,86.5C 628.833,86.5 620.167,86.5 611.5,86.5C 611.5,81.8333 611.5,77.1667 611.5,72.5C 625.167,72.5 638.833,72.5 652.5,72.5C 652.5,67.5 652.5,62.5 652.5,57.5C 657.833,57.5 663.167,57.5 668.5,57.5C 668.5,62.5 668.5,67.5 668.5,72.5C 682.167,72.5 695.833,72.5 709.5,72.5C 709.5,77.1667 709.5,81.8333 709.5,86.5 Z"/></g>
<g><path style="opacity:1" fill="#fefefc" d="M 218.5,89.5 C 218.44,88.9569 218.107,88.6236 217.5,88.5C 216.534,90.396 216.201,92.396 216.5,94.5C 214.265,94.2053 212.265,94.5386 210.5,95.5C 210.5,97.5 210.5,99.5 210.5,101.5C 213.833,101.5 217.167,101.5 220.5,101.5C 220.5,98.1667 220.5,94.8333 220.5,91.5C 232.167,91.5 243.833,91.5 255.5,91.5C 255.5,90.5 255.5,89.5 255.5,88.5C 246.5,88.5 237.5,88.5 228.5,88.5C 228.5,84.5 228.5,80.5 228.5,76.5C 237.5,76.5 246.5,76.5 255.5,76.5C 255.5,75.5 255.5,74.5 255.5,73.5C 246.014,72.5062 236.348,72.1729 226.5,72.5C 226.5,68.5 226.5,64.5 226.5,60.5C 241.167,60.5 255.833,60.5 270.5,60.5C 270.5,71.1667 270.5,81.8333 270.5,92.5C 273.5,92.5 276.5,92.5 279.5,92.5C 279.5,97.1667 279.5,101.833 279.5,106.5C 271.826,106.334 264.159,106.5 256.5,107C 257.358,109.882 258.858,112.382 261,114.5C 263.382,111.781 266.049,109.447 269,107.5C 272.327,109.995 275.493,112.662 278.5,115.5C 275.727,119.777 272.393,123.61 268.5,127C 272.649,132.316 277.315,137.149 282.5,141.5C 279.75,145.332 277.25,149.332 275,153.5C 274.282,154.451 273.449,154.617 272.5,154C 266.491,148.138 261.324,141.638 257,134.5C 256.667,140.167 256.333,145.833 256,151.5C 255.535,152.931 254.701,154.097 253.5,155C 247.285,156.416 240.952,156.916 234.5,156.5C 233.777,152.263 232.443,148.263 230.5,144.5C 227.849,146.65 225.349,148.983 223,151.5C 221.874,150.056 220.374,149.39 218.5,149.5C 207.464,151.707 196.464,154.04 185.5,156.5C 184.062,152.222 182.728,147.889 181.5,143.5C 185.997,141.734 190.664,140.734 195.5,140.5C 195.5,131.833 195.5,123.167 195.5,114.5C 191.167,114.5 186.833,114.5 182.5,114.5C 182.5,110.167 182.5,105.833 182.5,101.5C 186.833,101.5 191.167,101.5 195.5,101.5C 195.5,99.5 195.5,97.5 195.5,95.5C 192.289,95.988 189.456,95.3213 187,93.5C 186.586,93.9574 186.086,94.2907 185.5,94.5C 183.353,90.5664 181.686,86.3998 180.5,82C 183.978,78.5218 187.478,75.0218 191,71.5C 193.988,67.1915 196.155,62.5249 197.5,57.5C 202.196,57.9033 206.863,58.57 211.5,59.5C 211.167,60.1667 210.833,60.8333 210.5,61.5C 214.167,68.5 219.5,73.8333 226.5,77.5C 224.778,82.3213 222.111,86.3213 218.5,89.5 Z"/></g>
<g><path style="opacity:1" fill="#fefdfc" d="M 456.5,58.5 C 458.017,58.5106 459.184,59.1772 460,60.5C 462.394,63.3852 464.561,66.3852 466.5,69.5C 461.979,78.7083 457.312,87.8749 452.5,97C 458.796,98.9904 465.129,100.824 471.5,102.5C 472.887,96.2311 473.887,89.8978 474.5,83.5C 479.83,84.6656 484.997,86.3323 490,88.5C 489.308,95.6083 487.808,102.608 485.5,109.5C 490.531,113.342 495.531,117.176 500.5,121C 497.374,125.63 494.04,130.13 490.5,134.5C 487.01,131.589 483.344,128.922 479.5,126.5C 473.329,136.845 465.829,146.178 457,154.5C 452.958,150.29 448.792,146.29 444.5,142.5C 452.962,135.71 459.962,127.71 465.5,118.5C 460.635,115.042 455.135,113.042 449,112.5C 446.966,112.354 445.299,113.02 444,114.5C 439.927,124.819 433.76,133.652 425.5,141C 413.179,145.922 405.012,142.089 401,129.5C 400.573,117.188 405.739,108.022 416.5,102C 422.677,98.2742 429.344,95.9408 436.5,95C 439.294,89.9117 441.961,84.7451 444.5,79.5C 443.333,79.1667 442.167,78.8333 441,78.5C 434.534,79.9404 428.034,80.7737 421.5,81C 419.779,75.9495 418.446,70.7828 417.5,65.5C 430.968,65.0318 443.968,62.6985 456.5,58.5 Z"/></g>
<g><path style="opacity:1" fill="#d5cf8a" d="M 270.5,60.5 C 271.494,70.6532 271.828,80.9865 271.5,91.5C 274.5,91.5 277.5,91.5 280.5,91.5C 280.821,96.6946 280.487,101.695 279.5,106.5C 279.5,101.833 279.5,97.1667 279.5,92.5C 276.5,92.5 273.5,92.5 270.5,92.5C 270.5,81.8333 270.5,71.1667 270.5,60.5 Z"/></g>
<g><path style="opacity:1" fill="#fefdfc" d="M 800.5,81.5 C 802.833,81.5 805.167,81.5 807.5,81.5C 807.194,84.3854 807.527,87.0521 808.5,89.5C 808.5,91.5 808.5,93.5 808.5,95.5C 802.848,96.0318 797.181,96.3651 791.5,96.5C 791.172,104.593 791.839,112.593 793.5,120.5C 800.877,123.342 807.877,126.842 814.5,131C 812.293,135.247 809.96,139.414 807.5,143.5C 803.441,140.933 799.274,138.6 795,136.5C 792.93,148.984 785.43,154.984 772.5,154.5C 764.291,154.42 757.458,151.42 752,145.5C 746.873,131.259 751.706,122.092 766.5,118C 770.152,117.501 773.818,117.335 777.5,117.5C 777.1,111.171 776.767,104.838 776.5,98.5C 767.833,98.5 759.167,98.5 750.5,98.5C 750.5,93.5 750.5,88.5 750.5,83.5C 759.167,83.5 767.833,83.5 776.5,83.5C 776.5,76.1667 776.5,68.8333 776.5,61.5C 781.5,61.5 786.5,61.5 791.5,61.5C 791.5,68.1667 791.5,74.8333 791.5,81.5C 794.5,81.5 797.5,81.5 800.5,81.5 Z"/></g>
<g><path style="opacity:1" fill="#fefefc" d="M 941.5,60.5 C 946.925,62.3774 952.259,64.544 957.5,67C 956.438,69.7905 955.105,72.4572 953.5,75C 962.702,75.7931 971.869,75.6265 981,74.5C 985.503,76.3239 989.336,78.9906 992.5,82.5C 983.069,114.586 963.736,138.586 934.5,154.5C 930.682,150.182 926.682,146.015 922.5,142C 945.196,130.806 961.529,113.639 971.5,90.5C 962.5,89.1667 953.5,89.1667 944.5,90.5C 938.062,99.1083 931.062,107.275 923.5,115C 922.5,115.667 921.5,115.667 920.5,115C 916.644,111.9 912.977,108.567 909.5,105C 924.251,93.0854 934.918,78.2521 941.5,60.5 Z"/></g>
<g><path style="opacity:1" fill="#fefefc" d="M 1070.5,61.5 C 1075.15,65.1429 1079.81,68.8096 1084.5,72.5C 1075.88,81.8835 1066.38,90.2168 1056,97.5C 1055.5,115.83 1055.33,134.164 1055.5,152.5C 1050.17,152.5 1044.83,152.5 1039.5,152.5C 1039.67,137.496 1039.5,122.496 1039,107.5C 1030.13,113.271 1020.79,118.271 1011,122.5C 1007.6,118.036 1004.43,113.37 1001.5,108.5C 1020.91,100.298 1038.91,89.7983 1055.5,77C 1060.7,71.9646 1065.7,66.798 1070.5,61.5 Z"/></g>
<g><path style="opacity:1" fill="#fefdfc" d="M 726.5,62.5 C 732.132,63.6261 737.799,64.6261 743.5,65.5C 737.989,84.7968 736.155,104.464 738,124.5C 738.543,122.369 739.376,120.369 740.5,118.5C 743.527,120.86 746.194,123.527 748.5,126.5C 744.904,134.885 742.237,143.551 740.5,152.5C 735.833,152.5 731.167,152.5 726.5,152.5C 721.214,122.507 721.214,92.5068 726.5,62.5 Z"/></g>
<g><path style="opacity:1" fill="#fdfdfa" d="M 1100.5,64.5 C 1108.75,69.7436 1116.41,75.7436 1123.5,82.5C 1120.18,87.1518 1116.51,91.4851 1112.5,95.5C 1105.43,89.0918 1098.1,83.0918 1090.5,77.5C 1093.86,73.148 1097.19,68.8147 1100.5,64.5 Z"/></g>
<g><path style="opacity:1" fill="#fefdfc" d="M 548.5,67.5 C 575.757,63.5217 593.257,74.5217 601,100.5C 602.703,125.598 591.869,142.764 568.5,152C 567.216,152.684 566.049,152.517 565,151.5C 562.7,147.732 560.533,143.898 558.5,140C 563.343,137.154 568.343,134.487 573.5,132C 585.138,121.756 588.638,109.256 584,94.5C 578.902,85.3651 571.069,81.0318 560.5,81.5C 561.641,100.819 557.474,118.819 548,135.5C 538.313,148.798 527.646,149.798 516,138.5C 503.585,115.644 507.085,95.4774 526.5,78C 533.266,73.1151 540.6,69.6151 548.5,67.5 Z"/></g>
<g><path style="opacity:1" fill="#e4e1b5" d="M 226.5,60.5 C 226.5,64.5 226.5,68.5 226.5,72.5C 236.348,72.1729 246.014,72.5062 255.5,73.5C 245.5,73.5 235.5,73.5 225.5,73.5C 225.182,68.9677 225.515,64.6344 226.5,60.5 Z"/></g>
<g><path style="opacity:1" fill="#fefefd" d="M 824.5,72.5 C 849.5,72.5 874.5,72.5 899.5,72.5C 899.5,97.1667 899.5,121.833 899.5,146.5C 894.167,146.5 888.833,146.5 883.5,146.5C 883.5,144.5 883.5,142.5 883.5,140.5C 869.167,140.5 854.833,140.5 840.5,140.5C 840.5,142.5 840.5,144.5 840.5,146.5C 835.167,146.5 829.833,146.5 824.5,146.5C 824.5,121.833 824.5,97.1667 824.5,72.5 Z"/></g>
<g><path style="opacity:1" fill="#e5e2b8" d="M 100.5,75.5 C 97.3752,74.5206 94.0419,74.1872 90.5,74.5C 91.3513,73.7446 93.018,73.4112 95.5,73.5C 97.5,73.8333 99.5,74.1667 101.5,74.5C 101.376,75.1067 101.043,75.44 100.5,75.5 Z"/></g>
<g><path style="opacity:1" fill="#c1ba54" d="M 90.5,74.5 C 94.0419,74.1872 97.3752,74.5206 100.5,75.5C 96.8663,79.5284 93.5329,79.1951 90.5,74.5 Z"/></g>
<g><path style="opacity:1" fill="#c1b952" d="M 203.5,74.5 C 206.165,76.6402 208.498,79.1402 210.5,82C 206.5,82.6667 202.5,82.6667 198.5,82C 200.808,79.8723 202.474,77.3723 203.5,74.5 Z"/></g>
<g><path style="opacity:1" fill="#c6bf62" d="M 347.5,82.5 C 351.683,81.1889 356.016,81.1889 360.5,82.5C 358.772,84.2255 356.772,85.5589 354.5,86.5C 352.15,85.1389 349.816,83.8056 347.5,82.5 Z"/></g>
<g><path style="opacity:1" fill="#fdfdfb" d="M 1166.5,82.5 C 1168.37,82.8588 1169.87,83.8588 1171,85.5C 1173.69,88.6919 1176.19,92.0252 1178.5,95.5C 1157.9,122.818 1131.24,141.818 1098.5,152.5C 1095.31,147.446 1092.64,142.112 1090.5,136.5C 1099.46,133.025 1108.46,129.525 1117.5,126C 1137.8,115.86 1154.13,101.36 1166.5,82.5 Z"/></g>
<g><path style="opacity:1" fill="#bfb74d" d="M 543.5,83.5 C 546.456,97.1609 544.623,110.494 538,123.5C 531.859,130.79 527.526,129.79 525,120.5C 522.71,103.747 528.876,91.4138 543.5,83.5 Z"/></g>
<g><path style="opacity:1" fill="#e0dcaa" d="M 800.5,81.5 C 802.948,80.5269 805.615,80.1936 808.5,80.5C 808.5,83.5 808.5,86.5 808.5,89.5C 807.527,87.0521 807.194,84.3854 807.5,81.5C 805.167,81.5 802.833,81.5 800.5,81.5 Z"/></g>
<g><path style="opacity:1" fill="#ddd89f" d="M 109.5,85.5 C 117.167,86.8333 124.833,86.8333 132.5,85.5C 133.043,85.56 133.376,85.8933 133.5,86.5C 124.853,87.6652 116.186,87.8319 107.5,87C 108.044,86.2828 108.711,85.7828 109.5,85.5 Z"/></g>
<g><path style="opacity:1" fill="#d0ca7d" d="M 709.5,86.5 C 691.007,87.4969 672.341,87.8302 653.5,87.5C 653.5,90.8333 653.5,94.1667 653.5,97.5C 652.518,94.0381 652.185,90.3714 652.5,86.5C 671.5,86.5 690.5,86.5 709.5,86.5 Z"/></g>
<g><path style="opacity:1" fill="#beb64a" d="M 840.5,87.5 C 854.833,87.5 869.167,87.5 883.5,87.5C 883.5,100.167 883.5,112.833 883.5,125.5C 869.167,125.5 854.833,125.5 840.5,125.5C 840.5,112.833 840.5,100.167 840.5,87.5 Z"/></g>
<g><path style="opacity:1" fill="#e3dfb1" d="M 218.5,89.5 C 217.539,91.2646 217.205,93.2646 217.5,95.5C 215.167,95.5 212.833,95.5 210.5,95.5C 212.265,94.5386 214.265,94.2053 216.5,94.5C 216.201,92.396 216.534,90.396 217.5,88.5C 218.107,88.6236 218.44,88.9569 218.5,89.5 Z"/></g>
<g><path style="opacity:1" fill="#bfb74c" d="M 365.5,105.5 C 365.5,107.167 365.5,108.833 365.5,110.5C 358.5,110.5 351.5,110.5 344.5,110.5C 344.5,108.5 344.5,106.5 344.5,104.5C 347.578,103.798 350.578,102.798 353.5,101.5C 357.318,103.41 361.318,104.744 365.5,105.5 Z"/></g>
<g><path style="opacity:1" fill="#fefefd" d="M 152.5,102.5 C 152.5,112.5 152.5,122.5 152.5,132.5C 150.076,132.192 147.743,132.526 145.5,133.5C 144.627,135.413 143.627,137.247 142.5,139C 151.494,139.5 160.494,139.666 169.5,139.5C 169.5,144.167 169.5,148.833 169.5,153.5C 136.833,153.5 104.167,153.5 71.5,153.5C 71.5,148.833 71.5,144.167 71.5,139.5C 80.5,139.5 89.5,139.5 98.5,139.5C 98.3522,133.006 95.0189,130.673 88.5,132.5C 88.5,122.5 88.5,112.5 88.5,102.5C 109.833,102.5 131.167,102.5 152.5,102.5 Z"/></g>
<g><path style="opacity:1" fill="#c0b851" d="M 220.5,106.5 C 227.5,106.5 234.5,106.5 241.5,106.5C 241.667,117.505 241.5,128.505 241,139.5C 238.936,140.591 236.769,140.758 234.5,140C 236.557,138.281 238.224,136.281 239.5,134C 237.32,131.316 235.32,128.483 233.5,125.5C 234.436,124.026 235.77,123.026 237.5,122.5C 238.583,121.635 238.749,120.635 238,119.5C 235.959,115.916 233.792,112.416 231.5,109C 228.006,108.897 224.673,109.73 221.5,111.5C 220.548,109.955 220.215,108.288 220.5,106.5 Z"/></g>
<g><path style="opacity:1" fill="#d2cc80" d="M 365.5,105.5 C 366.461,107.265 366.795,109.265 366.5,111.5C 358.981,111.825 351.648,111.492 344.5,110.5C 351.5,110.5 358.5,110.5 365.5,110.5C 365.5,108.833 365.5,107.167 365.5,105.5 Z"/></g>
<g><path style="opacity:1" fill="#c2ba56" d="M 424.5,112.5 C 426.199,112.34 427.866,112.506 429.5,113C 427.248,118.176 424.248,122.843 420.5,127C 415.667,128.167 413.834,126.333 415,121.5C 417.406,117.592 420.572,114.592 424.5,112.5 Z"/></g>
<g><path style="opacity:1" fill="#beb64a" d="M 103.5,115.5 C 114.833,115.5 126.167,115.5 137.5,115.5C 137.5,116.833 137.5,118.167 137.5,119.5C 126.167,119.5 114.833,119.5 103.5,119.5C 103.5,118.167 103.5,116.833 103.5,115.5 Z"/></g>
<g><path style="opacity:1" fill="#e2deae" d="M 220.5,116.5 C 218.987,117.51 216.653,117.843 213.5,117.5C 213.737,118.791 213.404,119.791 212.5,120.5C 212.5,119.167 212.5,117.833 212.5,116.5C 215.167,116.5 217.833,116.5 220.5,116.5 Z"/></g>
<g><path style="opacity:1" fill="#fdfdfa" d="M 302.5,116.5 C 307.149,119.474 311.816,122.474 316.5,125.5C 314.384,137.024 310.217,147.691 304,157.5C 299.359,154.359 294.859,151.026 290.5,147.5C 297.24,138.288 301.24,127.955 302.5,116.5 Z"/></g>
<g><path style="opacity:1" fill="#fdfdfa" d="M 185.5,118.5 C 188.167,118.5 190.833,118.5 193.5,118.5C 194.372,124.789 194.705,131.122 194.5,137.5C 191.119,137.46 187.786,137.793 184.5,138.5C 184.677,133.134 184.344,127.8 183.5,122.5C 183.803,120.886 184.47,119.552 185.5,118.5 Z"/></g>
<g><path style="opacity:1" fill="#c5bd5d" d="M 220.5,116.5 C 217.833,116.5 215.167,116.5 212.5,116.5C 212.5,117.833 212.5,119.167 212.5,120.5C 211.979,124.481 211.646,128.481 211.5,132.5C 214.5,132.5 217.5,132.5 220.5,132.5C 220.689,128.029 221.523,123.696 223,119.5C 225.459,122.07 226.459,125.07 226,128.5C 223.833,130.667 221.667,132.833 219.5,135C 216.736,135.532 214.07,136.366 211.5,137.5C 210.503,129.862 210.169,122.196 210.5,114.5C 214.329,113.931 217.663,114.598 220.5,116.5 Z"/></g>
<g><path style="opacity:1" fill="#d5d08c" d="M 327.5,110.5 C 327.56,109.957 327.893,109.624 328.5,109.5C 329.817,115.988 329.817,122.322 328.5,128.5C 328.823,122.31 328.49,116.31 327.5,110.5 Z"/></g>
<g><path style="opacity:1" fill="#bdb649" d="M 344.5,123.5 C 351.5,123.5 358.5,123.5 365.5,123.5C 365.5,124.833 365.5,126.167 365.5,127.5C 358.5,127.5 351.5,127.5 344.5,127.5C 344.5,126.167 344.5,124.833 344.5,123.5 Z"/></g>
<g><path style="opacity:1" fill="#dfdba7" d="M 344.5,123.5 C 351.648,122.508 358.981,122.175 366.5,122.5C 366.5,124.5 366.5,126.5 366.5,128.5C 358.981,128.825 351.648,128.492 344.5,127.5C 351.5,127.5 358.5,127.5 365.5,127.5C 365.5,126.167 365.5,124.833 365.5,123.5C 358.5,123.5 351.5,123.5 344.5,123.5 Z"/></g>
<g><path style="opacity:1" fill="#c0b952" d="M 767.5,131.5 C 771.182,131.335 774.848,131.501 778.5,132C 779.661,134.721 778.994,137.054 776.5,139C 773.167,139.667 769.833,139.667 766.5,139C 763.709,136.016 764.042,133.516 767.5,131.5 Z"/></g>
<g><path style="opacity:1" fill="#bfb74d" d="M 113.5,133.5 C 117.981,132.352 122.648,132.185 127.5,133C 126.331,135.007 125.665,137.173 125.5,139.5C 122.167,139.5 118.833,139.5 115.5,139.5C 115.405,137.214 114.738,135.214 113.5,133.5 Z"/></g>
</svg>
