<?xml version="1.0" encoding="UTF-8"?>
<!DOCTYPE svg PUBLIC "-//W3C//DTD SVG 1.1//EN" "http://www.w3.org/Graphics/SVG/1.1/DTD/svg11.dtd">
<svg xmlns="http://www.w3.org/2000/svg" version="1.1" width="860px" height="232px" style="shape-rendering:geometricPrecision; text-rendering:geometricPrecision; image-rendering:optimizeQuality; fill-rule:evenodd; clip-rule:evenodd" xmlns:xlink="http://www.w3.org/1999/xlink">
<g><path style="opacity:0.994" fill="#bcd24c" d="M 42.5,20.5 C 300.834,20.3333 559.167,20.5 817.5,21C 828.333,23.8333 835.167,30.6667 838,41.5C 838.667,79.8333 838.667,118.167 838,156.5C 835.167,167.333 828.333,174.167 817.5,177C 559.167,177.667 300.833,177.667 42.5,177C 31.6667,174.167 24.8333,167.333 22,156.5C 21.3333,118.167 21.3333,79.8333 22,41.5C 25.0161,30.6517 31.8495,23.6517 42.5,20.5 Z"/></g>
<g><path style="opacity:1" fill="#679904" d="M 43.5,25.5 C 301.167,25.3333 558.834,25.5 816.5,26C 824.667,28.8333 830.167,34.3333 833,42.5C 833.667,80.1667 833.667,117.833 833,155.5C 830.167,163.667 824.667,169.167 816.5,172C 558.833,172.667 301.167,172.667 43.5,172C 35.3333,169.167 29.8333,163.667 27,155.5C 26.3333,117.833 26.3333,80.1667 27,42.5C 30.0191,34.3156 35.5191,28.649 43.5,25.5 Z"/></g>
<g><path style="opacity:1" fill="#fdfefc" d="M 543.5,62.5 C 546.167,62.5 548.833,62.5 551.5,62.5C 551.5,59.5 551.5,56.5 551.5,53.5C 557.167,53.5 562.833,53.5 568.5,53.5C 568.326,55.861 567.993,58.1944 567.5,60.5C 576.482,59.7817 585.482,59.4484 594.5,59.5C 594.5,63.5 594.5,67.5 594.5,71.5C 572.576,70.2826 550.909,71.9492 529.5,76.5C 527.865,72.427 526.865,68.0937 526.5,63.5C 524.533,63.2606 522.699,63.5939 521,64.5C 520.501,70.1569 520.334,75.8236 520.5,81.5C 523.5,81.5 526.5,81.5 529.5,81.5C 529.5,85.5 529.5,89.5 529.5,93.5C 526.813,93.3359 524.146,93.5026 521.5,94C 525.132,96.6298 528.465,99.6298 531.5,103C 528.212,106.19 528.879,107.69 533.5,107.5C 548.186,106.331 562.852,104.997 577.5,103.5C 580.833,103.667 584.167,103.833 587.5,104C 590.973,104.807 593.14,106.973 594,110.5C 594.667,124.5 594.667,138.5 594,152.5C 593.065,155.102 591.232,156.602 588.5,157C 582.509,157.499 576.509,157.666 570.5,157.5C 569.656,153.126 568.656,148.793 567.5,144.5C 571.167,144.5 574.833,144.5 578.5,144.5C 578.5,134.5 578.5,124.5 578.5,114.5C 567.223,116.028 555.889,117.028 544.5,117.5C 543.485,130.806 542.819,144.139 542.5,157.5C 537.5,157.5 532.5,157.5 527.5,157.5C 527.667,142.496 527.5,127.496 527,112.5C 525.748,114.001 524.748,115.668 524,117.5C 522.667,116.167 521.333,114.833 520,113.5C 519.5,128.163 519.333,142.83 519.5,157.5C 513.833,157.5 508.167,157.5 502.5,157.5C 502.667,146.828 502.5,136.161 502,125.5C 500.311,128.891 498.144,131.891 495.5,134.5C 492.732,130.534 490.732,126.201 489.5,121.5C 492.778,113.337 496.445,105.337 500.5,97.5C 500,97.1667 499.5,96.8333 499,96.5C 495.863,97.3606 492.697,98.0272 489.5,98.5C 489.5,93.5 489.5,88.5 489.5,83.5C 494.493,83.0843 499.493,82.7509 504.5,82.5C 504.826,78.1161 504.492,73.7828 503.5,69.5C 500.551,70.8771 497.551,71.7104 494.5,72C 492.833,67.6667 491.167,63.3333 489.5,59C 500.432,56.6216 511.432,54.4549 522.5,52.5C 523.772,52.5698 524.938,52.9032 526,53.5C 527.741,56.3093 528.908,59.3093 529.5,62.5C 534.167,62.5 538.833,62.5 543.5,62.5 Z"/></g>
<g><path style="opacity:1" fill="#fdfdfc" d="M 108.5,119.5 C 107.167,119.5 105.833,119.5 104.5,119.5C 104.784,117.585 104.451,115.919 103.5,114.5C 102.07,114.421 100.736,114.754 99.5,115.5C 98.9347,113.49 97.9347,111.824 96.5,110.5C 95.1667,114.5 95.1667,118.5 96.5,122.5C 97.4168,121.873 98.4168,121.539 99.5,121.5C 101.167,121.5 102.833,121.5 104.5,121.5C 106.716,122.203 108.549,123.536 110,125.5C 112.567,138.2 107.9,142.2 96,137.5C 95.5004,144.492 95.3337,151.492 95.5,158.5C 90.5,158.5 85.5,158.5 80.5,158.5C 80.8333,143.167 81.1667,127.833 81.5,112.5C 71.1337,114.606 66.9671,110.606 69,100.5C 71.3494,96.4722 74.1827,92.8055 77.5,89.5C 74.8494,87.3501 72.3494,85.0168 70,82.5C 68.5783,79.9699 68.245,77.3033 69,74.5C 74.6086,67.055 80.7752,60.055 87.5,53.5C 91.1667,56.3333 94.8333,59.1667 98.5,62C 95.016,66.4514 91.1827,70.618 87,74.5C 86.3013,76.0738 86.6346,77.4071 88,78.5C 92.7007,74.1342 97.034,69.4675 101,64.5C 103.333,66.8333 105.667,69.1667 108,71.5C 108.497,68.854 108.664,66.1873 108.5,63.5C 116.5,63.5 124.5,63.5 132.5,63.5C 132.5,60.1667 132.5,56.8333 132.5,53.5C 138.5,53.5 144.5,53.5 150.5,53.5C 150.5,56.8333 150.5,60.1667 150.5,63.5C 158.167,63.5 165.833,63.5 173.5,63.5C 173.5,67.1667 173.5,70.8333 173.5,74.5C 165.5,74.5 157.5,74.5 149.5,74.5C 149.5,76.1667 149.5,77.8333 149.5,79.5C 155.833,79.5 162.167,79.5 168.5,79.5C 168.5,83.5 168.5,87.5 168.5,91.5C 149.501,92.1969 130.501,92.8636 111.5,93.5C 111.5,89.1667 111.5,84.8333 111.5,80.5C 117.842,80.6662 124.175,80.4995 130.5,80C 131.38,78.6439 131.714,77.1439 131.5,75.5C 124.084,75.3012 116.751,75.9678 109.5,77.5C 105.682,81.8183 101.682,85.985 97.5,90C 100.578,89.9345 103.578,90.1012 106.5,90.5C 107.785,93.0205 108.452,95.6872 108.5,98.5C 127.829,97.2593 147.163,96.426 166.5,96C 169.583,96.786 171.749,98.6193 173,101.5C 173.499,106.823 173.666,112.156 173.5,117.5C 168.167,117.5 162.833,117.5 157.5,117.5C 157.5,114.167 157.5,110.833 157.5,107.5C 145.134,107.851 132.8,108.517 120.5,109.5C 119.992,112.176 119.825,114.843 120,117.5C 120.333,117.167 120.667,116.833 121,116.5C 125.387,118.229 129.553,120.229 133.5,122.5C 128.762,134.383 124.429,146.383 120.5,158.5C 115.347,157.595 110.347,156.095 105.5,154C 104.572,153.612 103.905,152.945 103.5,152C 109.459,141.584 114.459,130.751 118.5,119.5C 115.167,119.5 111.833,119.5 108.5,119.5 Z"/></g>
<g><path style="opacity:1" fill="#c3d69a" d="M 410.5,62.5 C 410.5,59.8333 410.5,57.1667 410.5,54.5C 405.5,54.5 400.5,54.5 395.5,54.5C 395.821,59.6946 395.487,64.6946 394.5,69.5C 394.5,64.1667 394.5,58.8333 394.5,53.5C 400.167,53.5 405.833,53.5 411.5,53.5C 411.81,56.7131 411.477,59.7131 410.5,62.5 Z"/></g>
<g><path style="opacity:1" fill="#fdfdfc" d="M 410.5,62.5 C 410.5,66.8333 410.5,71.1667 410.5,75.5C 413.833,75.5 417.167,75.5 420.5,75.5C 420.5,79.8333 420.5,84.1667 420.5,88.5C 416.833,88.5 413.167,88.5 409.5,88.5C 409.177,92.226 409.511,95.8927 410.5,99.5C 412.45,98.6279 414.45,97.9612 416.5,97.5C 417.486,101.97 417.819,106.637 417.5,111.5C 415.184,112.806 412.85,114.139 410.5,115.5C 409.963,128.248 409.13,140.915 408,153.5C 401.887,157.867 395.053,159.534 387.5,158.5C 386.242,153.058 384.575,147.724 382.5,142.5C 386.107,141.511 389.774,141.177 393.5,141.5C 394.815,136.32 394.815,130.986 393.5,125.5C 392.893,125.624 392.56,125.957 392.5,126.5C 390.527,127.487 388.527,128.487 386.5,129.5C 384.216,124.822 382.216,119.989 380.5,115C 384.389,112.134 388.556,109.634 393,107.5C 393.499,101.843 393.666,96.1764 393.5,90.5C 389.143,90.5865 384.81,90.9198 380.5,91.5C 380.5,86.8333 380.5,82.1667 380.5,77.5C 385.152,77.0019 389.819,76.6686 394.5,76.5C 394.5,74.1667 394.5,71.8333 394.5,69.5C 395.487,64.6946 395.821,59.6946 395.5,54.5C 400.5,54.5 405.5,54.5 410.5,54.5C 410.5,57.1667 410.5,59.8333 410.5,62.5 Z"/></g>
<g><path style="opacity:1" fill="#fcfdfb" d="M 455.5,86.5 C 455.5,79.8333 455.5,73.1667 455.5,66.5C 454.209,66.2627 453.209,66.596 452.5,67.5C 448.894,67.2108 445.394,67.5442 442,68.5C 440.754,77.4683 439.92,86.4683 439.5,95.5C 434.489,94.8077 429.489,93.9744 424.5,93C 423.422,92.3261 422.755,91.3261 422.5,90C 424.387,78.7323 426.72,67.5657 429.5,56.5C 437.892,54.7583 446.392,53.7583 455,53.5C 461.889,52.5646 467.222,54.898 471,60.5C 471.499,66.4908 471.666,72.4908 471.5,78.5C 475.833,78.5 480.167,78.5 484.5,78.5C 484.5,83.1667 484.5,87.8333 484.5,92.5C 476.509,93.2662 468.509,93.4329 460.5,93C 457.507,91.8415 455.84,89.6748 455.5,86.5 Z"/></g>
<g><path style="opacity:1" fill="#fdfdfc" d="M 238.5,57.5 C 244.5,57.5 250.5,57.5 256.5,57.5C 257.332,65.8172 257.999,74.1505 258.5,82.5C 263.833,82.5 269.167,82.5 274.5,82.5C 274.5,87.5 274.5,92.5 274.5,97.5C 269.167,97.5 263.833,97.5 258.5,97.5C 257.552,116.488 256.885,135.488 256.5,154.5C 249.436,154.408 242.436,153.742 235.5,152.5C 237.945,134.931 238.945,117.264 238.5,99.5C 227.861,101.384 217.194,103.051 206.5,104.5C 206.5,98.1667 206.5,91.8333 206.5,85.5C 217.472,84.4253 228.472,83.7586 239.5,83.5C 238.917,74.8451 238.584,66.1785 238.5,57.5 Z"/></g>
<g><path style="opacity:1" fill="#a8c56e" d="M 670.5,58.5 C 664.167,58.5 657.833,58.5 651.5,58.5C 651.5,59.8333 651.5,61.1667 651.5,62.5C 650.549,61.0813 650.216,59.4147 650.5,57.5C 657.354,57.176 664.021,57.5093 670.5,58.5 Z"/></g>
<g><path style="opacity:1" fill="#fdfefc" d="M 670.5,58.5 C 670.5,63.5 670.5,68.5 670.5,73.5C 678.495,73.9355 686.495,74.2688 694.5,74.5C 694.5,75.8333 694.5,77.1667 694.5,78.5C 693.527,80.9479 693.194,83.6146 693.5,86.5C 688.833,86.5 684.167,86.5 679.5,86.5C 676.5,86.5 673.5,86.5 670.5,86.5C 670.334,92.8421 670.5,99.1754 671,105.5C 678.695,118.188 678.028,130.522 669,142.5C 664.614,147.389 659.78,151.722 654.5,155.5C 648.379,152.94 642.379,150.106 636.5,147C 641.956,143.213 647.123,139.046 652,134.5C 653.59,132.35 654.257,130.017 654,127.5C 641.995,140.407 628.161,142.907 612.5,135C 603.167,126.434 601,116.267 606,104.5C 615.234,92.5283 627.401,88.0283 642.5,91C 644.813,91.662 647.146,92.162 649.5,92.5C 650.209,93.404 651.209,93.7373 652.5,93.5C 652.5,91.1667 652.5,88.8333 652.5,86.5C 646.31,86.1771 640.31,86.5104 634.5,87.5C 623.029,87.7375 611.695,89.0708 600.5,91.5C 600.5,85.8333 600.5,80.1667 600.5,74.5C 617.494,73.9303 634.494,73.597 651.5,73.5C 651.5,69.8333 651.5,66.1667 651.5,62.5C 651.5,61.1667 651.5,59.8333 651.5,58.5C 657.833,58.5 664.167,58.5 670.5,58.5 Z"/></g>
<g><path style="opacity:1" fill="#fdfdfc" d="M 744.5,58.5 C 752.507,58.3336 760.507,58.5003 768.5,59C 772.084,60.6638 773.751,63.4971 773.5,67.5C 773.485,69.6341 772.985,71.6341 772,73.5C 766.431,79.0656 760.265,83.899 753.5,88C 780.158,85.3247 791.992,97.158 789,123.5C 783.861,138.835 773.361,148.335 757.5,152C 747.809,155.216 738.142,155.216 728.5,152C 718.729,147.626 714.896,140.126 717,129.5C 720.405,121.099 726.572,115.933 735.5,114C 744.697,112.443 753.364,113.776 761.5,118C 763.333,120.5 765.167,123 767,125.5C 773.159,118.452 772.993,111.618 766.5,105C 762.708,103.219 758.708,102.386 754.5,102.5C 747.998,103.209 741.665,104.709 735.5,107C 726.87,110.819 718.536,114.819 710.5,119C 706.623,113.725 703.456,108.225 701,102.5C 715.082,93.2088 729.248,84.0421 743.5,75C 733.514,75.9255 723.514,77.0922 713.5,78.5C 713.5,72.8333 713.5,67.1667 713.5,61.5C 724.039,61.1171 734.372,60.1171 744.5,58.5 Z"/></g>
<g><path style="opacity:1" fill="#fdfdfc" d="M 197.5,125.5 C 196.508,133.316 196.174,141.316 196.5,149.5C 192.958,149.187 189.625,149.521 186.5,150.5C 183.833,150.5 181.167,150.5 178.5,150.5C 178.728,120.662 181.061,90.9955 185.5,61.5C 191.491,61.9657 197.491,62.299 203.5,62.5C 200.372,83.3945 198.372,104.395 197.5,125.5 Z"/></g>
<g><path style="opacity:1" fill="#fdfdfc" d="M 310.5,61.5 C 331.5,61.5 352.5,61.5 373.5,61.5C 373.98,66.8221 374.313,72.1554 374.5,77.5C 353.531,75.7316 336.031,82.7316 322,98.5C 315.022,106.766 313.022,116.099 316,126.5C 318.087,130.302 321.254,132.802 325.5,134C 331.874,134.608 338.207,134.275 344.5,133C 351.496,131.055 358.496,129.222 365.5,127.5C 367.167,132.833 368.833,138.167 370.5,143.5C 357.139,147.924 343.472,150.924 329.5,152.5C 304.833,151.325 293.333,138.325 295,113.5C 297.921,98.4906 306.087,87.324 319.5,80C 306.505,80.915 293.505,82.0817 280.5,83.5C 280.5,76.8333 280.5,70.1667 280.5,63.5C 290.704,63.6461 300.704,62.9794 310.5,61.5 Z"/></g>
<g><path style="opacity:1" fill="#d2e1b4" d="M 551.5,53.5 C 551.5,56.5 551.5,59.5 551.5,62.5C 548.833,62.5 546.167,62.5 543.5,62.5C 545.607,61.5318 547.941,61.1984 550.5,61.5C 550.194,58.6146 550.527,55.9479 551.5,53.5 Z"/></g>
<g><path style="opacity:1" fill="#a0c061" d="M 526.5,63.5 C 526.865,68.0937 527.865,72.427 529.5,76.5C 528.791,77.404 527.791,77.7373 526.5,77.5C 526.5,72.8333 526.5,68.1667 526.5,63.5 Z"/></g>
<g><path style="opacity:1" fill="#fcfdfa" d="M 566.5,73.5 C 570.846,73.3343 575.179,73.501 579.5,74C 582.583,74.786 584.749,76.6193 586,79.5C 586.5,86.1583 586.666,92.825 586.5,99.5C 569.87,101.254 553.203,102.588 536.5,103.5C 537.125,94.4951 537.792,85.4951 538.5,76.5C 548.05,76.2161 557.384,75.2161 566.5,73.5 Z"/></g>
<g><path style="opacity:1" fill="#9abb57" d="M 452.5,67.5 C 453.209,66.596 454.209,66.2627 455.5,66.5C 455.5,73.1667 455.5,79.8333 455.5,86.5C 455.149,79.9347 454.149,73.6014 452.5,67.5 Z"/></g>
<g><path style="opacity:1" fill="#6b9c0f" d="M 553.5,84.5 C 558.833,84.5 564.167,84.5 569.5,84.5C 569.5,86.1667 569.5,87.8333 569.5,89.5C 563.856,90.3123 558.19,90.9789 552.5,91.5C 552.298,89.0504 552.631,86.717 553.5,84.5 Z"/></g>
<g><path style="opacity:1" fill="#c2d699" d="M 694.5,78.5 C 694.5,81.5 694.5,84.5 694.5,87.5C 689.305,87.8205 684.305,87.4872 679.5,86.5C 684.167,86.5 688.833,86.5 693.5,86.5C 693.194,83.6146 693.527,80.9479 694.5,78.5 Z"/></g>
<g><path style="opacity:1" fill="#a6c36b" d="M 634.5,87.5 C 640.31,86.5104 646.31,86.1771 652.5,86.5C 652.5,88.8333 652.5,91.1667 652.5,93.5C 651.209,93.7373 650.209,93.404 649.5,92.5C 651.256,91.4479 651.923,89.7812 651.5,87.5C 645.833,87.5 640.167,87.5 634.5,87.5 Z"/></g>
<g><path style="opacity:1" fill="#75a224" d="M 93.5,92.5 C 95.6005,96.8307 94.2672,98.6641 89.5,98C 90.965,96.2258 92.2983,94.3925 93.5,92.5 Z"/></g>
<g><path style="opacity:1" fill="#dbe6c2" d="M 440.5,98.5 C 435.061,98.9363 429.728,99.9363 424.5,101.5C 424.5,100.5 424.5,99.5 424.5,98.5C 429.833,98.5 435.167,98.5 440.5,98.5 Z"/></g>
<g><path style="opacity:1" fill="#fdfdfc" d="M 440.5,98.5 C 452.171,98.3335 463.838,98.5001 475.5,99C 480.143,101.072 481.643,104.572 480,109.5C 475.727,117.693 470.227,125.026 463.5,131.5C 470.415,136.56 477.748,141.06 485.5,145C 481.667,149.5 477.833,154 474,158.5C 466.819,153.577 459.486,148.911 452,144.5C 447.313,149.02 442.813,153.687 438.5,158.5C 433.667,155.918 429,153.085 424.5,150C 428.5,145.333 432.5,140.667 436.5,136C 432.334,133.083 428.001,130.416 423.5,128C 426.676,123.994 430.009,120.16 433.5,116.5C 438.079,118.706 442.579,121.039 447,123.5C 450.025,119.976 452.858,116.309 455.5,112.5C 452.667,112.167 449.833,111.833 447,111.5C 439.167,112.223 431.334,112.889 423.5,113.5C 423.833,109.5 424.167,105.5 424.5,101.5C 429.728,99.9363 435.061,98.9363 440.5,98.5 Z"/></g>
<g><path style="opacity:1" fill="#cfdfb0" d="M 416.5,97.5 C 416.56,96.9569 416.893,96.6236 417.5,96.5C 418.814,101.652 418.814,106.652 417.5,111.5C 417.819,106.637 417.486,101.97 416.5,97.5 Z"/></g>
<g><path style="opacity:1" fill="#6b9c10" d="M 625.5,105.5 C 629.514,105.334 633.514,105.501 637.5,106C 640.539,106.353 643.205,107.52 645.5,109.5C 642.211,118.288 635.878,122.455 626.5,122C 621.845,119.103 620.345,114.937 622,109.5C 623.376,108.295 624.542,106.962 625.5,105.5 Z"/></g>
<g><path style="opacity:1" fill="#6d9d14" d="M 103.5,114.5 C 103.5,116.5 103.5,118.5 103.5,120.5C 101.901,120.232 100.568,120.566 99.5,121.5C 98.4168,121.539 97.4168,121.873 96.5,122.5C 95.1667,118.5 95.1667,114.5 96.5,110.5C 97.9347,111.824 98.9347,113.49 99.5,115.5C 100.736,114.754 102.07,114.421 103.5,114.5 Z"/></g>
<g><path style="opacity:1" fill="#fdfefc" d="M 154.5,114.5 C 153.506,123.986 153.173,133.652 153.5,143.5C 155.415,143.784 157.081,143.451 158.5,142.5C 158.5,139.833 158.5,137.167 158.5,134.5C 163.507,134.751 168.507,135.084 173.5,135.5C 173.817,141.909 173.317,148.243 172,154.5C 171.167,155.333 170.333,156.167 169.5,157C 161.579,158.568 153.579,158.901 145.5,158C 138.39,156.287 135.39,151.787 136.5,144.5C 137.32,133.515 137.653,122.515 137.5,111.5C 143.167,111.5 148.833,111.5 154.5,111.5C 154.5,112.5 154.5,113.5 154.5,114.5 Z"/></g>
<g><path style="opacity:1" fill="#fafbf6" d="M 79.5,139.5 C 78.5655,140.568 78.2322,141.901 78.5,143.5C 76.5,143.5 74.5,143.5 72.5,143.5C 71.1667,143.5 69.8333,143.5 68.5,143.5C 68.2841,134.467 68.6175,125.467 69.5,116.5C 73.1667,116.5 76.8333,116.5 80.5,116.5C 80.0135,124.158 79.6802,131.825 79.5,139.5 Z"/></g>
<g><path style="opacity:1" fill="#aec878" d="M 103.5,114.5 C 104.451,115.919 104.784,117.585 104.5,119.5C 105.833,119.5 107.167,119.5 108.5,119.5C 107.167,120.167 105.833,120.833 104.5,121.5C 102.833,121.5 101.167,121.5 99.5,121.5C 100.568,120.566 101.901,120.232 103.5,120.5C 103.5,118.5 103.5,116.5 103.5,114.5 Z"/></g>
<g><path style="opacity:1" fill="#fcfdfa" d="M 553.5,119.5 C 559.176,119.334 564.843,119.501 570.5,120C 574.635,121.761 576.635,124.927 576.5,129.5C 575.799,133.808 575.466,138.141 575.5,142.5C 565.743,142.785 556.076,143.785 546.5,145.5C 546.5,137.5 546.5,129.5 546.5,121.5C 549.152,121.59 551.485,120.924 553.5,119.5 Z"/></g>
<g><path style="opacity:1" fill="#c5d89f" d="M 392.5,126.5 C 392.56,125.957 392.893,125.624 393.5,125.5C 394.815,130.986 394.815,136.32 393.5,141.5C 393.821,136.305 393.487,131.305 392.5,126.5 Z"/></g>
<g><path style="opacity:1" fill="#669901" d="M 557.5,128.5 C 559.833,128.5 562.167,128.5 564.5,128.5C 564.5,130.167 564.5,131.833 564.5,133.5C 562.167,133.5 559.833,133.5 557.5,133.5C 557.5,131.833 557.5,130.167 557.5,128.5 Z"/></g>
<g><path style="opacity:1" fill="#6b9c11" d="M 739.5,127.5 C 746.25,126.541 750.916,129.208 753.5,135.5C 748.083,138.676 742.416,139.176 736.5,137C 734.675,135.534 734.175,133.701 735,131.5C 736.397,129.93 737.897,128.596 739.5,127.5 Z"/></g>
<g><path style="opacity:1" fill="#a7c46d" d="M 154.5,114.5 C 154.5,123.833 154.5,133.167 154.5,142.5C 155.833,142.5 157.167,142.5 158.5,142.5C 157.081,143.451 155.415,143.784 153.5,143.5C 153.173,133.652 153.506,123.986 154.5,114.5 Z"/></g>
<g><path style="opacity:1" fill="#c9dba5" d="M 197.5,125.5 C 197.5,133.833 197.5,142.167 197.5,150.5C 193.833,150.5 190.167,150.5 186.5,150.5C 189.625,149.521 192.958,149.187 196.5,149.5C 196.174,141.316 196.508,133.316 197.5,125.5 Z"/></g>
<g><path style="opacity:1" fill="#b4cd82" d="M 79.5,139.5 C 79.5,141.167 79.5,142.833 79.5,144.5C 76.9407,144.802 74.6074,144.468 72.5,143.5C 74.5,143.5 76.5,143.5 78.5,143.5C 78.2322,141.901 78.5655,140.568 79.5,139.5 Z"/></g>
</svg>
